<?xml version="1.0" encoding="utf-8"?>
<!-- Generator: Adobe Illustrator 23.0.3, SVG Export Plug-In . SVG Version: 6.00 Build 0)  -->
<svg version="1.1" id="Layer_1" xmlns="http://www.w3.org/2000/svg" xmlns:xlink="http://www.w3.org/1999/xlink" x="0px" y="0px"
	 viewBox="0 0 48 48" style="enable-background:new 0 0 48 48;" xml:space="preserve">
<style type="text/css">
	.st0{fill:none;stroke:#000000;stroke-width:3;stroke-linecap:round;stroke-linejoin:round;stroke-miterlimit:10;}
	.st1{fill:none;stroke:#000000;stroke-width:3;stroke-linecap:round;stroke-linejoin:round;}
	.st2{fill:#9FA8DA;}
	.st3{fill:none;stroke:#000000;stroke-width:3;stroke-linecap:round;}
	.st4{fill:none;stroke:#000000;stroke-width:3;stroke-miterlimit:10;}
	.st5{fill:none;stroke:#000000;stroke-width:3;}
	.st6{fill:#90CAF9;}
	.st7{fill:#8CE7F2;}
	.st8{fill:#FFAB91;}
	.st9{fill:#FFE082;}
	.st10{fill:#A5D6A7;}
	.st11{fill:#F48FB1;}
	.st12{fill:none;stroke:#18193F;stroke-width:3;stroke-linecap:round;stroke-linejoin:round;}
	.st13{fill:none;stroke:#18193F;stroke-width:3;stroke-linecap:round;}
	.st14{fill:#18193F;}
	.st15{fill:none;stroke:#18193F;stroke-width:3;stroke-linecap:round;stroke-linejoin:round;stroke-miterlimit:10;}
	.st16{fill:none;stroke:#18193F;stroke-width:3;stroke-miterlimit:10;}
	.st17{fill:none;stroke:#18193F;stroke-width:3;}
	.st18{fill:none;stroke:#000000;stroke-width:2;}
	.st19{fill:none;stroke:#000000;stroke-width:2.5;stroke-linecap:round;stroke-linejoin:round;}
	.st20{fill:none;stroke:#18193F;stroke-width:2;}
	.st21{fill:none;stroke:#18193F;stroke-width:2.5;stroke-linecap:round;stroke-linejoin:round;}
</style>
<path class="st7" d="M32.8,9H16.2c-1.7,0-3.1,1.4-3.1,3.1V44c0,1.7,1.4,3.1,3.1,3.1h23.7c1.7,0,3.1-1.4,3.1-3.1V19.1
	c0-0.5-0.2-1-0.6-1.4l-8.1-8.1C33.9,9.2,33.4,9,32.8,9z"/>
<path class="st15" d="M38.5,20.9v-6.4h-7c-1.1,0-2-0.9-2-2v-7"/>
<path class="st15" d="M9.5,19.3v20.2c0,1.7,1.3,3,3,3h11"/>
<path class="st15" d="M29.5,5.5h-17c-1.7,0-3,1.3-3,3v4.2"/>
<line class="st15" x1="38.5" y1="14.5" x2="29.5" y2="5.5"/>
<line class="st12" x1="15.5" y1="20.5" x2="16.5" y2="20.5"/>
<line class="st12" x1="21.5" y1="20.5" x2="32.5" y2="20.5"/>
<line class="st12" x1="15.5" y1="26.5" x2="16.5" y2="26.5"/>
<line class="st12" x1="21.5" y1="26.5" x2="31" y2="26.5"/>
<line class="st12" x1="15.5" y1="32.5" x2="16.5" y2="32.5"/>
<line class="st12" x1="21.5" y1="32.5" x2="26.7" y2="32.5"/>
<path class="st12" d="M42,42.3c-1.6,1.4-3.7,2.2-6,2.2c-5.2,0-9.5-4.2-9.5-9.5s4.2-9.5,9.5-9.5s9.5,4.2,9.5,9.5"/>
<line class="st12" x1="36" y1="31.7" x2="36" y2="38.3"/>
<line class="st12" x1="39.3" y1="35" x2="32.7" y2="35"/>
</svg>