<?xml version="1.0" encoding="iso-8859-1"?>
<!-- Generator: Adobe Illustrator 23.0.3, SVG Export Plug-In . SVG Version: 6.00 Build 0)  -->
<svg version="1.1" id="Layer_1" xmlns="http://www.w3.org/2000/svg" xmlns:xlink="http://www.w3.org/1999/xlink" x="0px" y="0px"
	 viewBox="0 0 48 48" style="enable-background:new 0 0 48 48;" xml:space="preserve">
<path style="fill:#8CE7F2;" d="M36.201,46h3.889c2.133,0,3.879-1.745,3.879-3.879V29.515v-6.012v-5.624
	c0-2.133-1.745-3.879-3.879-3.879h-7.273l-6.726,0H13.909c-2.133,0-3.879,1.745-3.879,3.879V34.17v7.952
	c0,2.133,1.745,3.879,3.879,3.879h5.004H36.201z"/>
<path style="fill:none;stroke:#18193F;stroke-width:3;stroke-linecap:round;stroke-linejoin:round;" d="M41.5,37.5c2.2,0,4-1.8,4-4
	v-13v-6.2V8.5c0-2.2-1.8-4-4-4H34l-6.936,0H14.5c-2.2,0-4,1.8-4,4v1"/>
<path style="fill:none;stroke:#18193F;stroke-width:3;stroke-linecap:round;stroke-linejoin:round;" d="M17.638,9.5H9.5
	c-2.2,0-4,1.8-4,4v16.8v8.2c0,2.2,1.8,4,4,4h5.16h11.021"/>
<path style="fill:none;stroke:#18193F;stroke-width:3;stroke-linecap:round;stroke-linejoin:round;" d="M32.915,42.5H36.5
	c2.2,0,4-1.8,4-4v-13v-6.2v-5.8c0-2.2-1.8-4-4-4H29l-4.553,0"/>
<line style="fill:none;stroke:#18193F;stroke-width:3;stroke-linecap:round;stroke-linejoin:round;" x1="40.5" y1="19.5" x2="12.234" y2="19.5"/>
<circle style="fill:#18193F;" cx="35.5" cy="14.5" r="1.5"/>
<circle style="fill:#18193F;" cx="30.5" cy="14.5" r="1.5"/>
</svg>