<?xml version="1.0" encoding="iso-8859-1"?>
<!-- Generator: Adobe Illustrator 23.0.3, SVG Export Plug-In . SVG Version: 6.00 Build 0)  -->
<svg version="1.1" id="Layer_1" xmlns="http://www.w3.org/2000/svg" xmlns:xlink="http://www.w3.org/1999/xlink" x="0px" y="0px"
	 viewBox="0 0 48 48" style="enable-background:new 0 0 48 48;" xml:space="preserve">
<circle style="fill:#9FA8DA;" cx="28" cy="12" r="4"/>
<path style="fill:#9FA8DA;" d="M32.781,36h-9.563c-0.587,0-1.063-0.476-1.063-1.063V24.844C22.156,21.616,24.773,19,28,19h0
	c3.227,0,5.844,2.616,5.844,5.844v10.094C33.844,35.524,33.368,36,32.781,36z"/>
<path style="fill:none;stroke:#18193F;stroke-width:3;stroke-linecap:round;stroke-linejoin:round;stroke-miterlimit:10;" d="M7,10
	c0-1.657,1.343-3,3-3s3,1.343,3,3s-1.343,3-3,3"/>
<path style="fill:none;stroke:#18193F;stroke-width:3;stroke-linecap:round;stroke-linejoin:round;stroke-miterlimit:10;" d="M24,4
	c2.209,0,4,1.791,4,4s-1.791,4-4,4s-4-1.791-4-4c0-0.345,0.044-0.681,0.126-1"/>
<polyline style="fill:none;stroke:#18193F;stroke-width:3;stroke-linecap:round;stroke-linejoin:round;stroke-miterlimit:5;" points="
	20.5,42.5 20.5,31.5 27.5,31.5 27.5,42.5 "/>
<polyline style="fill:none;stroke:#18193F;stroke-width:3;stroke-linecap:round;stroke-linejoin:round;stroke-miterlimit:5;" points="
	34.5,42.5 34.5,31.5 41.5,31.5 41.5,42.5 "/>
<polyline style="fill:none;stroke:#18193F;stroke-width:3;stroke-linecap:round;stroke-linejoin:round;stroke-miterlimit:5;" points="
	6.5,42.5 6.5,31.5 13.5,31.5 13.5,42.5 "/>
<path style="fill:none;stroke:#18193F;stroke-width:3;stroke-linecap:round;stroke-linejoin:round;stroke-miterlimit:10;" d="
	M18.5,21c0-3.038,2.462-5.5,5.5-5.5h0c3.038,0,5.5,2.462,5.5,5.5v3.234"/>
<path style="fill:none;stroke:#18193F;stroke-width:3;stroke-linecap:round;stroke-linejoin:round;stroke-miterlimit:10;" d="
	M29.5,29.638V30.5c0,0.552-0.448,1-1,1h-9c-0.552,0-1-0.448-1-1V21"/>
<path style="fill:none;stroke:#18193F;stroke-width:3;stroke-linecap:round;stroke-linejoin:round;stroke-miterlimit:10;" d="
	M5.5,21.985c0-2.477,2.008-4.485,4.485-4.485h0.029c2.477,0,4.485,2.008,4.485,4.485v8.699c0,0.45-0.365,0.816-0.816,0.816H6.316
	c-0.45,0-0.816-0.365-0.816-0.816v-3.897"/>
<line style="fill:none;stroke:#18193F;stroke-width:3;stroke-linecap:round;stroke-linejoin:round;stroke-miterlimit:5;" x1="10" y1="17.817" x2="10" y2="22.562"/>
<line style="fill:none;stroke:#18193F;stroke-width:3;stroke-linecap:round;stroke-linejoin:round;stroke-miterlimit:5;" x1="24" y1="16.03" x2="24" y2="21.562"/>
<path style="fill:none;stroke:#18193F;stroke-width:3;stroke-linecap:round;stroke-linejoin:round;stroke-miterlimit:10;" d="M38,13
	c-1.657,0-3-1.343-3-3s1.343-3,3-3s3,1.343,3,3"/>
<path style="fill:none;stroke:#18193F;stroke-width:3;stroke-linecap:round;stroke-linejoin:round;stroke-miterlimit:10;" d="
	M41.684,31.5h-7.369c-0.45,0-0.816-0.365-0.816-0.816v-8.699c0-2.477,2.008-4.485,4.485-4.485h0.029
	c2.477,0,4.485,2.008,4.485,4.485v8.699C42.5,31.135,42.135,31.5,41.684,31.5z"/>
<line style="fill:none;stroke:#18193F;stroke-width:3;stroke-linecap:round;stroke-linejoin:round;stroke-miterlimit:5;" x1="38" y1="17.817" x2="38" y2="22.562"/>
</svg>