<?xml version="1.0" encoding="iso-8859-1"?>
<!-- Generator: Adobe Illustrator 27.2.0, SVG Export Plug-In . SVG Version: 6.00 Build 0)  -->
<svg version="1.1" id="Layer_1" xmlns="http://www.w3.org/2000/svg" xmlns:xlink="http://www.w3.org/1999/xlink" x="0px" y="0px"
	 viewBox="0 0 48 48" style="enable-background:new 0 0 48 48;" xml:space="preserve">
<style type="text/css">
	.st0{fill:none;stroke:#000000;stroke-width:3;stroke-linecap:round;stroke-linejoin:round;stroke-miterlimit:10;}
	.st1{fill:none;stroke:#000000;stroke-width:3;stroke-linecap:round;stroke-linejoin:round;}
	.st2{fill-rule:evenodd;clip-rule:evenodd;}
	.st3{fill:none;stroke:#000000;stroke-width:3;stroke-linecap:round;stroke-miterlimit:10;}
	.st4{fill:none;stroke:#000000;stroke-width:3;stroke-linecap:round;}
	.st5{fill:#FFFFFF;stroke:#000000;stroke-width:3;stroke-linecap:round;stroke-linejoin:round;stroke-miterlimit:10;}
	.st6{fill:none;stroke:#000000;stroke-width:3;stroke-linejoin:round;stroke-miterlimit:10;}
	.st7{fill:#A5D6A7;}
	.st8{fill:#90CAF9;}
	.st9{fill:#8CE7F2;}
	.st10{fill:#FFAB91;}
	.st11{fill:#FFE082;}
	.st12{fill:#999999;}
	.st13{fill:#F48FB1;}
	.st14{fill:#9FA8DA;}
	.st15{fill:none;stroke:#18193F;stroke-width:3;stroke-linecap:round;stroke-linejoin:round;stroke-miterlimit:10;}
	.st16{fill:#18193F;}
	.st17{fill:none;stroke:#18193F;stroke-width:3;stroke-linecap:round;stroke-linejoin:round;}
	.st18{fill-rule:evenodd;clip-rule:evenodd;fill:#18193F;}
	.st19{fill:none;stroke:#18193F;stroke-width:3;stroke-linecap:round;stroke-miterlimit:10;}
	.st20{fill:none;stroke:#18193F;stroke-width:3;stroke-linecap:round;}
	.st21{fill:#FFFFFF;stroke:#18193F;stroke-width:3;stroke-linecap:round;stroke-linejoin:round;stroke-miterlimit:10;}
	.st22{fill:none;stroke:#18193F;stroke-width:3;stroke-linejoin:round;stroke-miterlimit:10;}
</style>
<path class="st11" d="M37,33H20c-0.552,0-1-0.448-1-1v-4c0-0.552,0.448-1,1-1h15c1.657,0,3,1.343,3,3v2C38,32.552,37.552,33,37,33z"
	/>
<polyline class="st15" points="28,28.583 14.997,28.583 14.997,22.583 19.293,22.583 "/>
<path class="st15" d="M25.065,22.583h6.932c1.105,0,2,0.895,2,2v4"/>
<line class="st15" x1="14.997" y1="22.583" x2="11.894" y2="5.5"/>
<line class="st15" x1="14.997" y1="28.583" x2="12.932" y2="42.5"/>
<line class="st15" x1="34.04" y1="28.583" x2="36.106" y2="42.5"/>
</svg>