<?xml version="1.0" encoding="utf-8"?>
<!-- Generator: Adobe Illustrator 27.2.0, SVG Export Plug-In . SVG Version: 6.00 Build 0)  -->
<svg version="1.1" id="Layer_1" xmlns="http://www.w3.org/2000/svg" xmlns:xlink="http://www.w3.org/1999/xlink" x="0px" y="0px"
	 viewBox="0 0 48 48" style="enable-background:new 0 0 48 48;" xml:space="preserve">
<style type="text/css">
	.st0{fill:none;stroke:#000000;stroke-width:3;stroke-linecap:round;stroke-linejoin:round;stroke-miterlimit:10;}
	.st1{fill:none;stroke:#000000;stroke-width:3;stroke-miterlimit:10;}
	.st2{fill:none;stroke:#000000;stroke-width:3;stroke-linecap:round;stroke-linejoin:round;}
	.st3{fill:none;stroke:#FF0000;stroke-width:3;stroke-linecap:round;stroke-linejoin:round;}
	.st4{fill:none;stroke:#000000;stroke-width:3;stroke-linejoin:round;stroke-miterlimit:10;}
	.st5{fill:none;stroke:#000000;stroke-width:3;stroke-linecap:round;stroke-miterlimit:10;}
	.st6{fill:none;stroke:#000000;stroke-width:3;stroke-linecap:round;stroke-linejoin:round;stroke-miterlimit:5;}
	.st7{fill:#9FA8DA;}
	.st8{fill:#FFE082;}
	.st9{fill:#90CAF9;}
	.st10{fill:#F48FB1;}
	.st11{fill:#8CE7F2;}
	.st12{fill:#FFAB91;}
	.st13{fill:#A5D6A7;}
	.st14{fill:none;stroke:#18193F;stroke-width:3;stroke-linecap:round;stroke-linejoin:round;stroke-miterlimit:10;}
	.st15{fill:#18193F;}
	.st16{fill:none;stroke:#18193F;stroke-width:3;stroke-miterlimit:10;}
	.st17{fill:none;stroke:#18193F;stroke-width:3;stroke-linecap:round;stroke-linejoin:round;}
	.st18{fill:none;stroke:#18193F;stroke-width:3;stroke-linejoin:round;stroke-miterlimit:10;}
	.st19{fill:none;stroke:#18193F;stroke-width:3;stroke-linecap:round;stroke-miterlimit:10;}
	.st20{fill:none;stroke:#18193F;stroke-width:3;stroke-linecap:round;stroke-linejoin:round;stroke-miterlimit:5;}
</style>
<path class="st13" d="M37.96,36H18.04C17.47,36,17,35.51,17,34.9v-2.08c0-2.12,1.41-3.93,3.37-4.33c1.64-0.33,4.06-0.6,7.63-0.6
	s5.98,0.26,7.63,0.6c1.96,0.4,3.37,2.21,3.37,4.33v2.08C39,35.51,38.53,36,37.96,36z"/>
<line class="st14" x1="15.58" y1="31.5" x2="15.58" y2="42"/>
<line class="st14" x1="32.42" y1="31.5" x2="32.42" y2="42"/>
<line class="st14" x1="24" y1="9.5" x2="24" y2="20.03"/>
<line class="st14" x1="31.5" y1="6.5" x2="31.5" y2="24.54"/>
<line class="st14" x1="16.5" y1="24.28" x2="16.5" y2="6.5"/>
<line class="st14" x1="18.5" y1="9.5" x2="30.5" y2="9.5"/>
<path class="st14" d="M28.15,24.28c1.31,0.1,2.36,0.24,3.19,0.4c1.89,0.36,3.25,2.01,3.25,3.93v1.89c0,0.55-0.45,1-1,1H22.86"/>
<path class="st14" d="M18.95,31.5h-4.53c-0.55,0-1-0.45-1-1v-1.89c0-1.92,1.36-3.56,3.25-3.93c1.58-0.3,3.91-0.54,7.34-0.54"/>
</svg>