<svg width="1329" height="235" viewBox="0 0 1329 235" fill="none" xmlns="http://www.w3.org/2000/svg">
<path d="M229 44C253.669 44 254.807 44 292 44" stroke="black" stroke-width="4"/>
<path d="M517 42C541.669 42 585.807 42 623 42" stroke="black" stroke-width="4"/>
<path d="M777 42C801.669 42 845.807 42 883 42" stroke="black" stroke-width="4"/>
<path d="M1057 42C1081.67 42 1125.81 42 1163 42" stroke="black" stroke-width="4"/>
<g filter="url(#filter0_d_1439_52)">
<rect x="592" y="6" width="208" height="70" rx="7.53139" fill="#F9DB57"/>
<rect x="590" y="4" width="212" height="74" rx="9.53139" stroke="black" stroke-width="4"/>
</g>
<g clip-path="url(#clip0_1439_52)">
<path d="M643 60H616C613.2 60 611 57.8 611 55V36C611 33.2 613.2 31 616 31H643C645.8 31 648 33.2 648 36V55C648 57.8 645.8 60 643 60Z" fill="#8CE7F2"/>
<path d="M644.5 41.5V51.5C644.5 54.3 642.3 56.5 639.5 56.5H612.5C609.7 56.5 607.5 54.3 607.5 51.5V48.5" stroke="#18193F" stroke-width="3" stroke-linecap="round" stroke-linejoin="round"/>
<path d="M607.5 42.9V32.5C607.5 29.7 609.7 27.5 612.5 27.5H639.5C642.3 27.5 644.5 29.7 644.5 32.5V34.5" stroke="#18193F" stroke-width="3" stroke-linecap="round" stroke-linejoin="round"/>
<path d="M613.7 37.8L625 44C625.6 44.3 626.3 44.3 626.9 44L644.4 34.5" stroke="#18193F" stroke-width="3" stroke-linecap="round" stroke-linejoin="round"/>
</g>
<path d="M665.095 34.2025C664.15 34.2025 663.327 34.0202 662.625 33.6558C661.923 33.2913 661.376 32.7783 660.984 32.1168C660.606 31.4419 660.417 30.6521 660.417 29.7477V27.1153C660.417 26.2108 660.606 25.4279 660.984 24.7664C661.376 24.0914 661.923 23.5717 662.625 23.2072C663.327 22.8427 664.15 22.6605 665.095 22.6605C666.026 22.6605 666.836 22.8427 667.525 23.2072C668.227 23.5717 668.767 24.0847 669.145 24.7461C669.536 25.3941 669.732 26.1568 669.732 27.0343V29.0592H662.847V29.8287C662.847 30.5846 663.043 31.1584 663.435 31.5499C663.826 31.9278 664.38 32.1168 665.095 32.1168C665.621 32.1168 666.067 32.0291 666.431 31.8536C666.809 31.6646 667.032 31.3946 667.1 31.0436H669.611C669.435 32.0021 668.936 32.7716 668.112 33.352C667.289 33.919 666.283 34.2025 665.095 34.2025ZM662.847 27.0343V27.419L667.302 27.3988V27.014C667.302 26.2446 667.113 25.6506 666.735 25.2321C666.357 24.8136 665.81 24.6044 665.095 24.6044C664.353 24.6044 663.792 24.8204 663.414 25.2524C663.036 25.6708 662.847 26.2648 662.847 27.0343ZM672.701 34V22.863H675.171V24.9486C675.306 24.2467 675.637 23.6932 676.163 23.2882C676.69 22.8697 677.358 22.6605 678.168 22.6605C679.261 22.6605 680.132 23.025 680.78 23.7539C681.442 24.4829 681.772 25.4616 681.772 26.6901V34H679.241V26.9938C679.241 26.3053 679.059 25.7788 678.695 25.4144C678.344 25.0364 677.864 24.8474 677.257 24.8474C676.622 24.8474 676.123 25.0364 675.758 25.4144C675.407 25.7923 675.232 26.3323 675.232 27.0343V34H672.701ZM687.758 34L684.012 22.863H686.665L688.811 29.6262C688.946 30.0312 689.061 30.4429 689.155 30.8614C689.263 31.2664 689.338 31.6173 689.378 31.9143C689.432 31.6173 689.5 31.2664 689.581 30.8614C689.675 30.4429 689.783 30.0379 689.905 29.6464L692.031 22.863H694.704L690.978 34H687.758ZM696.964 34V31.7118H700.771V25.1511H697.369V22.863H703.302V31.7118H706.724V34H696.964ZM701.864 21C701.351 21 700.946 20.8718 700.649 20.6153C700.352 20.3453 700.204 19.9876 700.204 19.5421C700.204 19.0966 700.352 18.7456 700.649 18.4891C700.946 18.2192 701.351 18.0842 701.864 18.0842C702.377 18.0842 702.782 18.2192 703.079 18.4891C703.376 18.7456 703.524 19.0966 703.524 19.5421C703.524 19.9876 703.376 20.3453 703.079 20.6153C702.782 20.8718 702.377 21 701.864 21ZM712.406 34.2025C711.272 34.2025 710.374 33.8853 709.713 33.2508C709.065 32.6028 708.741 31.7591 708.741 30.7196C708.741 29.6397 709.112 28.7825 709.854 28.148C710.597 27.5 711.616 27.176 712.912 27.176H715.626V26.3863C715.626 25.2659 714.971 24.7056 713.661 24.7056C713.067 24.7056 712.595 24.8204 712.244 25.0499C711.893 25.2794 711.697 25.6033 711.657 26.0218H709.227C709.281 25.0229 709.699 24.2129 710.482 23.5919C711.279 22.971 712.345 22.6605 713.682 22.6605C715.099 22.6605 716.199 22.9912 716.982 23.6527C717.765 24.3142 718.157 25.2456 718.157 26.4471V34H715.686V31.9143C715.592 32.6298 715.254 33.19 714.674 33.595C714.093 34 713.337 34.2025 712.406 34.2025ZM713.216 32.1371C713.958 32.1371 714.546 31.9548 714.978 31.5904C715.41 31.2259 715.626 30.7399 715.626 30.1324V28.8162H713.034C712.48 28.8162 712.041 28.9715 711.717 29.2819C711.393 29.5924 711.231 29.9907 711.231 30.4766C711.231 30.9761 711.4 31.3811 711.738 31.6916C712.089 31.9886 712.581 32.1371 713.216 32.1371ZM721.672 34V22.863H724.142V25.0296C724.277 24.3007 724.608 23.7269 725.135 23.3084C725.675 22.8765 726.37 22.6605 727.22 22.6605C728.354 22.6605 729.239 23.025 729.873 23.7539C730.507 24.4829 730.825 25.5021 730.825 26.8115V27.8645H728.294V26.933C728.294 26.2581 728.118 25.7451 727.767 25.3941C727.416 25.0296 726.917 24.8474 726.269 24.8474C725.594 24.8474 725.081 25.0499 724.73 25.4549C724.379 25.8598 724.203 26.4336 724.203 27.176V34H721.672ZM665.257 49.2025C664.299 49.2025 663.462 49.027 662.746 48.676C662.044 48.3115 661.497 47.8053 661.106 47.1573C660.714 46.4959 660.519 45.7196 660.519 44.8287V42.0343C660.519 41.1433 660.714 40.3739 661.106 39.7259C661.497 39.0644 662.044 38.5582 662.746 38.2072C663.462 37.8427 664.299 37.6605 665.257 37.6605C666.647 37.6605 667.761 38.025 668.598 38.7539C669.449 39.4694 669.894 40.4481 669.935 41.6901H667.444C667.403 41.1096 667.181 40.6641 666.776 40.3536C666.384 40.0296 665.878 39.8676 665.257 39.8676C664.569 39.8676 664.029 40.0566 663.637 40.4346C663.246 40.7991 663.05 41.3256 663.05 42.014V44.8287C663.05 45.5171 663.246 46.0504 663.637 46.4284C664.029 46.8063 664.569 46.9953 665.257 46.9953C665.891 46.9953 666.404 46.8401 666.796 46.5296C667.187 46.2056 667.403 45.7534 667.444 45.1729H669.935C669.894 46.4149 669.449 47.4003 668.598 48.1293C667.761 48.8448 666.647 49.2025 665.257 49.2025ZM677.216 49.1822C675.785 49.1822 674.651 48.784 673.814 47.9875C672.978 47.1776 672.559 46.0909 672.559 44.7274V42.1355C672.559 40.7586 672.978 39.6719 673.814 38.8754C674.651 38.079 675.785 37.6807 677.216 37.6807C678.647 37.6807 679.781 38.079 680.618 38.8754C681.455 39.6719 681.874 40.7586 681.874 42.1355V44.7274C681.874 46.0909 681.455 47.1776 680.618 47.9875C679.781 48.784 678.647 49.1822 677.216 49.1822ZM677.216 46.9751C677.891 46.9751 678.411 46.7928 678.776 46.4284C679.154 46.0504 679.342 45.5104 679.342 44.8084V42.0545C679.342 41.3526 679.154 40.8193 678.776 40.4549C678.411 40.0769 677.891 39.8879 677.216 39.8879C676.541 39.8879 676.015 40.0769 675.637 40.4549C675.272 40.8193 675.09 41.3526 675.09 42.0545V44.8084C675.09 45.5104 675.272 46.0504 675.637 46.4284C676.015 46.7928 676.541 46.9751 677.216 46.9751ZM685.247 49V37.863H687.718V40.0296C687.853 39.3007 688.183 38.7269 688.71 38.3084C689.25 37.8765 689.945 37.6605 690.796 37.6605C691.93 37.6605 692.814 38.025 693.448 38.7539C694.083 39.4829 694.4 40.5021 694.4 41.8115V42.8645H691.869V41.933C691.869 41.2581 691.693 40.7451 691.342 40.3941C690.991 40.0296 690.492 39.8474 689.844 39.8474C689.169 39.8474 688.656 40.0499 688.305 40.4549C687.954 40.8598 687.778 41.4336 687.778 42.176V49H685.247ZM697.389 49V37.863H699.859V40.0296C699.994 39.3007 700.325 38.7269 700.852 38.3084C701.392 37.8765 702.087 37.6605 702.937 37.6605C704.071 37.6605 704.955 38.025 705.59 38.7539C706.224 39.4829 706.542 40.5021 706.542 41.8115V42.8645H704.01V41.933C704.01 41.2581 703.835 40.7451 703.484 40.3941C703.133 40.0296 702.633 39.8474 701.985 39.8474C701.311 39.8474 700.798 40.0499 700.447 40.4549C700.096 40.8598 699.92 41.4336 699.92 42.176V49H697.389ZM713.661 49.2025C712.716 49.2025 711.893 49.0202 711.191 48.6558C710.489 48.2913 709.942 47.7783 709.551 47.1168C709.173 46.4419 708.984 45.6521 708.984 44.7477V42.1153C708.984 41.2108 709.173 40.4279 709.551 39.7664C709.942 39.0914 710.489 38.5717 711.191 38.2072C711.893 37.8427 712.716 37.6605 713.661 37.6605C714.593 37.6605 715.403 37.8427 716.091 38.2072C716.793 38.5717 717.333 39.0847 717.711 39.7461C718.103 40.3941 718.298 41.1568 718.298 42.0343V44.0592H711.414V44.8287C711.414 45.5846 711.609 46.1584 712.001 46.5499C712.392 46.9278 712.946 47.1168 713.661 47.1168C714.188 47.1168 714.633 47.0291 714.998 46.8536C715.376 46.6646 715.599 46.3946 715.666 46.0436H718.177C718.001 47.0021 717.502 47.7716 716.678 48.352C715.855 48.919 714.849 49.2025 713.661 49.2025ZM711.414 42.0343V42.419L715.868 42.3988V42.014C715.868 41.2446 715.68 40.6506 715.302 40.2321C714.924 39.8136 714.377 39.6044 713.661 39.6044C712.919 39.6044 712.359 39.8204 711.981 40.2524C711.603 40.6708 711.414 41.2648 711.414 42.0343ZM725.783 49.1822C724.352 49.1822 723.218 48.784 722.381 47.9875C721.544 47.1776 721.125 46.0909 721.125 44.7274V42.1355C721.125 40.7586 721.544 39.6719 722.381 38.8754C723.218 38.079 724.352 37.6807 725.783 37.6807C727.214 37.6807 728.348 38.079 729.185 38.8754C730.021 39.6719 730.44 40.7586 730.44 42.1355V44.7274C730.44 46.0909 730.021 47.1776 729.185 47.9875C728.348 48.784 727.214 49.1822 725.783 49.1822ZM725.783 46.9751C726.458 46.9751 726.977 46.7928 727.342 46.4284C727.72 46.0504 727.909 45.5104 727.909 44.8084V42.0545C727.909 41.3526 727.72 40.8193 727.342 40.4549C726.977 40.0769 726.458 39.8879 725.783 39.8879C725.108 39.8879 724.581 40.0769 724.203 40.4549C723.839 40.8193 723.657 41.3526 723.657 42.0545V44.8084C723.657 45.5104 723.839 46.0504 724.203 46.4284C724.581 46.7928 725.108 46.9751 725.783 46.9751ZM749.053 49.2025C747.973 49.2025 747.096 48.8178 746.421 48.0483C745.76 47.2788 745.429 46.2461 745.429 44.9502V41.933C745.429 40.6236 745.76 39.5841 746.421 38.8147C747.082 38.0452 747.96 37.6605 749.053 37.6605C749.823 37.6605 750.471 37.8562 750.997 38.2477C751.537 38.6392 751.915 39.1859 752.131 39.8879L752.05 37.3365V34.2181H754.581V49H752.111V46.9751C751.909 47.6771 751.544 48.2238 751.018 48.6153C750.491 49.0067 749.836 49.2025 749.053 49.2025ZM750.005 47.0156C750.653 47.0156 751.153 46.8198 751.504 46.4284C751.868 46.0369 752.05 45.4834 752.05 44.7679V42.095C752.05 41.3796 751.868 40.8261 751.504 40.4346C751.153 40.0431 750.653 39.8474 750.005 39.8474C749.357 39.8474 748.851 40.0229 748.486 40.3739C748.135 40.7248 747.96 41.2648 747.96 41.9938V44.8692C747.96 45.5981 748.135 46.1381 748.486 46.4891C748.851 46.8401 749.357 47.0156 750.005 47.0156ZM762.228 49.2025C761.283 49.2025 760.459 49.0202 759.757 48.6558C759.055 48.2913 758.509 47.7783 758.117 47.1168C757.739 46.4419 757.55 45.6521 757.55 44.7477V42.1153C757.55 41.2108 757.739 40.4279 758.117 39.7664C758.509 39.0914 759.055 38.5717 759.757 38.2072C760.459 37.8427 761.283 37.6605 762.228 37.6605C763.159 37.6605 763.969 37.8427 764.658 38.2072C765.36 38.5717 765.9 39.0847 766.278 39.7461C766.669 40.3941 766.865 41.1568 766.865 42.0343V44.0592H759.98V44.8287C759.98 45.5846 760.176 46.1584 760.567 46.5499C760.959 46.9278 761.512 47.1168 762.228 47.1168C762.754 47.1168 763.2 47.0291 763.564 46.8536C763.942 46.6646 764.165 46.3946 764.232 46.0436H766.743C766.568 47.0021 766.068 47.7716 765.245 48.352C764.421 48.919 763.416 49.2025 762.228 49.2025ZM759.98 42.0343V42.419L764.435 42.3988V42.014C764.435 41.2446 764.246 40.6506 763.868 40.2321C763.49 39.8136 762.943 39.6044 762.228 39.6044C761.485 39.6044 760.925 39.8204 760.547 40.2524C760.169 40.6708 759.98 41.2648 759.98 42.0343ZM663.84 64.2025C662.706 64.2025 661.808 63.8853 661.146 63.2508C660.498 62.6028 660.174 61.7591 660.174 60.7196C660.174 59.6397 660.546 58.7825 661.288 58.148C662.031 57.5 663.05 57.176 664.346 57.176H667.059V56.3863C667.059 55.2659 666.404 54.7056 665.095 54.7056C664.501 54.7056 664.029 54.8204 663.678 55.0499C663.327 55.2794 663.131 55.6033 663.09 56.0218H660.66C660.714 55.0229 661.133 54.2129 661.916 53.5919C662.712 52.971 663.779 52.6605 665.115 52.6605C666.533 52.6605 667.633 52.9912 668.416 53.6527C669.199 54.3142 669.59 55.2456 669.59 56.4471V64H667.12V61.9143C667.025 62.6298 666.688 63.19 666.107 63.595C665.527 64 664.771 64.2025 663.84 64.2025ZM664.65 62.1371C665.392 62.1371 665.979 61.9548 666.411 61.5904C666.843 61.2259 667.059 60.7399 667.059 60.1324V58.8162H664.467C663.914 58.8162 663.475 58.9715 663.151 59.2819C662.827 59.5924 662.665 59.9907 662.665 60.4766C662.665 60.9761 662.834 61.3811 663.171 61.6916C663.522 61.9886 664.015 62.1371 664.65 62.1371ZM672.701 67.6448V52.863H675.171V54.9081C675.374 54.2062 675.738 53.6594 676.265 53.2679C676.791 52.863 677.446 52.6605 678.229 52.6605C678.944 52.6605 679.572 52.836 680.112 53.1869C680.665 53.5379 681.091 54.0374 681.388 54.6854C681.698 55.3199 681.853 56.0623 681.853 56.9128V59.9299C681.853 61.2124 681.523 62.2451 680.861 63.028C680.2 63.811 679.322 64.2025 678.229 64.2025C677.446 64.2025 676.784 64 676.244 63.595C675.718 63.19 675.353 62.6231 675.151 61.8941L675.232 64.5265V67.6448H672.701ZM677.277 62.0156C677.925 62.0156 678.425 61.8401 678.776 61.4891C679.14 61.1381 679.322 60.5981 679.322 59.8692V56.9938C679.322 56.2648 679.14 55.7248 678.776 55.3739C678.425 55.0229 677.925 54.8474 677.277 54.8474C676.629 54.8474 676.123 55.0431 675.758 55.4346C675.407 55.8261 675.232 56.3796 675.232 57.095V59.7679C675.232 60.4834 675.407 61.0369 675.758 61.4284C676.123 61.8198 676.629 62.0156 677.277 62.0156ZM685.247 64V52.863H687.718V55.0296C687.853 54.3007 688.183 53.7269 688.71 53.3084C689.25 52.8765 689.945 52.6605 690.796 52.6605C691.93 52.6605 692.814 53.025 693.448 53.7539C694.083 54.4829 694.4 55.5021 694.4 56.8115V57.8645H691.869V56.933C691.869 56.2581 691.693 55.7451 691.342 55.3941C690.991 55.0296 690.492 54.8474 689.844 54.8474C689.169 54.8474 688.656 55.0499 688.305 55.4549C687.954 55.8598 687.778 56.4336 687.778 57.176V64H685.247ZM701.5 64.1822C700.069 64.1822 698.935 63.784 698.098 62.9875C697.261 62.1776 696.842 61.0909 696.842 59.7274V57.1355C696.842 55.7586 697.261 54.6719 698.098 53.8754C698.935 53.079 700.069 52.6807 701.5 52.6807C702.93 52.6807 704.064 53.079 704.901 53.8754C705.738 54.6719 706.157 55.7586 706.157 57.1355V59.7274C706.157 61.0909 705.738 62.1776 704.901 62.9875C704.064 63.784 702.93 64.1822 701.5 64.1822ZM701.5 61.9751C702.174 61.9751 702.694 61.7928 703.059 61.4284C703.437 61.0504 703.626 60.5104 703.626 59.8084V57.0545C703.626 56.3526 703.437 55.8193 703.059 55.4549C702.694 55.0769 702.174 54.8879 701.5 54.8879C700.825 54.8879 700.298 55.0769 699.92 55.4549C699.556 55.8193 699.373 56.3526 699.373 57.0545V59.8084C699.373 60.5104 699.556 61.0504 699.92 61.4284C700.298 61.7928 700.825 61.9751 701.5 61.9751ZM714.654 64.2025C713.871 64.2025 713.216 64.0067 712.689 63.6153C712.163 63.2238 711.798 62.6771 711.596 61.9751V64H709.126V49.2181H711.657V52.3365L711.576 54.8879C711.792 54.1859 712.163 53.6392 712.689 53.2477C713.229 52.8562 713.884 52.6605 714.654 52.6605C715.747 52.6605 716.624 53.0452 717.286 53.8147C717.947 54.5841 718.278 55.6236 718.278 56.933V59.9502C718.278 61.2461 717.941 62.2788 717.266 63.0483C716.604 63.8178 715.734 64.2025 714.654 64.2025ZM713.702 62.0156C714.35 62.0156 714.849 61.8401 715.2 61.4891C715.565 61.1381 715.747 60.5981 715.747 59.8692V56.9938C715.747 56.2648 715.565 55.7248 715.2 55.3739C714.849 55.0229 714.35 54.8474 713.702 54.8474C713.054 54.8474 712.548 55.0431 712.183 55.4346C711.832 55.8261 711.657 56.3796 711.657 57.095V59.7679C711.657 60.4834 711.832 61.0369 712.183 61.4284C712.548 61.8198 713.054 62.0156 713.702 62.0156ZM724.547 64.2025C723.414 64.2025 722.516 63.8853 721.854 63.2508C721.206 62.6028 720.882 61.7591 720.882 60.7196C720.882 59.6397 721.254 58.7825 721.996 58.148C722.739 57.5 723.758 57.176 725.054 57.176H727.767V56.3863C727.767 55.2659 727.112 54.7056 725.803 54.7056C725.209 54.7056 724.736 54.8204 724.385 55.0499C724.034 55.2794 723.839 55.6033 723.798 56.0218H721.368C721.422 55.0229 721.841 54.2129 722.624 53.5919C723.42 52.971 724.487 52.6605 725.823 52.6605C727.241 52.6605 728.341 52.9912 729.124 53.6527C729.907 54.3142 730.298 55.2456 730.298 56.4471V64H727.828V61.9143C727.733 62.6298 727.396 63.19 726.815 63.595C726.235 64 725.479 64.2025 724.547 64.2025ZM725.357 62.1371C726.1 62.1371 726.687 61.9548 727.119 61.5904C727.551 61.2259 727.767 60.7399 727.767 60.1324V58.8162H725.175C724.622 58.8162 724.183 58.9715 723.859 59.2819C723.535 59.5924 723.373 59.9907 723.373 60.4766C723.373 60.9761 723.542 61.3811 723.879 61.6916C724.23 61.9886 724.723 62.1371 725.357 62.1371ZM738.107 64.2025C737.148 64.2025 736.311 64.027 735.596 63.676C734.894 63.3115 734.347 62.8053 733.955 62.1573C733.564 61.4959 733.368 60.7196 733.368 59.8287V57.0343C733.368 56.1433 733.564 55.3739 733.955 54.7259C734.347 54.0644 734.894 53.5582 735.596 53.2072C736.311 52.8427 737.148 52.6605 738.107 52.6605C739.497 52.6605 740.611 53.025 741.448 53.7539C742.298 54.4694 742.744 55.4481 742.784 56.6901H740.293C740.253 56.1096 740.03 55.6641 739.625 55.3536C739.234 55.0296 738.727 54.8676 738.107 54.8676C737.418 54.8676 736.878 55.0566 736.487 55.4346C736.095 55.7991 735.899 56.3256 735.899 57.014V59.8287C735.899 60.5171 736.095 61.0504 736.487 61.4284C736.878 61.8063 737.418 61.9953 738.107 61.9953C738.741 61.9953 739.254 61.8401 739.645 61.5296C740.037 61.2056 740.253 60.7534 740.293 60.1729H742.784C742.744 61.4149 742.298 62.4003 741.448 63.1293C740.611 63.8448 739.497 64.2025 738.107 64.2025ZM745.53 64V61.7118H749.337V55.1511H745.935V52.863H751.868V61.7118H755.29V64H745.53ZM750.43 51C749.917 51 749.512 50.8718 749.215 50.6153C748.918 50.3453 748.77 49.9876 748.77 49.5421C748.77 49.0966 748.918 48.7456 749.215 48.4891C749.512 48.2192 749.917 48.0842 750.43 48.0842C750.943 48.0842 751.348 48.2192 751.645 48.4891C751.942 48.7456 752.091 49.0966 752.091 49.5421C752.091 49.9876 751.942 50.3453 751.645 50.6153C751.348 50.8718 750.943 51 750.43 51ZM762.207 64.1822C760.776 64.1822 759.643 63.784 758.806 62.9875C757.969 62.1776 757.55 61.0909 757.55 59.7274V57.1355C757.55 55.7586 757.969 54.6719 758.806 53.8754C759.643 53.079 760.776 52.6807 762.207 52.6807C763.638 52.6807 764.772 53.079 765.609 53.8754C766.446 54.6719 766.865 55.7586 766.865 57.1355V59.7274C766.865 61.0909 766.446 62.1776 765.609 62.9875C764.772 63.784 763.638 64.1822 762.207 64.1822ZM762.207 61.9751C762.882 61.9751 763.402 61.7928 763.767 61.4284C764.145 61.0504 764.334 60.5104 764.334 59.8084V57.0545C764.334 56.3526 764.145 55.8193 763.767 55.4549C763.402 55.0769 762.882 54.8879 762.207 54.8879C761.532 54.8879 761.006 55.0769 760.628 55.4549C760.264 55.8193 760.081 56.3526 760.081 57.0545V59.8084C760.081 60.5104 760.264 61.0504 760.628 61.4284C761.006 61.7928 761.532 61.9751 762.207 61.9751ZM760.668 50.9393L762.815 48.1044H765.528L763.22 50.9393H760.668ZM769.833 64V52.863H772.304V54.9486C772.439 54.2467 772.77 53.6932 773.296 53.2882C773.823 52.8697 774.491 52.6605 775.301 52.6605C776.394 52.6605 777.265 53.025 777.913 53.7539C778.574 54.4829 778.905 55.4616 778.905 56.6901V64H776.374V56.9938C776.374 56.3053 776.192 55.7788 775.827 55.4144C775.476 55.0364 774.997 54.8474 774.39 54.8474C773.755 54.8474 773.256 55.0364 772.891 55.4144C772.54 55.7923 772.365 56.3323 772.365 57.0343V64H769.833Z" fill="#090909"/>
<circle cx="800.5" cy="42.5" r="7" fill="#F9DB57" stroke="black" stroke-width="3"/>
<circle cx="587.5" cy="42.5" r="7" fill="#F9DB57" stroke="black" stroke-width="3"/>
<g filter="url(#filter1_d_1439_52)">
<rect x="13" y="6" width="208" height="70" rx="7.53139" fill="#F384BD"/>
<rect x="11" y="4" width="212" height="74" rx="9.53139" stroke="black" stroke-width="4"/>
</g>
<path d="M55.96 53H36.04C35.47 53 35 52.51 35 51.9V49.82C35 47.7 36.41 45.89 38.37 45.49C40.01 45.16 42.43 44.89 46 44.89C49.57 44.89 51.98 45.15 53.63 45.49C55.59 45.89 57 47.7 57 49.82V51.9C57 52.51 56.53 53 55.96 53Z" fill="#A5D6A7"/>
<path d="M33.5801 48.5V59" stroke="#18193F" stroke-width="3" stroke-miterlimit="10" stroke-linecap="round" stroke-linejoin="round"/>
<path d="M50.4199 48.5V59" stroke="#18193F" stroke-width="3" stroke-miterlimit="10" stroke-linecap="round" stroke-linejoin="round"/>
<path d="M42 26.5V37.03" stroke="#18193F" stroke-width="3" stroke-miterlimit="10" stroke-linecap="round" stroke-linejoin="round"/>
<path d="M49.5 23.5V41.54" stroke="#18193F" stroke-width="3" stroke-miterlimit="10" stroke-linecap="round" stroke-linejoin="round"/>
<path d="M34.5 41.28V23.5" stroke="#18193F" stroke-width="3" stroke-miterlimit="10" stroke-linecap="round" stroke-linejoin="round"/>
<path d="M36.5 26.5H48.5" stroke="#18193F" stroke-width="3" stroke-miterlimit="10" stroke-linecap="round" stroke-linejoin="round"/>
<path d="M46.1504 41.28C47.4604 41.38 48.5104 41.52 49.3404 41.68C51.2304 42.04 52.5904 43.69 52.5904 45.61V47.5C52.5904 48.05 52.1404 48.5 51.5904 48.5H40.8604" stroke="#18193F" stroke-width="3" stroke-miterlimit="10" stroke-linecap="round" stroke-linejoin="round"/>
<path d="M36.9499 48.5H32.4199C31.8699 48.5 31.4199 48.05 31.4199 47.5V45.61C31.4199 43.69 32.7799 42.05 34.6699 41.68C36.2499 41.38 38.5799 41.14 42.0099 41.14" stroke="#18193F" stroke-width="3" stroke-miterlimit="10" stroke-linecap="round" stroke-linejoin="round"/>
<path d="M79.609 49.1822C78.2861 49.1822 77.2399 48.8853 76.4704 48.2913C75.7009 47.6838 75.3162 46.8671 75.3162 45.8411H77.8068C77.8068 46.2731 77.9621 46.6038 78.2726 46.8333C78.5966 47.0628 79.042 47.1776 79.609 47.1776H80.5C81.1075 47.1776 81.5732 47.0628 81.8972 46.8333C82.2347 46.6038 82.4034 46.2731 82.4034 45.8411C82.4034 45.4361 82.2887 45.1392 82.0592 44.9502C81.8297 44.7477 81.4787 44.6127 81.0062 44.5452L78.2321 44.1807C77.3411 44.0592 76.6526 43.715 76.1667 43.148C75.6942 42.581 75.4579 41.8453 75.4579 40.9408C75.4579 39.8879 75.8089 39.0847 76.5109 38.5312C77.2129 37.9642 78.2253 37.6807 79.5483 37.6807H80.4797C81.7217 37.6807 82.7206 37.9642 83.4766 38.5312C84.2326 39.0982 84.6241 39.8541 84.6511 40.7991H82.1402C82.1267 40.4481 81.9714 40.1714 81.6744 39.9689C81.3774 39.7529 80.9792 39.6449 80.4797 39.6449H79.5483C79.0083 39.6449 78.5966 39.7596 78.3131 39.9891C78.0296 40.2051 77.8878 40.5021 77.8878 40.8801C77.8878 41.2176 77.9891 41.4673 78.1916 41.6293C78.4076 41.7913 78.7181 41.8925 79.123 41.933L81.7352 42.2975C82.7611 42.419 83.5306 42.7835 84.0436 43.391C84.5701 43.985 84.8333 44.7882 84.8333 45.8006C84.8333 46.8806 84.4621 47.7176 83.7196 48.3115C82.9906 48.892 81.9174 49.1822 80.5 49.1822H79.609ZM87.6805 49V46.7118H91.4874V40.1511H88.0855V37.863H94.0185V46.7118H97.4406V49H87.6805ZM92.5808 36C92.0678 36 91.6629 35.8718 91.3659 35.6153C91.0689 35.3453 90.9204 34.9876 90.9204 34.5421C90.9204 34.0966 91.0689 33.7456 91.3659 33.4891C91.6629 33.2192 92.0678 33.0842 92.5808 33.0842C93.0938 33.0842 93.4988 33.2192 93.7958 33.4891C94.0928 33.7456 94.2412 34.0966 94.2412 34.5421C94.2412 34.9876 94.0928 35.3453 93.7958 35.6153C93.4988 35.8718 93.0938 36 92.5808 36ZM106.16 49C105.053 49 104.162 48.6693 103.487 48.0078C102.826 47.3463 102.495 46.4756 102.495 45.3956V36.5063H98.8299V34.2181H105.026V45.3349C105.026 45.7534 105.141 46.0909 105.37 46.3474C105.613 46.5903 105.937 46.7118 106.342 46.7118H109.602V49H106.16ZM118.302 49C117.195 49 116.304 48.6693 115.629 48.0078C114.967 47.3463 114.637 46.4756 114.637 45.3956V36.5063H110.971V34.2181H117.168V45.3349C117.168 45.7534 117.282 46.0909 117.512 46.3474C117.755 46.5903 118.079 46.7118 118.484 46.7118H121.744V49H118.302ZM127.406 49.2025C126.272 49.2025 125.374 48.8853 124.713 48.2508C124.065 47.6028 123.741 46.7591 123.741 45.7196C123.741 44.6397 124.112 43.7825 124.854 43.148C125.597 42.5 126.616 42.176 127.912 42.176H130.626V41.3863C130.626 40.2659 129.971 39.7056 128.661 39.7056C128.067 39.7056 127.595 39.8204 127.244 40.0499C126.893 40.2794 126.697 40.6033 126.657 41.0218H124.227C124.281 40.0229 124.699 39.2129 125.482 38.5919C126.279 37.971 127.345 37.6605 128.682 37.6605C130.099 37.6605 131.199 37.9912 131.982 38.6527C132.765 39.3142 133.157 40.2456 133.157 41.4471V49H130.686V46.9143C130.592 47.6298 130.254 48.19 129.674 48.595C129.093 49 128.337 49.2025 127.406 49.2025ZM128.216 47.1371C128.958 47.1371 129.546 46.9548 129.978 46.5904C130.41 46.2259 130.626 45.7399 130.626 45.1324V43.8162H128.034C127.48 43.8162 127.041 43.9715 126.717 44.2819C126.393 44.5924 126.231 44.9907 126.231 45.4766C126.231 45.9761 126.4 46.3811 126.738 46.6916C127.089 46.9886 127.581 47.1371 128.216 47.1371Z" fill="#090909"/>
<circle cx="221.5" cy="42.5" r="7" fill="#F384BD" stroke="black" stroke-width="3"/>
<circle cx="8.5" cy="42.5" r="7" fill="#F384BD" stroke="black" stroke-width="3"/>
<path d="M247 190C289.778 190 275.667 46.557 297 45" stroke="black" stroke-width="5"/>
<path d="M251.5 117C290 117 277.3 43.3 296.5 42.5" stroke="black" stroke-width="5"/>
<g filter="url(#filter2_d_1439_52)">
<rect x="38" y="79" width="208" height="70" rx="7.53139" fill="#F384BD"/>
<rect x="36" y="77" width="212" height="74" rx="9.53139" stroke="black" stroke-width="4"/>
</g>
<path d="M80.96 126H61.04C60.47 126 60 125.51 60 124.9V122.82C60 120.7 61.41 118.89 63.37 118.49C65.01 118.16 67.43 117.89 71 117.89C74.57 117.89 76.98 118.15 78.63 118.49C80.59 118.89 82 120.7 82 122.82V124.9C82 125.51 81.53 126 80.96 126Z" fill="#A5D6A7"/>
<path d="M58.5801 121.5V132" stroke="#18193F" stroke-width="3" stroke-miterlimit="10" stroke-linecap="round" stroke-linejoin="round"/>
<path d="M75.4199 121.5V132" stroke="#18193F" stroke-width="3" stroke-miterlimit="10" stroke-linecap="round" stroke-linejoin="round"/>
<path d="M67 99.5V110.03" stroke="#18193F" stroke-width="3" stroke-miterlimit="10" stroke-linecap="round" stroke-linejoin="round"/>
<path d="M74.5 96.5V114.54" stroke="#18193F" stroke-width="3" stroke-miterlimit="10" stroke-linecap="round" stroke-linejoin="round"/>
<path d="M59.5 114.28V96.5" stroke="#18193F" stroke-width="3" stroke-miterlimit="10" stroke-linecap="round" stroke-linejoin="round"/>
<path d="M61.5 99.5H73.5" stroke="#18193F" stroke-width="3" stroke-miterlimit="10" stroke-linecap="round" stroke-linejoin="round"/>
<path d="M71.1504 114.28C72.4604 114.38 73.5104 114.52 74.3404 114.68C76.2304 115.04 77.5904 116.69 77.5904 118.61V120.5C77.5904 121.05 77.1404 121.5 76.5904 121.5H65.8604" stroke="#18193F" stroke-width="3" stroke-miterlimit="10" stroke-linecap="round" stroke-linejoin="round"/>
<path d="M61.9499 121.5H57.4199C56.8699 121.5 56.4199 121.05 56.4199 120.5V118.61C56.4199 116.69 57.7799 115.05 59.6699 114.68C61.2499 114.38 63.5799 114.14 67.0099 114.14" stroke="#18193F" stroke-width="3" stroke-miterlimit="10" stroke-linecap="round" stroke-linejoin="round"/>
<path d="M99.9517 125V113.863H102.058V115.483H102.118C102.159 114.943 102.348 114.504 102.685 114.167C103.023 113.829 103.448 113.66 103.961 113.66C104.461 113.66 104.886 113.822 105.237 114.146C105.588 114.457 105.824 114.882 105.945 115.422C105.999 114.882 106.195 114.457 106.533 114.146C106.884 113.822 107.322 113.66 107.849 113.66C108.524 113.66 109.084 113.93 109.53 114.47C109.975 114.997 110.198 115.679 110.198 116.516V125H107.97V116.698C107.97 116.333 107.883 116.05 107.707 115.847C107.545 115.631 107.309 115.523 106.998 115.523C106.391 115.523 106.087 115.915 106.087 116.698V125H104.062V116.698C104.062 116.333 103.981 116.05 103.819 115.847C103.671 115.631 103.448 115.523 103.151 115.523C102.503 115.523 102.179 115.915 102.179 116.698V125H99.9517ZM117.216 125.182C115.785 125.182 114.651 124.784 113.814 123.988C112.978 123.178 112.559 122.091 112.559 120.727V118.136C112.559 116.759 112.978 115.672 113.814 114.875C114.651 114.079 115.785 113.681 117.216 113.681C118.647 113.681 119.781 114.079 120.618 114.875C121.455 115.672 121.874 116.759 121.874 118.136V120.727C121.874 122.091 121.455 123.178 120.618 123.988C119.781 124.784 118.647 125.182 117.216 125.182ZM117.216 122.975C117.891 122.975 118.411 122.793 118.776 122.428C119.154 122.05 119.342 121.51 119.342 120.808V118.055C119.342 117.353 119.154 116.819 118.776 116.455C118.411 116.077 117.891 115.888 117.216 115.888C116.541 115.888 116.015 116.077 115.637 116.455C115.272 116.819 115.09 117.353 115.09 118.055V120.808C115.09 121.51 115.272 122.05 115.637 122.428C116.015 122.793 116.541 122.975 117.216 122.975ZM128.345 125.202C127.266 125.202 126.388 124.818 125.713 124.048C125.052 123.279 124.721 122.246 124.721 120.95V117.933C124.721 116.624 125.052 115.584 125.713 114.815C126.375 114.045 127.252 113.66 128.345 113.66C129.115 113.66 129.763 113.856 130.289 114.248C130.829 114.639 131.207 115.186 131.423 115.888L131.342 113.336V110.218H133.873V125H131.403V122.975C131.201 123.677 130.836 124.224 130.31 124.615C129.783 125.007 129.128 125.202 128.345 125.202ZM129.297 123.016C129.945 123.016 130.445 122.82 130.796 122.428C131.16 122.037 131.342 121.483 131.342 120.768V118.095C131.342 117.38 131.16 116.826 130.796 116.435C130.445 116.043 129.945 115.847 129.297 115.847C128.649 115.847 128.143 116.023 127.778 116.374C127.427 116.725 127.252 117.265 127.252 117.994V120.869C127.252 121.598 127.427 122.138 127.778 122.489C128.143 122.84 128.649 123.016 129.297 123.016ZM141.52 125.202C140.575 125.202 139.751 125.02 139.049 124.656C138.347 124.291 137.801 123.778 137.409 123.117C137.031 122.442 136.842 121.652 136.842 120.748V118.115C136.842 117.211 137.031 116.428 137.409 115.766C137.801 115.091 138.347 114.572 139.049 114.207C139.751 113.843 140.575 113.66 141.52 113.66C142.451 113.66 143.261 113.843 143.95 114.207C144.652 114.572 145.192 115.085 145.57 115.746C145.961 116.394 146.157 117.157 146.157 118.034V120.059H139.272V120.829C139.272 121.585 139.468 122.158 139.859 122.55C140.251 122.928 140.804 123.117 141.52 123.117C142.046 123.117 142.492 123.029 142.856 122.854C143.234 122.665 143.457 122.395 143.524 122.044H146.035C145.86 123.002 145.36 123.772 144.537 124.352C143.713 124.919 142.708 125.202 141.52 125.202ZM139.272 118.034V118.419L143.727 118.399V118.014C143.727 117.245 143.538 116.651 143.16 116.232C142.782 115.814 142.235 115.604 141.52 115.604C140.777 115.604 140.217 115.82 139.839 116.252C139.461 116.671 139.272 117.265 139.272 118.034ZM155.443 125C154.336 125 153.445 124.669 152.77 124.008C152.109 123.346 151.778 122.476 151.778 121.396V112.506H148.113V110.218H154.309V121.335C154.309 121.753 154.424 122.091 154.654 122.347C154.897 122.59 155.221 122.712 155.626 122.712H158.886V125H155.443ZM165.783 125.182C164.352 125.182 163.218 124.784 162.381 123.988C161.544 123.178 161.125 122.091 161.125 120.727V118.136C161.125 116.759 161.544 115.672 162.381 114.875C163.218 114.079 164.352 113.681 165.783 113.681C167.214 113.681 168.348 114.079 169.185 114.875C170.021 115.672 170.44 116.759 170.44 118.136V120.727C170.44 122.091 170.021 123.178 169.185 123.988C168.348 124.784 167.214 125.182 165.783 125.182ZM165.783 122.975C166.458 122.975 166.977 122.793 167.342 122.428C167.72 122.05 167.909 121.51 167.909 120.808V118.055C167.909 117.353 167.72 116.819 167.342 116.455C166.977 116.077 166.458 115.888 165.783 115.888C165.108 115.888 164.581 116.077 164.203 116.455C163.839 116.819 163.657 117.353 163.657 118.055V120.808C163.657 121.51 163.839 122.05 164.203 122.428C164.581 122.793 165.108 122.975 165.783 122.975Z" fill="#090909"/>
<circle cx="246.5" cy="115.5" r="7" fill="#F384BD" stroke="black" stroke-width="3"/>
<circle cx="33.5" cy="115.5" r="7" fill="#F384BD" stroke="black" stroke-width="3"/>
<g filter="url(#filter3_d_1439_52)">
<rect x="37" y="154" width="208" height="70" rx="7.53139" fill="#F384BD"/>
<rect x="35" y="152" width="212" height="74" rx="9.53139" stroke="black" stroke-width="4"/>
</g>
<path d="M79.96 201H60.04C59.47 201 59 200.51 59 199.9V197.82C59 195.7 60.41 193.89 62.37 193.49C64.01 193.16 66.43 192.89 70 192.89C73.57 192.89 75.98 193.15 77.63 193.49C79.59 193.89 81 195.7 81 197.82V199.9C81 200.51 80.53 201 79.96 201Z" fill="#A5D6A7"/>
<path d="M57.5801 196.5V207" stroke="#18193F" stroke-width="3" stroke-miterlimit="10" stroke-linecap="round" stroke-linejoin="round"/>
<path d="M74.4199 196.5V207" stroke="#18193F" stroke-width="3" stroke-miterlimit="10" stroke-linecap="round" stroke-linejoin="round"/>
<path d="M66 174.5V185.03" stroke="#18193F" stroke-width="3" stroke-miterlimit="10" stroke-linecap="round" stroke-linejoin="round"/>
<path d="M73.5 171.5V189.54" stroke="#18193F" stroke-width="3" stroke-miterlimit="10" stroke-linecap="round" stroke-linejoin="round"/>
<path d="M58.5 189.28V171.5" stroke="#18193F" stroke-width="3" stroke-miterlimit="10" stroke-linecap="round" stroke-linejoin="round"/>
<path d="M60.5 174.5H72.5" stroke="#18193F" stroke-width="3" stroke-miterlimit="10" stroke-linecap="round" stroke-linejoin="round"/>
<path d="M70.1504 189.28C71.4604 189.38 72.5104 189.52 73.3404 189.68C75.2304 190.04 76.5904 191.69 76.5904 193.61V195.5C76.5904 196.05 76.1404 196.5 75.5904 196.5H64.8604" stroke="#18193F" stroke-width="3" stroke-miterlimit="10" stroke-linecap="round" stroke-linejoin="round"/>
<path d="M60.9499 196.5H56.4199C55.8699 196.5 55.4199 196.05 55.4199 195.5V193.61C55.4199 191.69 56.7799 190.05 58.6699 189.68C60.2499 189.38 62.5799 189.14 66.0099 189.14" stroke="#18193F" stroke-width="3" stroke-miterlimit="10" stroke-linecap="round" stroke-linejoin="round"/>
<path d="M99.5592 200.645V185.863H102.03V187.908C102.232 187.206 102.597 186.659 103.123 186.268C103.65 185.863 104.304 185.66 105.087 185.66C105.803 185.66 106.43 185.836 106.97 186.187C107.524 186.538 107.949 187.037 108.246 187.685C108.557 188.32 108.712 189.062 108.712 189.913V192.93C108.712 194.212 108.381 195.245 107.72 196.028C107.058 196.811 106.181 197.202 105.087 197.202C104.304 197.202 103.643 197 103.103 196.595C102.576 196.19 102.212 195.623 102.009 194.894L102.09 197.526V200.645H99.5592ZM104.135 195.016C104.783 195.016 105.283 194.84 105.634 194.489C105.998 194.138 106.181 193.598 106.181 192.869V189.994C106.181 189.265 105.998 188.725 105.634 188.374C105.283 188.023 104.783 187.847 104.135 187.847C103.488 187.847 102.981 188.043 102.617 188.435C102.266 188.826 102.09 189.38 102.09 190.095V192.768C102.09 193.483 102.266 194.037 102.617 194.428C102.981 194.82 103.488 195.016 104.135 195.016ZM112.106 197V185.863H114.576V188.03C114.711 187.301 115.042 186.727 115.568 186.308C116.108 185.876 116.804 185.66 117.654 185.66C118.788 185.66 119.672 186.025 120.307 186.754C120.941 187.483 121.258 188.502 121.258 189.812V190.865H118.727V189.933C118.727 189.258 118.552 188.745 118.201 188.394C117.85 188.03 117.35 187.847 116.702 187.847C116.027 187.847 115.514 188.05 115.163 188.455C114.812 188.86 114.637 189.434 114.637 190.176V197H112.106ZM128.378 197.202C127.433 197.202 126.61 197.02 125.908 196.656C125.206 196.291 124.659 195.778 124.268 195.117C123.89 194.442 123.701 193.652 123.701 192.748V190.115C123.701 189.211 123.89 188.428 124.268 187.766C124.659 187.091 125.206 186.572 125.908 186.207C126.61 185.843 127.433 185.66 128.378 185.66C129.31 185.66 130.12 185.843 130.808 186.207C131.51 186.572 132.05 187.085 132.428 187.746C132.819 188.394 133.015 189.157 133.015 190.034V192.059H126.131V192.829C126.131 193.585 126.326 194.158 126.718 194.55C127.109 194.928 127.663 195.117 128.378 195.117C128.905 195.117 129.35 195.029 129.715 194.854C130.093 194.665 130.315 194.395 130.383 194.044H132.894C132.718 195.002 132.219 195.772 131.395 196.352C130.572 196.919 129.566 197.202 128.378 197.202ZM126.131 190.034V190.419L130.585 190.399V190.014C130.585 189.245 130.396 188.651 130.018 188.232C129.64 187.814 129.094 187.604 128.378 187.604C127.636 187.604 127.075 187.82 126.697 188.252C126.32 188.671 126.131 189.265 126.131 190.034ZM140.682 197.202C139.723 197.202 138.886 197.027 138.171 196.676C137.469 196.312 136.922 195.805 136.531 195.157C136.139 194.496 135.943 193.72 135.943 192.829V190.034C135.943 189.143 136.139 188.374 136.531 187.726C136.922 187.064 137.469 186.558 138.171 186.207C138.886 185.843 139.723 185.66 140.682 185.66C142.072 185.66 143.186 186.025 144.023 186.754C144.873 187.469 145.319 188.448 145.359 189.69H142.869C142.828 189.11 142.605 188.664 142.2 188.354C141.809 188.03 141.303 187.868 140.682 187.868C139.993 187.868 139.453 188.057 139.062 188.435C138.67 188.799 138.475 189.326 138.475 190.014V192.829C138.475 193.517 138.67 194.05 139.062 194.428C139.453 194.806 139.993 194.995 140.682 194.995C141.316 194.995 141.829 194.84 142.221 194.53C142.612 194.206 142.828 193.753 142.869 193.173H145.359C145.319 194.415 144.873 195.4 144.023 196.129C143.186 196.845 142.072 197.202 140.682 197.202ZM148.105 197V194.712H151.912V188.151H148.51V185.863H154.443V194.712H157.865V197H148.105ZM153.006 184C152.493 184 152.088 183.872 151.791 183.615C151.494 183.345 151.345 182.988 151.345 182.542C151.345 182.097 151.494 181.746 151.791 181.489C152.088 181.219 152.493 181.084 153.006 181.084C153.519 181.084 153.924 181.219 154.221 181.489C154.518 181.746 154.666 182.097 154.666 182.542C154.666 182.988 154.518 183.345 154.221 183.615C153.924 183.872 153.519 184 153.006 184ZM164.783 197.182C163.352 197.182 162.218 196.784 161.381 195.988C160.544 195.178 160.125 194.091 160.125 192.727V190.136C160.125 188.759 160.544 187.672 161.381 186.875C162.218 186.079 163.352 185.681 164.783 185.681C166.214 185.681 167.348 186.079 168.185 186.875C169.021 187.672 169.44 188.759 169.44 190.136V192.727C169.44 194.091 169.021 195.178 168.185 195.988C167.348 196.784 166.214 197.182 164.783 197.182ZM164.783 194.975C165.458 194.975 165.977 194.793 166.342 194.428C166.72 194.05 166.909 193.51 166.909 192.808V190.055C166.909 189.353 166.72 188.819 166.342 188.455C165.977 188.077 165.458 187.888 164.783 187.888C164.108 187.888 163.581 188.077 163.203 188.455C162.839 188.819 162.657 189.353 162.657 190.055V192.808C162.657 193.51 162.839 194.05 163.203 194.428C163.581 194.793 164.108 194.975 164.783 194.975Z" fill="#090909"/>
<circle cx="245.5" cy="190.5" r="7" fill="#F384BD" stroke="black" stroke-width="3"/>
<circle cx="32.5" cy="190.5" r="7" fill="#F384BD" stroke="black" stroke-width="3"/>
<g filter="url(#filter4_d_1439_52)">
<rect x="305" y="6" width="208" height="70" rx="7.53139" fill="#F9DB57"/>
<rect x="303" y="4" width="212" height="74" rx="9.53139" stroke="black" stroke-width="4"/>
</g>
<path d="M323.125 57.1887C323.125 58.0825 323.601 58.9075 324.375 59.3538L343.75 70.54C344.136 70.7637 344.569 70.875 345 70.875C345.431 70.875 345.864 70.7637 346.25 70.54L365.625 59.3538C366.399 58.9075 366.875 58.0812 366.875 57.1887V35.8112C366.875 34.9175 366.399 34.0925 365.625 33.6462L346.25 22.46C345.864 22.2362 345.431 22.125 345 22.125C344.569 22.125 344.136 22.2362 343.75 22.46L324.375 33.6462C323.601 34.0925 323.125 34.9187 323.125 35.8112V57.1887Z" fill="#F9DB57"/>
<path d="M346.163 20.2963L341.25 17.46C340.864 17.2363 340.431 17.125 340 17.125C339.569 17.125 339.136 17.2363 338.75 17.46L319.375 28.6463C318.601 29.0925 318.125 29.9188 318.125 30.8113V34.3463" stroke="#18193F" stroke-width="4" stroke-miterlimit="10" stroke-linecap="round" stroke-linejoin="round"/>
<path d="M318.125 40.3038V52.1888C318.125 53.0825 318.601 53.9075 319.375 54.3538L338.75 65.54C339.136 65.7638 339.569 65.875 340 65.875C340.431 65.875 340.864 65.7638 341.25 65.54L360.625 54.3538C361.399 53.9075 361.875 53.0813 361.875 52.1888V30.8113C361.875 29.9175 361.399 29.0925 360.625 28.6463L352.372 23.8813" stroke="#18193F" stroke-width="4" stroke-miterlimit="10" stroke-linecap="round" stroke-linejoin="round"/>
<path d="M340 56.7925V41.5062" stroke="#18193F" stroke-width="4" stroke-miterlimit="10" stroke-linecap="round" stroke-linejoin="round"/>
<path d="M340 58.4675V56.7925" stroke="#18193F" stroke-width="4" stroke-miterlimit="10" stroke-linecap="round" stroke-linejoin="round"/>
<path d="M361.251 29.625L341.251 41.1725C340.477 41.6188 339.524 41.6188 338.751 41.1725L325.936 33.7738" stroke="#18193F" stroke-width="4" stroke-miterlimit="10" stroke-linecap="round" stroke-linejoin="round"/>
<path d="M379.877 35C378.77 35 377.879 34.6693 377.204 34.0078C376.543 33.3463 376.212 32.4756 376.212 31.3956V22.5063H372.547V20.2181H378.743V31.3349C378.743 31.7534 378.858 32.0909 379.087 32.3474C379.33 32.5903 379.654 32.7118 380.059 32.7118H383.319V35H379.877ZM392.019 35C390.912 35 390.021 34.6693 389.346 34.0078C388.684 33.3463 388.353 32.4756 388.353 31.3956V22.5063H384.688V20.2181H390.885V31.3349C390.885 31.7534 390.999 32.0909 391.229 32.3474C391.472 32.5903 391.796 32.7118 392.201 32.7118H395.461V35H392.019ZM402.378 35.2025C401.433 35.2025 400.61 35.0202 399.908 34.6558C399.206 34.2913 398.659 33.7783 398.268 33.1168C397.89 32.4419 397.701 31.6521 397.701 30.7477V28.1153C397.701 27.2108 397.89 26.4279 398.268 25.7664C398.659 25.0914 399.206 24.5717 399.908 24.2072C400.61 23.8427 401.433 23.6605 402.378 23.6605C403.31 23.6605 404.12 23.8427 404.808 24.2072C405.51 24.5717 406.05 25.0847 406.428 25.7461C406.819 26.3941 407.015 27.1568 407.015 28.0343V30.0592H400.131V30.8287C400.131 31.5846 400.326 32.1584 400.718 32.5499C401.109 32.9278 401.663 33.1168 402.378 33.1168C402.905 33.1168 403.35 33.0291 403.715 32.8536C404.093 32.6646 404.315 32.3946 404.383 32.0436H406.894C406.718 33.0021 406.219 33.7716 405.395 34.352C404.572 34.919 403.566 35.2025 402.378 35.2025ZM400.131 28.0343V28.419L404.585 28.3988V28.014C404.585 27.2446 404.396 26.6506 404.018 26.2321C403.64 25.8136 403.094 25.6044 402.378 25.6044C401.636 25.6044 401.075 25.8204 400.697 26.2524C400.32 26.6708 400.131 27.2648 400.131 28.0343ZM409.984 35V23.863H412.454V25.9486C412.589 25.2467 412.92 24.6932 413.447 24.2882C413.973 23.8697 414.641 23.6605 415.451 23.6605C416.545 23.6605 417.415 24.025 418.063 24.7539C418.725 25.4829 419.056 26.4616 419.056 27.6901V35H416.524V27.9938C416.524 27.3053 416.342 26.7788 415.978 26.4144C415.627 26.0364 415.147 25.8474 414.54 25.8474C413.906 25.8474 413.406 26.0364 413.042 26.4144C412.691 26.7923 412.515 27.3323 412.515 28.0343V35H409.984ZM425.406 35.2025C424.272 35.2025 423.374 34.8853 422.713 34.2508C422.065 33.6028 421.741 32.7591 421.741 31.7196C421.741 30.6397 422.112 29.7825 422.854 29.148C423.597 28.5 424.616 28.176 425.912 28.176H428.626V27.3863C428.626 26.2659 427.971 25.7056 426.661 25.7056C426.067 25.7056 425.595 25.8204 425.244 26.0499C424.893 26.2794 424.697 26.6033 424.657 27.0218H422.227C422.281 26.0229 422.699 25.2129 423.482 24.5919C424.279 23.971 425.345 23.6605 426.682 23.6605C428.099 23.6605 429.199 23.9912 429.982 24.6527C430.765 25.3142 431.157 26.2456 431.157 27.4471V35H428.686V32.9143C428.592 33.6298 428.254 34.19 427.674 34.595C427.093 35 426.337 35.2025 425.406 35.2025ZM426.216 33.1371C426.958 33.1371 427.546 32.9548 427.978 32.5904C428.41 32.2259 428.626 31.7399 428.626 31.1324V29.8162H426.034C425.48 29.8162 425.041 29.9715 424.717 30.2819C424.393 30.5924 424.231 30.9907 424.231 31.4766C424.231 31.9761 424.4 32.3811 424.738 32.6916C425.089 32.9886 425.581 33.1371 426.216 33.1371ZM434.672 35V23.863H437.142V26.0296C437.277 25.3007 437.608 24.7269 438.135 24.3084C438.675 23.8765 439.37 23.6605 440.22 23.6605C441.354 23.6605 442.239 24.025 442.873 24.7539C443.507 25.4829 443.825 26.5021 443.825 27.8115V28.8645H441.294V27.933C441.294 27.2581 441.118 26.7451 440.767 26.3941C440.416 26.0296 439.917 25.8474 439.269 25.8474C438.594 25.8474 438.081 26.0499 437.73 26.4549C437.379 26.8598 437.203 27.4336 437.203 28.176V35H434.672ZM378.075 49.1822C376.644 49.1822 375.51 48.784 374.673 47.9875C373.836 47.1776 373.417 46.0909 373.417 44.7274V42.1355C373.417 40.7586 373.836 39.6719 374.673 38.8754C375.51 38.079 376.644 37.6807 378.075 37.6807C379.506 37.6807 380.64 38.079 381.477 38.8754C382.314 39.6719 382.732 40.7586 382.732 42.1355V44.7274C382.732 46.0909 382.314 47.1776 381.477 47.9875C380.64 48.784 379.506 49.1822 378.075 49.1822ZM378.075 46.9751C378.75 46.9751 379.269 46.7928 379.634 46.4284C380.012 46.0504 380.201 45.5104 380.201 44.8084V42.0545C380.201 41.3526 380.012 40.8193 379.634 40.4549C379.269 40.0769 378.75 39.8879 378.075 39.8879C377.4 39.8879 376.873 40.0769 376.495 40.4549C376.131 40.8193 375.949 41.3526 375.949 42.0545V44.8084C375.949 45.5104 376.131 46.0504 376.495 46.4284C376.873 46.7928 377.4 46.9751 378.075 46.9751ZM386.106 49V37.863H388.576V40.0296C388.711 39.3007 389.042 38.7269 389.568 38.3084C390.108 37.8765 390.804 37.6605 391.654 37.6605C392.788 37.6605 393.672 38.025 394.307 38.7539C394.941 39.4829 395.258 40.5021 395.258 41.8115V42.8645H392.727V41.933C392.727 41.2581 392.552 40.7451 392.201 40.3941C391.85 40.0296 391.35 39.8474 390.702 39.8474C390.027 39.8474 389.514 40.0499 389.163 40.4549C388.812 40.8598 388.637 41.4336 388.637 42.176V49H386.106ZM401.345 49.2025C400.266 49.2025 399.388 48.8178 398.713 48.0483C398.052 47.2788 397.721 46.2461 397.721 44.9502V41.933C397.721 40.6236 398.052 39.5841 398.713 38.8147C399.375 38.0452 400.252 37.6605 401.345 37.6605C402.115 37.6605 402.763 37.8562 403.289 38.2477C403.829 38.6392 404.207 39.1859 404.423 39.8879L404.342 37.3365V34.2181H406.873V49H404.403V46.9751C404.201 47.6771 403.836 48.2238 403.31 48.6153C402.783 49.0067 402.128 49.2025 401.345 49.2025ZM402.297 47.0156C402.945 47.0156 403.445 46.8198 403.796 46.4284C404.16 46.0369 404.342 45.4834 404.342 44.7679V42.095C404.342 41.3796 404.16 40.8261 403.796 40.4346C403.445 40.0431 402.945 39.8474 402.297 39.8474C401.649 39.8474 401.143 40.0229 400.778 40.3739C400.427 40.7248 400.252 41.2648 400.252 41.9938V44.8692C400.252 45.5981 400.427 46.1381 400.778 46.4891C401.143 46.8401 401.649 47.0156 402.297 47.0156ZM414.52 49.2025C413.575 49.2025 412.751 49.0202 412.049 48.6558C411.347 48.2913 410.801 47.7783 410.409 47.1168C410.031 46.4419 409.842 45.6521 409.842 44.7477V42.1153C409.842 41.2108 410.031 40.4279 410.409 39.7664C410.801 39.0914 411.347 38.5717 412.049 38.2072C412.751 37.8427 413.575 37.6605 414.52 37.6605C415.451 37.6605 416.261 37.8427 416.95 38.2072C417.652 38.5717 418.192 39.0847 418.57 39.7461C418.961 40.3941 419.157 41.1568 419.157 42.0343V44.0592H412.272V44.8287C412.272 45.5846 412.468 46.1584 412.859 46.5499C413.251 46.9278 413.804 47.1168 414.52 47.1168C415.046 47.1168 415.492 47.0291 415.856 46.8536C416.234 46.6646 416.457 46.3946 416.524 46.0436H419.035C418.86 47.0021 418.36 47.7716 417.537 48.352C416.713 48.919 415.708 49.2025 414.52 49.2025ZM412.272 42.0343V42.419L416.727 42.3988V42.014C416.727 41.2446 416.538 40.6506 416.16 40.2321C415.782 39.8136 415.235 39.6044 414.52 39.6044C413.777 39.6044 413.217 39.8204 412.839 40.2524C412.461 40.6708 412.272 41.2648 412.272 42.0343ZM422.126 49V37.863H424.596V39.9486C424.731 39.2467 425.062 38.6932 425.588 38.2882C426.115 37.8697 426.783 37.6605 427.593 37.6605C428.686 37.6605 429.557 38.025 430.205 38.7539C430.866 39.4829 431.197 40.4616 431.197 41.6901V49H428.666V41.9938C428.666 41.3053 428.484 40.7788 428.119 40.4144C427.768 40.0364 427.289 39.8474 426.682 39.8474C426.047 39.8474 425.548 40.0364 425.183 40.4144C424.832 40.7923 424.657 41.3323 424.657 42.0343V49H422.126ZM449.912 49.2025C448.832 49.2025 447.954 48.8178 447.279 48.0483C446.618 47.2788 446.287 46.2461 446.287 44.9502V41.933C446.287 40.6236 446.618 39.5841 447.279 38.8147C447.941 38.0452 448.818 37.6605 449.912 37.6605C450.681 37.6605 451.329 37.8562 451.856 38.2477C452.396 38.6392 452.774 39.1859 452.99 39.8879L452.909 37.3365V34.2181H455.44V49H452.969V46.9751C452.767 47.6771 452.402 48.2238 451.876 48.6153C451.349 49.0067 450.695 49.2025 449.912 49.2025ZM450.864 47.0156C451.511 47.0156 452.011 46.8198 452.362 46.4284C452.726 46.0369 452.909 45.4834 452.909 44.7679V42.095C452.909 41.3796 452.726 40.8261 452.362 40.4346C452.011 40.0431 451.511 39.8474 450.864 39.8474C450.216 39.8474 449.709 40.0229 449.345 40.3739C448.994 40.7248 448.818 41.2648 448.818 41.9938V44.8692C448.818 45.5981 448.994 46.1381 449.345 46.4891C449.709 46.8401 450.216 47.0156 450.864 47.0156ZM463.086 49.2025C462.141 49.2025 461.318 49.0202 460.616 48.6558C459.914 48.2913 459.367 47.7783 458.976 47.1168C458.598 46.4419 458.409 45.6521 458.409 44.7477V42.1153C458.409 41.2108 458.598 40.4279 458.976 39.7664C459.367 39.0914 459.914 38.5717 460.616 38.2072C461.318 37.8427 462.141 37.6605 463.086 37.6605C464.018 37.6605 464.828 37.8427 465.516 38.2072C466.218 38.5717 466.758 39.0847 467.136 39.7461C467.527 40.3941 467.723 41.1568 467.723 42.0343V44.0592H460.838V44.8287C460.838 45.5846 461.034 46.1584 461.426 46.5499C461.817 46.9278 462.371 47.1168 463.086 47.1168C463.613 47.1168 464.058 47.0291 464.423 46.8536C464.801 46.6646 465.023 46.3946 465.091 46.0436H467.602C467.426 47.0021 466.927 47.7716 466.103 48.352C465.28 48.919 464.274 49.2025 463.086 49.2025ZM460.838 42.0343V42.419L465.293 42.3988V42.014C465.293 41.2446 465.104 40.6506 464.726 40.2321C464.348 39.8136 463.802 39.6044 463.086 39.6044C462.344 39.6044 461.783 39.8204 461.405 40.2524C461.027 40.6708 460.838 41.2648 460.838 42.0343ZM378.257 63.2025C377.299 63.2025 376.462 63.027 375.746 62.676C375.044 62.3115 374.497 61.8053 374.106 61.1573C373.714 60.4959 373.519 59.7196 373.519 58.8287V56.0343C373.519 55.1433 373.714 54.3739 374.106 53.7259C374.497 53.0644 375.044 52.5582 375.746 52.2072C376.462 51.8427 377.299 51.6605 378.257 51.6605C379.647 51.6605 380.761 52.025 381.598 52.7539C382.449 53.4694 382.894 54.4481 382.935 55.6901H380.444C380.403 55.1096 380.181 54.6641 379.776 54.3536C379.384 54.0296 378.878 53.8676 378.257 53.8676C377.569 53.8676 377.029 54.0566 376.637 54.4346C376.246 54.7991 376.05 55.3256 376.05 56.014V58.8287C376.05 59.5171 376.246 60.0504 376.637 60.4284C377.029 60.8063 377.569 60.9953 378.257 60.9953C378.891 60.9953 379.404 60.8401 379.796 60.5296C380.187 60.2056 380.403 59.7534 380.444 59.1729H382.935C382.894 60.4149 382.449 61.4003 381.598 62.1293C380.761 62.8448 379.647 63.2025 378.257 63.2025ZM390.216 63.1822C388.785 63.1822 387.651 62.784 386.814 61.9875C385.978 61.1776 385.559 60.0909 385.559 58.7274V56.1355C385.559 54.7586 385.978 53.6719 386.814 52.8754C387.651 52.079 388.785 51.6807 390.216 51.6807C391.647 51.6807 392.781 52.079 393.618 52.8754C394.455 53.6719 394.874 54.7586 394.874 56.1355V58.7274C394.874 60.0909 394.455 61.1776 393.618 61.9875C392.781 62.784 391.647 63.1822 390.216 63.1822ZM390.216 60.9751C390.891 60.9751 391.411 60.7928 391.776 60.4284C392.154 60.0504 392.342 59.5104 392.342 58.8084V56.0545C392.342 55.3526 392.154 54.8193 391.776 54.4549C391.411 54.0769 390.891 53.8879 390.216 53.8879C389.541 53.8879 389.015 54.0769 388.637 54.4549C388.272 54.8193 388.09 55.3526 388.09 56.0545V58.8084C388.09 59.5104 388.272 60.0504 388.637 60.4284C389.015 60.7928 389.541 60.9751 390.216 60.9751ZM397.235 63V51.863H399.341V53.4829H399.402C399.442 52.9429 399.631 52.5042 399.969 52.1667C400.306 51.8292 400.731 51.6605 401.244 51.6605C401.744 51.6605 402.169 51.8225 402.52 52.1465C402.871 52.4569 403.107 52.8822 403.229 53.4221C403.283 52.8822 403.478 52.4569 403.816 52.1465C404.167 51.8225 404.606 51.6605 405.132 51.6605C405.807 51.6605 406.367 51.9305 406.813 52.4704C407.258 52.9969 407.481 53.6786 407.481 54.5156V63H405.254V54.6978C405.254 54.3334 405.166 54.0499 404.99 53.8474C404.828 53.6314 404.592 53.5234 404.282 53.5234C403.674 53.5234 403.37 53.9149 403.37 54.6978V63H401.345V54.6978C401.345 54.3334 401.264 54.0499 401.102 53.8474C400.954 53.6314 400.731 53.5234 400.434 53.5234C399.786 53.5234 399.462 53.9149 399.462 54.6978V63H397.235ZM409.984 66.6448V51.863H412.454V53.9081C412.657 53.2062 413.021 52.6594 413.548 52.2679C414.074 51.863 414.729 51.6605 415.512 51.6605C416.227 51.6605 416.855 51.836 417.395 52.1869C417.949 52.5379 418.374 53.0374 418.671 53.6854C418.981 54.3199 419.137 55.0623 419.137 55.9128V58.9299C419.137 60.2124 418.806 61.2451 418.144 62.028C417.483 62.811 416.605 63.2025 415.512 63.2025C414.729 63.2025 414.068 63 413.528 62.595C413.001 62.19 412.637 61.6231 412.434 60.8941L412.515 63.5265V66.6448H409.984ZM414.56 61.0156C415.208 61.0156 415.708 60.8401 416.059 60.4891C416.423 60.1381 416.605 59.5981 416.605 58.8692V55.9938C416.605 55.2648 416.423 54.7248 416.059 54.3739C415.708 54.0229 415.208 53.8474 414.56 53.8474C413.912 53.8474 413.406 54.0431 413.042 54.4346C412.691 54.8261 412.515 55.3796 412.515 56.095V58.7679C412.515 59.4834 412.691 60.0369 413.042 60.4284C413.406 60.8198 413.912 61.0156 414.56 61.0156ZM422.531 63V51.863H425.001V54.0296C425.136 53.3007 425.467 52.7269 425.993 52.3084C426.533 51.8765 427.228 51.6605 428.079 51.6605C429.213 51.6605 430.097 52.025 430.731 52.7539C431.366 53.4829 431.683 54.5021 431.683 55.8115V56.8645H429.152V55.933C429.152 55.2581 428.976 54.7451 428.626 54.3941C428.275 54.0296 427.775 53.8474 427.127 53.8474C426.452 53.8474 425.939 54.0499 425.588 54.4549C425.237 54.8598 425.062 55.4336 425.062 56.176V63H422.531ZM437.547 63.2025C436.414 63.2025 435.516 62.8853 434.854 62.2508C434.206 61.6028 433.882 60.7591 433.882 59.7196C433.882 58.6397 434.254 57.7825 434.996 57.148C435.739 56.5 436.758 56.176 438.054 56.176H440.767V55.3863C440.767 54.2659 440.112 53.7056 438.803 53.7056C438.209 53.7056 437.736 53.8204 437.385 54.0499C437.034 54.2794 436.839 54.6033 436.798 55.0218H434.368C434.422 54.0229 434.841 53.2129 435.624 52.5919C436.42 51.971 437.487 51.6605 438.823 51.6605C440.241 51.6605 441.341 51.9912 442.124 52.6527C442.907 53.3142 443.298 54.2456 443.298 55.4471V63H440.828V60.9143C440.733 61.6298 440.396 62.19 439.815 62.595C439.235 63 438.479 63.2025 437.547 63.2025ZM438.357 61.1371C439.1 61.1371 439.687 60.9548 440.119 60.5904C440.551 60.2259 440.767 59.7399 440.767 59.1324V57.8162H438.175C437.622 57.8162 437.183 57.9715 436.859 58.2819C436.535 58.5924 436.373 58.9907 436.373 59.4766C436.373 59.9761 436.542 60.3811 436.879 60.6916C437.23 60.9886 437.723 61.1371 438.357 61.1371Z" fill="#090909"/>
<circle cx="513.5" cy="42.5" r="7" fill="#F9DB57" stroke="black" stroke-width="3"/>
<circle cx="300.5" cy="42.5" r="7" fill="#F9DB57" stroke="black" stroke-width="3"/>
<g filter="url(#filter5_d_1439_52)">
<rect x="847" y="4" width="208" height="70" rx="7.53139" fill="#F9DB57"/>
<rect x="845" y="2" width="212" height="74" rx="9.53139" stroke="black" stroke-width="4"/>
</g>
<path d="M868 48.9V31.1C868 30 868.9 29 870.1 29H902C903.1 29 904.1 29.9 904.1 31.1V49C904.1 50.1 903.2 51.1 902 51.1H870.1C868.9 51 868 50.1 868 48.9Z" fill="#A5D6A7"/>
<path d="M895.4 51.1C895.1 52 894.8 52.9 894.6 53.9C894.4 54.7 893.4 55 892.5 54.6C883.9 50.8 875.8 48.1 866.5 46.5" stroke="#18193F" stroke-width="3" stroke-linecap="round" stroke-linejoin="round"/>
<path d="M899.5 41.5V44.5C899.5 45.6 898.6 46.5 897.5 46.5H866.5C865.4 46.5 864.5 45.6 864.5 44.5V36.6" stroke="#18193F" stroke-width="3" stroke-linecap="round" stroke-linejoin="round"/>
<path d="M864.5 31.7V27.5C864.5 26.4 865.4 25.5 866.5 25.5H897.5C898.6 25.5 899.5 26.4 899.5 27.5V37.1" stroke="#18193F" stroke-width="3" stroke-linecap="round" stroke-linejoin="round"/>
<path d="M894 38C895.105 38 896 37.1046 896 36C896 34.8954 895.105 34 894 34C892.895 34 892 34.8954 892 36C892 37.1046 892.895 38 894 38Z" fill="#18193F"/>
<path d="M870 38C871.105 38 872 37.1046 872 36C872 34.8954 871.105 34 870 34C868.895 34 868 34.8954 868 36C868 37.1046 868.895 38 870 38Z" fill="#18193F"/>
<path d="M882 41.5C884.485 41.5 886.5 39.0376 886.5 36C886.5 32.9624 884.485 30.5 882 30.5C879.515 30.5 877.5 32.9624 877.5 36C877.5 39.0376 879.515 41.5 882 41.5Z" stroke="#18193F" stroke-width="3" stroke-linejoin="round"/>
<path d="M915.559 50.6448V35.863H918.03V37.9081C918.232 37.2062 918.597 36.6594 919.123 36.2679C919.65 35.863 920.304 35.6605 921.087 35.6605C921.803 35.6605 922.43 35.836 922.97 36.1869C923.524 36.5379 923.949 37.0374 924.246 37.6854C924.557 38.3199 924.712 39.0623 924.712 39.9128V42.9299C924.712 44.2124 924.381 45.2451 923.72 46.028C923.058 46.811 922.181 47.2025 921.087 47.2025C920.304 47.2025 919.643 47 919.103 46.595C918.576 46.19 918.212 45.6231 918.009 44.8941L918.09 47.5265V50.6448H915.559ZM920.135 45.0156C920.783 45.0156 921.283 44.8401 921.634 44.4891C921.998 44.1381 922.181 43.5981 922.181 42.8692V39.9938C922.181 39.2648 921.998 38.7248 921.634 38.3739C921.283 38.0229 920.783 37.8474 920.135 37.8474C919.488 37.8474 918.981 38.0431 918.617 38.4346C918.266 38.8261 918.09 39.3796 918.09 40.095V42.7679C918.09 43.4834 918.266 44.0369 918.617 44.4284C918.981 44.8198 919.488 45.0156 920.135 45.0156ZM930.981 47.2025C929.847 47.2025 928.949 46.8853 928.288 46.2508C927.64 45.6028 927.316 44.7591 927.316 43.7196C927.316 42.6397 927.687 41.7825 928.43 41.148C929.172 40.5 930.191 40.176 931.487 40.176H934.201V39.3863C934.201 38.2659 933.546 37.7056 932.237 37.7056C931.643 37.7056 931.17 37.8204 930.819 38.0499C930.468 38.2794 930.272 38.6033 930.232 39.0218H927.802C927.856 38.0229 928.274 37.2129 929.057 36.5919C929.854 35.971 930.92 35.6605 932.257 35.6605C933.674 35.6605 934.774 35.9912 935.557 36.6527C936.34 37.3142 936.732 38.2456 936.732 39.4471V47H934.261V44.9143C934.167 45.6298 933.83 46.19 933.249 46.595C932.669 47 931.913 47.2025 930.981 47.2025ZM931.791 45.1371C932.534 45.1371 933.121 44.9548 933.553 44.5904C933.985 44.2259 934.201 43.7399 934.201 43.1324V41.8162H931.609C931.055 41.8162 930.617 41.9715 930.293 42.2819C929.969 42.5924 929.807 42.9907 929.807 43.4766C929.807 43.9761 929.975 44.3811 930.313 44.6916C930.664 44.9886 931.157 45.1371 931.791 45.1371ZM941.361 50.6448V48.5389H944.5C945.094 48.5389 945.553 48.3769 945.877 48.053C946.201 47.7425 946.363 47.3172 946.363 46.7773V46.109L946.403 44.3676C946.174 44.9886 945.802 45.4746 945.289 45.8255C944.79 46.163 944.176 46.3318 943.447 46.3318C942.313 46.3318 941.408 45.9538 940.733 45.1978C940.072 44.4284 939.741 43.3889 939.741 42.0795V39.9128C939.741 38.6168 940.072 37.5841 940.733 36.8147C941.408 36.0452 942.313 35.6605 943.447 35.6605C944.176 35.6605 944.79 35.836 945.289 36.1869C945.802 36.5244 946.174 37.0104 946.403 37.6449V35.863H948.873V46.838C948.873 48.0125 948.482 48.9372 947.699 49.6121C946.93 50.3006 945.877 50.6448 944.54 50.6448H941.361ZM944.297 44.1651C944.945 44.1651 945.445 43.9761 945.796 43.5981C946.16 43.2067 946.342 42.6667 946.342 41.9782V40.0343C946.342 39.3458 946.16 38.8126 945.796 38.4346C945.445 38.0431 944.945 37.8474 944.297 37.8474C943.649 37.8474 943.15 38.0364 942.799 38.4144C942.448 38.7788 942.272 39.2918 942.272 39.9533V42.0592C942.272 42.7207 942.448 43.2404 942.799 43.6184C943.15 43.9829 943.649 44.1651 944.297 44.1651ZM956.5 47.1822C955.069 47.1822 953.935 46.784 953.098 45.9875C952.261 45.1776 951.842 44.0909 951.842 42.7274V40.1355C951.842 38.7586 952.261 37.6719 953.098 36.8754C953.935 36.079 955.069 35.6807 956.5 35.6807C957.93 35.6807 959.064 36.079 959.901 36.8754C960.738 37.6719 961.157 38.7586 961.157 40.1355V42.7274C961.157 44.0909 960.738 45.1776 959.901 45.9875C959.064 46.784 957.93 47.1822 956.5 47.1822ZM956.5 44.9751C957.174 44.9751 957.694 44.7928 958.059 44.4284C958.437 44.0504 958.626 43.5104 958.626 42.8084V40.0545C958.626 39.3526 958.437 38.8193 958.059 38.4549C957.694 38.0769 957.174 37.8879 956.5 37.8879C955.825 37.8879 955.298 38.0769 954.92 38.4549C954.556 38.8193 954.373 39.3526 954.373 40.0545V42.8084C954.373 43.5104 954.556 44.0504 954.92 44.4284C955.298 44.7928 955.825 44.9751 956.5 44.9751Z" fill="#090909"/>
<circle cx="1055.5" cy="40.5" r="7" fill="#F9DB57" stroke="black" stroke-width="3"/>
<circle cx="842.5" cy="40.5" r="7" fill="#F9DB57" stroke="black" stroke-width="3"/>
<g filter="url(#filter6_d_1439_52)">
<rect x="1106" y="4" width="208" height="70" rx="7.53139" fill="#B5A1F9"/>
<rect x="1104" y="2" width="212" height="74" rx="9.53139" stroke="black" stroke-width="4"/>
</g>
<rect width="191" height="47" transform="translate(1111 16)" fill="#B5A1F9"/>
<path d="M1123.41 37.939L1153.12 27.133C1154.83 26.512 1156.49 28.168 1155.87 29.875L1145.06 59.591C1144.43 61.328 1142.04 61.501 1141.17 59.874L1134.85 48.146L1123.13 41.834C1121.5 40.958 1121.67 38.571 1123.41 37.939Z" fill="#9FA8DA"/>
<path d="M1135.72 28.008L1149.12 23.134C1150.83 22.513 1152.49 24.169 1151.87 25.876L1141.06 55.591C1140.43 57.328 1138.04 57.501 1137.17 55.874L1133.95 49.893" stroke="#18193F" stroke-width="3" stroke-miterlimit="10" stroke-linecap="round" stroke-linejoin="round"/>
<path d="M1130.85 44.146L1119.13 37.834C1117.5 36.958 1117.67 34.571 1119.41 33.939L1128.46 30.648" stroke="#18193F" stroke-width="3" stroke-miterlimit="10" stroke-linecap="round" stroke-linejoin="round"/>
<path d="M1130.85 44.146L1141.18 33.82" stroke="#18193F" stroke-width="3" stroke-miterlimit="10" stroke-linecap="round" stroke-linejoin="round"/>
<path d="M1179.09 47.2025C1178.15 47.2025 1177.33 47.0202 1176.62 46.6558C1175.92 46.2913 1175.38 45.7783 1174.98 45.1168C1174.61 44.4419 1174.42 43.6521 1174.42 42.7477V40.1153C1174.42 39.2108 1174.61 38.4279 1174.98 37.7664C1175.38 37.0914 1175.92 36.5717 1176.62 36.2072C1177.33 35.8427 1178.15 35.6605 1179.09 35.6605C1180.03 35.6605 1180.84 35.8427 1181.52 36.2072C1182.23 36.5717 1182.77 37.0847 1183.14 37.7461C1183.54 38.3941 1183.73 39.1568 1183.73 40.0343V42.0592H1176.85V42.8287C1176.85 43.5846 1177.04 44.1584 1177.43 44.5499C1177.83 44.9278 1178.38 45.1168 1179.09 45.1168C1179.62 45.1168 1180.07 45.0291 1180.43 44.8536C1180.81 44.6646 1181.03 44.3946 1181.1 44.0436H1183.61C1183.44 45.0021 1182.94 45.7716 1182.11 46.352C1181.29 46.919 1180.28 47.2025 1179.09 47.2025ZM1176.85 40.0343V40.419L1181.3 40.3988V40.014C1181.3 39.2446 1181.11 38.6506 1180.74 38.2321C1180.36 37.8136 1179.81 37.6044 1179.09 37.6044C1178.35 37.6044 1177.79 37.8204 1177.41 38.2524C1177.04 38.6708 1176.85 39.2648 1176.85 40.0343ZM1186.7 47V35.863H1189.17V37.9486C1189.31 37.2467 1189.64 36.6932 1190.16 36.2882C1190.69 35.8697 1191.36 35.6605 1192.17 35.6605C1193.26 35.6605 1194.13 36.025 1194.78 36.7539C1195.44 37.4829 1195.77 38.4616 1195.77 39.6901V47H1193.24V39.9938C1193.24 39.3053 1193.06 38.7788 1192.69 38.4144C1192.34 38.0364 1191.86 37.8474 1191.26 37.8474C1190.62 37.8474 1190.12 38.0364 1189.76 38.4144C1189.41 38.7923 1189.23 39.3323 1189.23 40.0343V47H1186.7ZM1201.76 47L1198.01 35.863H1200.66L1202.81 42.6262C1202.95 43.0312 1203.06 43.4429 1203.16 43.8614C1203.26 44.2664 1203.34 44.6173 1203.38 44.9143C1203.43 44.6173 1203.5 44.2664 1203.58 43.8614C1203.68 43.4429 1203.78 43.0379 1203.9 42.6464L1206.03 35.863H1208.7L1204.98 47H1201.76ZM1210.96 47V44.7118H1214.77V38.1511H1211.37V35.863H1217.3V44.7118H1220.72V47H1210.96ZM1215.86 34C1215.35 34 1214.95 33.8718 1214.65 33.6153C1214.35 33.3453 1214.2 32.9876 1214.2 32.5421C1214.2 32.0966 1214.35 31.7456 1214.65 31.4891C1214.95 31.2192 1215.35 31.0842 1215.86 31.0842C1216.38 31.0842 1216.78 31.2192 1217.08 31.4891C1217.38 31.7456 1217.52 32.0966 1217.52 32.5421C1217.52 32.9876 1217.38 33.3453 1217.08 33.6153C1216.78 33.8718 1216.38 34 1215.86 34ZM1227.64 47.1822C1226.21 47.1822 1225.08 46.784 1224.24 45.9875C1223.4 45.1776 1222.98 44.0909 1222.98 42.7274V40.1355C1222.98 38.7586 1223.4 37.6719 1224.24 36.8754C1225.08 36.079 1226.21 35.6807 1227.64 35.6807C1229.07 35.6807 1230.21 36.079 1231.04 36.8754C1231.88 37.6719 1232.3 38.7586 1232.3 40.1355V42.7274C1232.3 44.0909 1231.88 45.1776 1231.04 45.9875C1230.21 46.784 1229.07 47.1822 1227.64 47.1822ZM1227.64 44.9751C1228.32 44.9751 1228.84 44.7928 1229.2 44.4284C1229.58 44.0504 1229.77 43.5104 1229.77 42.8084V40.0545C1229.77 39.3526 1229.58 38.8193 1229.2 38.4549C1228.84 38.0769 1228.32 37.8879 1227.64 37.8879C1226.97 37.8879 1226.44 38.0769 1226.06 38.4549C1225.7 38.8193 1225.51 39.3526 1225.51 40.0545V42.8084C1225.51 43.5104 1225.7 44.0504 1226.06 44.4284C1226.44 44.7928 1226.97 44.9751 1227.64 44.9751Z" fill="#090909"/>
<circle cx="1314.5" cy="40.5" r="7" fill="#B5A1F9" stroke="black" stroke-width="3"/>
<circle cx="1101.5" cy="40.5" r="7" fill="#B5A1F9" stroke="black" stroke-width="3"/>
<defs>
<filter id="filter0_d_1439_52" x="583.892" y="2" width="220.108" height="84.162" filterUnits="userSpaceOnUse" color-interpolation-filters="sRGB">
<feFlood flood-opacity="0" result="BackgroundImageFix"/>
<feColorMatrix in="SourceAlpha" type="matrix" values="0 0 0 0 0 0 0 0 0 0 0 0 0 0 0 0 0 0 127 0" result="hardAlpha"/>
<feOffset dx="-4.10803" dy="6.16204"/>
<feComposite in2="hardAlpha" operator="out"/>
<feColorMatrix type="matrix" values="0 0 0 0 0 0 0 0 0 0 0 0 0 0 0 0 0 0 1 0"/>
<feBlend mode="normal" in2="BackgroundImageFix" result="effect1_dropShadow_1439_52"/>
<feBlend mode="normal" in="SourceGraphic" in2="effect1_dropShadow_1439_52" result="shape"/>
</filter>
<filter id="filter1_d_1439_52" x="4.89197" y="2" width="220.108" height="84.162" filterUnits="userSpaceOnUse" color-interpolation-filters="sRGB">
<feFlood flood-opacity="0" result="BackgroundImageFix"/>
<feColorMatrix in="SourceAlpha" type="matrix" values="0 0 0 0 0 0 0 0 0 0 0 0 0 0 0 0 0 0 127 0" result="hardAlpha"/>
<feOffset dx="-4.10803" dy="6.16204"/>
<feComposite in2="hardAlpha" operator="out"/>
<feColorMatrix type="matrix" values="0 0 0 0 0 0 0 0 0 0 0 0 0 0 0 0 0 0 1 0"/>
<feBlend mode="normal" in2="BackgroundImageFix" result="effect1_dropShadow_1439_52"/>
<feBlend mode="normal" in="SourceGraphic" in2="effect1_dropShadow_1439_52" result="shape"/>
</filter>
<filter id="filter2_d_1439_52" x="29.892" y="75" width="220.108" height="84.162" filterUnits="userSpaceOnUse" color-interpolation-filters="sRGB">
<feFlood flood-opacity="0" result="BackgroundImageFix"/>
<feColorMatrix in="SourceAlpha" type="matrix" values="0 0 0 0 0 0 0 0 0 0 0 0 0 0 0 0 0 0 127 0" result="hardAlpha"/>
<feOffset dx="-4.10803" dy="6.16204"/>
<feComposite in2="hardAlpha" operator="out"/>
<feColorMatrix type="matrix" values="0 0 0 0 0 0 0 0 0 0 0 0 0 0 0 0 0 0 1 0"/>
<feBlend mode="normal" in2="BackgroundImageFix" result="effect1_dropShadow_1439_52"/>
<feBlend mode="normal" in="SourceGraphic" in2="effect1_dropShadow_1439_52" result="shape"/>
</filter>
<filter id="filter3_d_1439_52" x="28.892" y="150" width="220.108" height="84.162" filterUnits="userSpaceOnUse" color-interpolation-filters="sRGB">
<feFlood flood-opacity="0" result="BackgroundImageFix"/>
<feColorMatrix in="SourceAlpha" type="matrix" values="0 0 0 0 0 0 0 0 0 0 0 0 0 0 0 0 0 0 127 0" result="hardAlpha"/>
<feOffset dx="-4.10803" dy="6.16204"/>
<feComposite in2="hardAlpha" operator="out"/>
<feColorMatrix type="matrix" values="0 0 0 0 0 0 0 0 0 0 0 0 0 0 0 0 0 0 1 0"/>
<feBlend mode="normal" in2="BackgroundImageFix" result="effect1_dropShadow_1439_52"/>
<feBlend mode="normal" in="SourceGraphic" in2="effect1_dropShadow_1439_52" result="shape"/>
</filter>
<filter id="filter4_d_1439_52" x="296.892" y="2" width="220.108" height="84.162" filterUnits="userSpaceOnUse" color-interpolation-filters="sRGB">
<feFlood flood-opacity="0" result="BackgroundImageFix"/>
<feColorMatrix in="SourceAlpha" type="matrix" values="0 0 0 0 0 0 0 0 0 0 0 0 0 0 0 0 0 0 127 0" result="hardAlpha"/>
<feOffset dx="-4.10803" dy="6.16204"/>
<feComposite in2="hardAlpha" operator="out"/>
<feColorMatrix type="matrix" values="0 0 0 0 0 0 0 0 0 0 0 0 0 0 0 0 0 0 1 0"/>
<feBlend mode="normal" in2="BackgroundImageFix" result="effect1_dropShadow_1439_52"/>
<feBlend mode="normal" in="SourceGraphic" in2="effect1_dropShadow_1439_52" result="shape"/>
</filter>
<filter id="filter5_d_1439_52" x="838.892" y="0" width="220.108" height="84.162" filterUnits="userSpaceOnUse" color-interpolation-filters="sRGB">
<feFlood flood-opacity="0" result="BackgroundImageFix"/>
<feColorMatrix in="SourceAlpha" type="matrix" values="0 0 0 0 0 0 0 0 0 0 0 0 0 0 0 0 0 0 127 0" result="hardAlpha"/>
<feOffset dx="-4.10803" dy="6.16204"/>
<feComposite in2="hardAlpha" operator="out"/>
<feColorMatrix type="matrix" values="0 0 0 0 0 0 0 0 0 0 0 0 0 0 0 0 0 0 1 0"/>
<feBlend mode="normal" in2="BackgroundImageFix" result="effect1_dropShadow_1439_52"/>
<feBlend mode="normal" in="SourceGraphic" in2="effect1_dropShadow_1439_52" result="shape"/>
</filter>
<filter id="filter6_d_1439_52" x="1097.89" y="0" width="220.108" height="84.162" filterUnits="userSpaceOnUse" color-interpolation-filters="sRGB">
<feFlood flood-opacity="0" result="BackgroundImageFix"/>
<feColorMatrix in="SourceAlpha" type="matrix" values="0 0 0 0 0 0 0 0 0 0 0 0 0 0 0 0 0 0 127 0" result="hardAlpha"/>
<feOffset dx="-4.10803" dy="6.16204"/>
<feComposite in2="hardAlpha" operator="out"/>
<feColorMatrix type="matrix" values="0 0 0 0 0 0 0 0 0 0 0 0 0 0 0 0 0 0 1 0"/>
<feBlend mode="normal" in2="BackgroundImageFix" result="effect1_dropShadow_1439_52"/>
<feBlend mode="normal" in="SourceGraphic" in2="effect1_dropShadow_1439_52" result="shape"/>
</filter>
<clipPath id="clip0_1439_52">
<rect width="48" height="48" fill="white" transform="translate(602 18)"/>
</clipPath>
</defs>
</svg>
