<?xml version="1.0" encoding="iso-8859-1"?>
<!-- Generator: Adobe Illustrator 23.0.3, SVG Export Plug-In . SVG Version: 6.00 Build 0)  -->
<svg version="1.1" id="Layer_1" xmlns="http://www.w3.org/2000/svg" xmlns:xlink="http://www.w3.org/1999/xlink" x="0px" y="0px"
	 viewBox="0 0 48 48" style="enable-background:new 0 0 48 48;" xml:space="preserve">
<path style="fill:#A5D6A7;" d="M42.016,32H15.984C14.888,32,14,31.112,14,30.016V13.975C14,12.332,15.332,11,16.975,11h24.049
	C42.668,11,44,12.332,44,13.975v16.041C44,31.112,43.112,32,42.016,32z"/>
<line style="fill:none;stroke:#18193F;stroke-width:3;stroke-linecap:round;stroke-miterlimit:10;" x1="9.5" y1="17.5" x2="22.5" y2="17.5"/>
<circle style="fill:none;stroke:#18193F;stroke-width:3;stroke-linecap:round;stroke-linejoin:round;stroke-miterlimit:10;" cx="10" cy="10" r="3"/>
<path style="fill:none;stroke:#18193F;stroke-width:3;stroke-linecap:round;stroke-linejoin:round;stroke-miterlimit:10;" d="M37,37
	c0,1.657-1.343,3-3,3s-3-1.343-3-3s1.343-3,3-3"/>
<path style="fill:none;stroke:#18193F;stroke-width:3;stroke-linecap:round;stroke-linejoin:round;stroke-miterlimit:10;" d="
	M13.5,23.479V30.5h-8v-9.154c0-2.124,1.791-3.846,4-3.846h4"/>
<path style="fill:#18193F;" d="M42.5,27H31v3h11.5c0.828,0,1.5-0.671,1.5-1.5S43.328,27,42.5,27z"/>
<path style="fill:none;stroke:#18193F;stroke-width:3;stroke-linecap:round;stroke-linejoin:round;stroke-miterlimit:10;" d="
	M16.25,7.5H37.5c1.657,0,3,1.343,3,3v18H20.288"/>
<path style="fill:none;stroke:#18193F;stroke-width:3;stroke-linecap:round;stroke-linejoin:round;stroke-miterlimit:10;" d="M34,40
	c1.933,0,3.5,1.567,3.5,3.5v2c0,0.552-0.448,1-1,1h-5c-0.552,0-1-0.448-1-1v-2c0-0.084,0.003-0.167,0.009-0.25"/>
<path style="fill:none;stroke:#18193F;stroke-width:3;stroke-linecap:round;stroke-linejoin:round;stroke-miterlimit:10;" d="M22,34
	c1.657,0,3,1.343,3,3s-1.343,3-3,3s-3-1.343-3-3"/>
<path style="fill:none;stroke:#18193F;stroke-width:3;stroke-linecap:round;stroke-linejoin:round;stroke-miterlimit:10;" d="
	M24.5,46.5h-5c-0.552,0-1-0.448-1-1v-2c0-1.933,1.567-3.5,3.5-3.5h0c1.933,0,3.5,1.567,3.5,3.5v2C25.5,46.052,25.052,46.5,24.5,46.5
	z"/>
<line style="fill:none;stroke:#18193F;stroke-width:3;stroke-linecap:round;stroke-linejoin:round;stroke-miterlimit:10;" x1="5.5" y1="30.5" x2="5.5" y2="42.5"/>
<line style="fill:none;stroke:#18193F;stroke-width:3;stroke-linecap:round;stroke-linejoin:round;stroke-miterlimit:10;" x1="13.5" y1="30.5" x2="13.5" y2="42.5"/>
</svg>