<svg xmlns="http://www.w3.org/2000/svg" xmlns:xlink="http://www.w3.org/1999/xlink" version="1.1" x="0px" y="0px" viewBox="0 0 100 125" style="enable-background:new 0 0 100 100;" xml:space="preserve"><path d="M94.31,89.37l-7.54-13.84l4.47,2.96c0.17,0.11,0.36,0.17,0.55,0.17c0.32,0,0.64-0.16,0.83-0.45  c0.3-0.46,0.18-1.08-0.28-1.39l-7.62-5.05L67.28,39.74l25.06-16.6c0.46-0.31,0.59-0.93,0.28-1.39c-0.31-0.46-0.93-0.59-1.39-0.28  l-24.92,16.5L50.88,9.63c-0.35-0.64-1.41-0.64-1.76,0L33.68,37.98L8.76,21.48c-0.46-0.3-1.08-0.18-1.39,0.28  c-0.3,0.46-0.18,1.08,0.28,1.39l25.06,16.6L15.28,71.77l-7.62,5.05c-0.46,0.31-0.59,0.93-0.28,1.39c0.19,0.29,0.51,0.45,0.83,0.45  c0.19,0,0.38-0.05,0.55-0.17l4.47-2.96L5.69,89.37c-0.17,0.31-0.16,0.69,0.02,0.99s0.51,0.49,0.86,0.49h86.85  c0.35,0,0.68-0.19,0.86-0.49S94.47,89.68,94.31,89.37z M81.16,69.41L51.81,49.98l13.79-9.13L81.16,69.41z M50,12.2l14.64,26.88  L50,48.78l-14.64-9.69L50,12.2z M34.4,40.85l13.79,9.13L18.84,69.41L34.4,40.85z M8.26,88.85l8.54-15.68L50,51.18l33.2,21.99  l8.54,15.68H8.26z"/><text x="0" y="115" fill="#000000" font-size="5px" font-weight="bold" font-family="'Helvetica Neue', Helvetica, Arial-Unicode, Arial, Sans-serif">Created by Visual Glow</text><text x="0" y="120" fill="#000000" font-size="5px" font-weight="bold" font-family="'Helvetica Neue', Helvetica, Arial-Unicode, Arial, Sans-serif">from the Noun Project</text></svg>