<svg xmlns="http://www.w3.org/2000/svg" xmlns:xlink="http://www.w3.org/1999/xlink" version="1.1" x="0px" y="0px" viewBox="0 0 100 125" style="enable-background:new 0 0 100 100;" xml:space="preserve"><path d="M93.86,20.98c-0.54-0.11-1.07,0.23-1.19,0.77l-2.39,11.03c-3.89,2.01-7.11,0.67-10.82-0.9c-2.68-1.13-5.71-2.4-9.24-2.4  c-4.21,0-7.32,1.56-10.32,3.08c-3.03,1.52-5.89,2.97-9.9,2.97c-3.69,0-6.64-1.43-9.75-2.94c-3.15-1.53-6.4-3.1-10.47-3.1  c-3.61,0-6.72,1.45-9.46,2.72c-3.91,1.82-7.02,3.26-10.59,0.64l-2.4-11.09c-0.12-0.54-0.65-0.88-1.19-0.77  c-0.54,0.12-0.88,0.65-0.77,1.19L17.5,78.25c0.1,0.46,0.51,0.79,0.98,0.79h63.04c0.47,0,0.88-0.33,0.98-0.79l12.13-56.08  C94.75,21.63,94.4,21.1,93.86,20.98z M80.71,77.04H19.29L10.3,35.5c3.84,1.77,7.4,0.13,10.86-1.48c2.68-1.25,5.45-2.54,8.62-2.54  c3.61,0,6.51,1.41,9.59,2.9c3.18,1.54,6.47,3.14,10.63,3.14c4.49,0,7.7-1.62,10.8-3.18c2.92-1.47,5.69-2.86,9.42-2.86  c3.13,0,5.85,1.14,8.47,2.25c3.44,1.45,6.98,2.94,11.07,1.47L80.71,77.04z"/><text x="0" y="115" fill="#000000" font-size="5px" font-weight="bold" font-family="'Helvetica Neue', Helvetica, Arial-Unicode, Arial, Sans-serif">Created by Visual Glow</text><text x="0" y="120" fill="#000000" font-size="5px" font-weight="bold" font-family="'Helvetica Neue', Helvetica, Arial-Unicode, Arial, Sans-serif">from the Noun Project</text></svg>