<svg xmlns="http://www.w3.org/2000/svg" xmlns:xlink="http://www.w3.org/1999/xlink" version="1.1" x="0px" y="0px" viewBox="0 0 100 125" style="enable-background:new 0 0 100 100;" xml:space="preserve"><path d="M93.87,77.85l-9.8-6.49c8.23-13.11,8.09-29.8,0-42.72l9.8-6.49c0.46-0.31,0.59-0.93,0.28-1.39  c-0.31-0.46-0.93-0.59-1.39-0.28l-9.8,6.49c-1.73-2.48-3.75-4.8-6.1-6.9C60.37,5.26,34.89,6.63,20.07,23.13  c-1.11,1.23-2.11,2.52-3.04,3.84l-9.8-6.49c-0.46-0.31-1.08-0.18-1.39,0.28c-0.3,0.46-0.18,1.08,0.28,1.39l9.8,6.49  c-8.23,13.11-8.09,29.8,0,42.72l-9.8,6.49c-0.46,0.31-0.59,0.93-0.28,1.39c0.19,0.29,0.51,0.45,0.83,0.45  c0.19,0,0.38-0.05,0.55-0.17l9.8-6.49c1.73,2.48,3.75,4.8,6.1,6.9C30.8,86.81,40.41,90.2,49.98,90.2c11.03,0,22.02-4.5,29.95-13.33  c1.11-1.23,2.11-2.52,3.04-3.84l9.8,6.49c0.17,0.11,0.36,0.17,0.55,0.17c0.32,0,0.64-0.16,0.83-0.45  C94.46,78.78,94.33,78.16,93.87,77.85z M82.4,70.25L51.81,50L82.4,29.75C90.06,42.01,90.18,57.82,82.4,70.25z M21.56,24.47  C29.1,16.07,39.54,11.8,50.02,11.8c9.1,0,18.23,3.22,25.51,9.76c2.21,1.99,4.13,4.18,5.76,6.52L50,48.8l-31.3-20.72  C19.58,26.83,20.52,25.63,21.56,24.47z M17.6,29.75L48.19,50L17.6,70.25C9.94,57.99,9.82,42.18,17.6,29.75z M78.44,75.53  c-14.08,15.68-38.29,16.98-53.97,2.9c-2.21-1.99-4.13-4.18-5.76-6.52L50,51.2l31.3,20.72C80.42,73.17,79.48,74.37,78.44,75.53z"/><text x="0" y="115" fill="#000000" font-size="5px" font-weight="bold" font-family="'Helvetica Neue', Helvetica, Arial-Unicode, Arial, Sans-serif">Created by Visual Glow</text><text x="0" y="120" fill="#000000" font-size="5px" font-weight="bold" font-family="'Helvetica Neue', Helvetica, Arial-Unicode, Arial, Sans-serif">from the Noun Project</text></svg>