<svg xmlns="http://www.w3.org/2000/svg" xmlns:xlink="http://www.w3.org/1999/xlink" version="1.1" x="0px" y="0px" viewBox="0 0 100 125" style="enable-background:new 0 0 100 100;" xml:space="preserve"><g><path d="M50,89.19c21.61,0,39.19-17.58,39.19-39.19S71.61,10.81,50,10.81S10.81,28.39,10.81,50S28.39,89.19,50,89.19z M50,12.81   c20.5,0,37.19,16.68,37.19,37.19S70.5,87.19,50,87.19S12.81,70.5,12.81,50S29.5,12.81,50,12.81z"/><path d="M92.36,6.64H7.64c-0.55,0-1,0.45-1,1v84.72c0,0.55,0.45,1,1,1h84.72c0.55,0,1-0.45,1-1V7.64   C93.36,7.09,92.91,6.64,92.36,6.64z M91.36,91.36H8.64V8.64h82.72V91.36z"/><path d="M50,55.8c3.2,0,5.8-2.6,5.8-5.8s-2.6-5.8-5.8-5.8s-5.8,2.6-5.8,5.8S46.8,55.8,50,55.8z M50,46.2c2.1,0,3.8,1.7,3.8,3.8   s-1.7,3.8-3.8,3.8s-3.8-1.7-3.8-3.8S47.9,46.2,50,46.2z"/></g><text x="0" y="115" fill="#000000" font-size="5px" font-weight="bold" font-family="'Helvetica Neue', Helvetica, Arial-Unicode, Arial, Sans-serif">Created by Visual Glow</text><text x="0" y="120" fill="#000000" font-size="5px" font-weight="bold" font-family="'Helvetica Neue', Helvetica, Arial-Unicode, Arial, Sans-serif">from the Noun Project</text></svg>