<?xml version="1.0" encoding="iso-8859-1"?>
<!-- Generator: Adobe Illustrator 23.0.3, SVG Export Plug-In . SVG Version: 6.00 Build 0)  -->
<svg version="1.1" id="Layer_1" xmlns="http://www.w3.org/2000/svg" xmlns:xlink="http://www.w3.org/1999/xlink" x="0px" y="0px"
	 viewBox="0 0 48 48" style="enable-background:new 0 0 48 48;" xml:space="preserve">
<circle style="fill:#FFE082;" cx="22" cy="18" r="8"/>
<path style="fill:#FFE082;" d="M36.999,37.308c0,12.923-29.998,12.923-29.998,0v-1.077C7.001,34.446,8.39,33,10.104,33h23.793
	C35.611,33,37,34.446,37,36.231v1.077H36.999z"/>
<path style="fill:none;stroke:#18193F;stroke-width:3;stroke-linecap:round;stroke-linejoin:round;" d="M33.5,18.5l-4.445,2.964
	C28.39,21.907,27.5,21.43,27.5,20.631V8.5c0-1.657,1.343-3,3-3h11c1.657,0,3,1.343,3,3v7c0,1.657-1.343,3-3,3h-3"/>
<path style="fill:none;stroke:#18193F;stroke-width:3;stroke-linecap:round;stroke-linejoin:round;stroke-miterlimit:5;" d="
	M21.416,21.786C20.371,22.245,19.215,22.5,18,22.5c-4.694,0-8.5-3.806-8.5-8.5s3.806-8.5,8.5-8.5c1.746,0,3.369,0.526,4.719,1.429"
	/>
<path style="fill:none;stroke:#18193F;stroke-width:3;stroke-linecap:round;stroke-linejoin:round;" d="M18.001,42.5
	c-7.25,0-14.501-3-14.501-9v-1c0-1.657,1.343-3,3-3h1.926"/>
<path style="fill:none;stroke:#18193F;stroke-width:3;stroke-linecap:round;stroke-linejoin:round;" d="M13.404,29.5h16.097
	c1.657,0,3,1.343,3,3v1H32.5c0,4.156-3.479,6.873-8.026,8.15"/>
</svg>