<?xml version="1.0" encoding="iso-8859-1"?>
<!-- Generator: Adobe Illustrator 23.0.3, SVG Export Plug-In . SVG Version: 6.00 Build 0)  -->
<svg version="1.1" id="Layer_1" xmlns="http://www.w3.org/2000/svg" xmlns:xlink="http://www.w3.org/1999/xlink" x="0px" y="0px"
	 viewBox="0 0 48 48" style="enable-background:new 0 0 48 48;" xml:space="preserve">
<path style="fill:#8CE7F2;" d="M37.865,11.064C38.074,11.034,38.282,11,38.5,11H14c-2.209,0-4,1.791-4,4v1c0,0.552,0.448,1,1,1h3
	v26.138C14,44.719,15.281,46,16.862,46h22.276C40.719,46,42,44.719,42,43.138V15.77C42,13.353,40.196,11.377,37.865,11.064z"/>
<line style="fill:none;stroke:#18193F;stroke-width:3;stroke-linecap:round;stroke-linejoin:round;stroke-miterlimit:10;" x1="9.5" y1="16.681" x2="9.5" y2="11.957"/>
<path style="fill:none;stroke:#18193F;stroke-width:3;stroke-linejoin:round;stroke-miterlimit:10;" d="M23.468,42.5H12.5
	c-0.414,0-0.809-0.084-1.168-0.236"/>
<path style="fill:none;stroke:#18193F;stroke-width:3;stroke-linecap:round;stroke-linejoin:round;stroke-miterlimit:10;" d="
	M38.5,34.068V39.5c0,1.657-1.343,3-3,3h-3.011"/>
<path style="fill:none;stroke:#18193F;stroke-width:3;stroke-linecap:round;stroke-linejoin:round;stroke-miterlimit:10;" d="
	M33.5,5.5c2.761,0,5,2.239,5,5v14.415"/>
<g>
	<path style="fill:none;stroke:#18193F;stroke-width:3;stroke-linecap:round;stroke-linejoin:round;stroke-miterlimit:10;" d="
		M24.574,5.5H9.5c-2.209,0-4,1.791-4,4v1c0,0.552,0.448,1,1,1h22c0.552,0,1-0.448,1-1V10c0-2.485,2.015-4.5,4.5-4.5"/>
</g>
<line style="fill:none;stroke:#18193F;stroke-width:3;stroke-linecap:round;stroke-linejoin:round;stroke-miterlimit:10;" x1="31" y1="17.5" x2="17" y2="17.5"/>
<path style="fill:none;stroke:#18193F;stroke-width:3;stroke-linecap:round;stroke-linejoin:round;stroke-miterlimit:10;" d="
	M5.245,33l0.01-0.675l0-5.92c0-1.98,1.556-3.536,3.536-3.536l0,0c1.98,0,3.536,1.556,3.536,3.536v5.495l-0.071,5.869v1.838
	c0,0.283-0.071,0.495-0.141,0.707l-2.687,4.525c-0.283,0.566-1.131,0.566-1.414,0l-2.687-4.525
	c-0.071-0.212-0.141-0.424-0.141-0.707l0-1.109"/>
<line style="fill:none;stroke:#18193F;stroke-width:3;stroke-linecap:round;stroke-linejoin:round;stroke-miterlimit:10;" x1="5.609" y1="29.164" x2="12.256" y2="29.164"/>
<line style="fill:none;stroke:#18193F;stroke-width:3;stroke-linecap:round;stroke-linejoin:round;stroke-miterlimit:10;" x1="31" y1="23.5" x2="17" y2="23.5"/>
<line style="fill:none;stroke:#18193F;stroke-width:3;stroke-linecap:round;stroke-linejoin:round;stroke-miterlimit:10;" x1="23.574" y1="29.5" x2="17" y2="29.5"/>
<path style="fill:none;stroke:#18193F;stroke-width:3;stroke-linecap:round;stroke-linejoin:round;stroke-miterlimit:10;" d="
	M24,37.266V43.5c0,0.535,0.285,1.029,0.747,1.297c0.463,0.269,1.033,0.271,1.497,0.005L28,43.799l1.756,1.003
	C29.986,44.934,30.243,45,30.5,45c0.26,0,0.52-0.067,0.753-0.203C31.715,44.529,32,44.035,32,43.5v-6.234"/>
<circle style="fill:none;stroke:#18193F;stroke-width:3;stroke-linecap:round;stroke-linejoin:round;stroke-miterlimit:10;" cx="28" cy="33" r="5.5"/>
</svg>