<?xml version="1.0" encoding="iso-8859-1"?>
<!-- Generator: Adobe Illustrator 23.0.3, SVG Export Plug-In . SVG Version: 6.00 Build 0)  -->
<svg version="1.1" id="Layer_1" xmlns="http://www.w3.org/2000/svg" xmlns:xlink="http://www.w3.org/1999/xlink" x="0px" y="0px"
	 viewBox="0 0 48 48" style="enable-background:new 0 0 48 48;" xml:space="preserve">
<path style="fill:#FFE082;" d="M17.415,19.663c-0.313-0.851-1.517-0.851-1.83,0L9.242,36.879c-0.139,0.376-0.218,0.777-0.184,1.177
	c0.285,3.364,2.914,6.861,7.442,6.861s7.157-3.497,7.442-6.861c0.034-0.4-0.046-0.801-0.184-1.177L17.415,19.663z"/>
<path style="fill:#FFE082;" d="M40.415,19.663c-0.313-0.851-1.517-0.851-1.83,0l-6.343,17.216c-0.139,0.376-0.218,0.777-0.184,1.177
	c0.285,3.364,2.914,6.861,7.442,6.861s7.157-3.497,7.442-6.861c0.034-0.4-0.046-0.801-0.184-1.177L40.415,19.663z"/>
<line style="fill:none;stroke:#18193F;stroke-width:3;stroke-linecap:round;stroke-linejoin:round;" x1="28.5" y1="33.5" x2="42.5" y2="33.5"/>
<circle style="fill:none;stroke:#18193F;stroke-width:3;stroke-linecap:round;stroke-linejoin:round;" cx="24" cy="14.5" r="3"/>
<line style="fill:none;stroke:#18193F;stroke-width:3;stroke-linecap:round;stroke-linejoin:round;" x1="24" y1="11.5" x2="24" y2="7.5"/>
<line style="fill:none;stroke:#18193F;stroke-width:3;stroke-linecap:round;stroke-linejoin:round;" x1="27" y1="14.5" x2="35.5" y2="14.5"/>
<line style="fill:none;stroke:#18193F;stroke-width:3;stroke-linecap:round;stroke-linejoin:round;" x1="12.5" y1="14.5" x2="21" y2="14.5"/>
<path style="fill:none;stroke:#18193F;stroke-width:3;stroke-linecap:round;stroke-linejoin:round;" d="M31.635,39.389
	C29.593,38.045,28.5,35.691,28.5,33.5l7-19l5.616,15.243"/>
<path style="fill:none;stroke:#18193F;stroke-width:3;stroke-linecap:round;stroke-linejoin:round;" d="M42.5,33.5
	c0,3.314-2.5,7-7,7"/>
<line style="fill:none;stroke:#18193F;stroke-width:3;stroke-linecap:round;stroke-linejoin:round;" x1="5.5" y1="33.5" x2="19.5" y2="33.5"/>
<path style="fill:none;stroke:#18193F;stroke-width:3;stroke-linecap:round;stroke-linejoin:round;" d="M9.669,22.183L12.5,14.5
	l7,19c0,1.219-0.339,2.489-0.991,3.607"/>
<path style="fill:none;stroke:#18193F;stroke-width:3;stroke-linecap:round;stroke-linejoin:round;" d="M13.43,40.445
	c-0.3,0.036-0.61,0.055-0.93,0.055c-4.5,0-7-3.686-7-7l2.333-6.332"/>
</svg>