<?xml version="1.0" encoding="iso-8859-1"?>
<!-- Generator: Adobe Illustrator 23.0.3, SVG Export Plug-In . SVG Version: 6.00 Build 0)  -->
<svg version="1.1" id="Layer_1" xmlns="http://www.w3.org/2000/svg" xmlns:xlink="http://www.w3.org/1999/xlink" x="0px" y="0px"
	 viewBox="0 0 48 48" style="enable-background:new 0 0 48 48;" xml:space="preserve">
<path style="fill:#FFAB91;" d="M26.81,47.777c0.694,0.298,1.587,0.298,2.38,0c13.289-6.049,15.768-15.57,15.768-21.421v-9.124
	c0-1.488-1.091-2.678-2.578-2.876c-5.653-0.694-10.314-3.57-12.694-5.256c-0.992-0.694-2.38-0.694-3.372,0
	c-2.38,1.686-7.041,4.562-12.694,5.256c-1.488,0.198-2.578,1.388-2.578,2.876v9.124C11.042,32.207,13.521,41.727,26.81,47.777z"/>
<path style="fill:none;stroke:#18193F;stroke-width:3;stroke-linecap:round;stroke-linejoin:round;stroke-miterlimit:10;" d="
	M14.912,39.774c2.089,1.746,4.674,3.391,7.861,4.842c0.716,0.307,1.636,0.307,2.454,0c13.702-6.238,16.258-16.054,16.258-22.087
	v-9.407c0-1.534-1.125-2.761-2.659-2.965c-1.583-0.194-3.09-0.555-4.495-1.011"/>
<path style="fill:none;stroke:#18193F;stroke-width:3;stroke-linecap:round;stroke-linejoin:round;stroke-miterlimit:10;" d="
	M28.672,6.611c-1.179-0.674-2.17-1.333-2.934-1.874c-1.023-0.716-2.454-0.716-3.477,0c-2.454,1.738-7.26,4.704-13.089,5.419
	c-1.534,0.205-2.659,1.432-2.659,2.965v9.407c0,3.226,0.731,7.534,3.506,11.798"/>
<g>
	
		<line style="fill:none;stroke:#18193F;stroke-width:3;stroke-linecap:round;stroke-miterlimit:10;" x1="30.5" y1="17.5" x2="17.5" y2="30.5"/>
	
		<line style="fill:none;stroke:#18193F;stroke-width:3;stroke-linecap:round;stroke-miterlimit:10;" x1="17.5" y1="17.5" x2="30.5" y2="30.5"/>
</g>
</svg>