<?xml version="1.0" encoding="iso-8859-1"?>
<!-- Generator: Adobe Illustrator 23.0.3, SVG Export Plug-In . SVG Version: 6.00 Build 0)  -->
<svg version="1.1" id="Layer_1" xmlns="http://www.w3.org/2000/svg" xmlns:xlink="http://www.w3.org/1999/xlink" x="0px" y="0px"
	 viewBox="0 0 48 48" style="enable-background:new 0 0 48 48;" xml:space="preserve">
<circle style="fill:#FFAB91;" cx="28" cy="28" r="16.263"/>
<path style="fill:none;stroke:#18193F;stroke-width:3;stroke-linecap:round;stroke-linejoin:round;stroke-miterlimit:10;" d="
	M14.395,39.814C9.062,36.568,5.5,30.7,5.5,24C5.5,13.783,13.783,5.5,24,5.5c0.461,0,0.919,0.017,1.372,0.05"/>
<path style="fill:none;stroke:#18193F;stroke-width:3;stroke-linecap:round;stroke-linejoin:round;stroke-miterlimit:10;" d="
	M33.496,8.12C38.89,11.352,42.5,17.254,42.5,24c0,9.881-7.747,17.953-17.499,18.473"/>
<path style="fill:none;stroke:#18193F;stroke-width:3;stroke-linecap:round;stroke-linejoin:round;stroke-miterlimit:10;" d="
	M30.043,20.5H32.5c1.105,0,2,0.895,2,2v3c0,1.105-0.895,2-2,2h-17c-1.105,0-2-0.895-2-2v-3c0-1.105,0.895-2,2-2h10.202"/>
</svg>