<svg xmlns="http://www.w3.org/2000/svg"  viewBox="0 0 48 48" width="48px" height="48px"><path fill="#ffab91" d="M14,43V13.91C14,12.3,15.3,11,16.91,11h22.17C40.7,11,42,12.3,42,13.91V43c0,1.1-0.9,2-2,2H16	C14.9,45,14,44.1,14,43z"/><circle cx="32" cy="25" r="2" fill="#18193f"/><path fill="none" stroke="#18193f" stroke-linecap="round" stroke-linejoin="round" stroke-miterlimit="10" stroke-width="3" d="M38.5,35.9v5.6"/><path fill="none" stroke="#18193f" stroke-linecap="round" stroke-linejoin="round" stroke-miterlimit="10" stroke-width="3" d="M9.5,12.72V9.5c0-1.66,1.34-3,3-3h23c1.66,0,3,1.34,3,3v19.75"/><path fill="none" stroke="#18193f" stroke-linecap="round" stroke-linejoin="round" stroke-miterlimit="10" stroke-width="3" d="M9.5,41.5V18.78"/><line x1="7.5" x2="40.5" y1="41.5" y2="41.5" fill="none" stroke="#18193f" stroke-linecap="round" stroke-linejoin="round" stroke-miterlimit="10" stroke-width="3"/></svg>