<?xml version="1.0" encoding="iso-8859-1"?>
<!-- Generator: Adobe Illustrator 23.0.3, SVG Export Plug-In . SVG Version: 6.00 Build 0)  -->
<svg version="1.1" id="Layer_1" xmlns="http://www.w3.org/2000/svg" xmlns:xlink="http://www.w3.org/1999/xlink" x="0px" y="0px"
	 viewBox="0 0 48 48" style="enable-background:new 0 0 48 48;" xml:space="preserve">
<path style="fill:#A5D6A7;" d="M8,36V25.695c0-2.708,2.195-4.903,4.903-4.903h0.193c2.708,0,4.903,2.195,4.903,4.903V36
	c0,0.552-0.448,1-1,1H9C8.448,37,8,36.552,8,36z"/>
<path style="fill:#A5D6A7;" d="M37.637,39.042c-0.603,0-1.069-0.53-0.992-1.128l1.406-10.401c0.256-1.985,1.946-3.471,3.948-3.471
	l0,0c2.002,0,3.692,1.486,3.948,3.471l1.406,10.401c0.077,0.598-0.389,1.128-0.992,1.128H37.637z"/>
<path style="fill:#A5D6A7;" d="M30,40h-5c-0.552,0-1-0.448-1-1v-4.611c0-1.933,1.567-3.5,3.5-3.5h0c1.933,0,3.5,1.567,3.5,3.5V39
	C31,39.552,30.552,40,30,40z"/>
<line style="fill:none;stroke:#18193F;stroke-width:3;stroke-linecap:round;stroke-miterlimit:5;" x1="20.5" y1="41.5" x2="20.5" y2="35.556"/>
<line style="fill:none;stroke:#18193F;stroke-width:3;stroke-linecap:round;stroke-miterlimit:5;" x1="26.5" y1="41.5" x2="26.5" y2="35.556"/>
<line style="fill:none;stroke:#18193F;stroke-width:3;stroke-linecap:round;stroke-linejoin:round;stroke-miterlimit:5;" x1="12.5" y1="32.375" x2="12.5" y2="41.5"/>
<line style="fill:none;stroke:#18193F;stroke-width:3;stroke-linecap:round;stroke-linejoin:round;stroke-miterlimit:5;" x1="5.5" y1="41.5" x2="5.5" y2="32.702"/>
<line style="fill:none;stroke:#18193F;stroke-width:3;stroke-linecap:round;stroke-linejoin:round;stroke-miterlimit:5;" x1="41.5" y1="34.5" x2="41.5" y2="41.5"/>
<line style="fill:none;stroke:#18193F;stroke-width:3;stroke-linecap:round;stroke-linejoin:round;stroke-miterlimit:5;" x1="34.5" y1="41.5" x2="34.5" y2="34.766"/>
<line style="fill:none;stroke:#18193F;stroke-width:3;stroke-linecap:round;stroke-linejoin:round;stroke-miterlimit:5;" x1="32.09" y1="31.819" x2="25.245" y2="26.888"/>
<path style="fill:#18193F;" d="M46.999,13.001c0.666,0.666,0.892,1.62,0.966,2.272c0.046,0.4-0.292,0.738-0.692,0.692
	c-0.651-0.074-1.606-0.3-2.272-0.966c-0.666-0.666-0.892-1.62-0.966-2.272c-0.046-0.4,0.292-0.738,0.692-0.692
	C45.379,12.109,46.333,12.335,46.999,13.001z"/>
<path style="fill-rule:evenodd;clip-rule:evenodd;fill:none;stroke:#18193F;stroke-width:3;stroke-linecap:round;stroke-linejoin:round;stroke-miterlimit:10;" d="
	M38,7.464c1.953,0,3.536,1.583,3.536,3.536S39.953,14.536,38,14.536S34.464,12.953,34.464,11"/>
<path style="fill-rule:evenodd;clip-rule:evenodd;fill:none;stroke:#18193F;stroke-width:3;stroke-linecap:round;stroke-linejoin:round;stroke-miterlimit:10;" d="
	M37.861,7.467C37.907,7.465,37.953,7.464,38,7.464"/>
<circle style="fill-rule:evenodd;clip-rule:evenodd;fill:none;stroke:#18193F;stroke-width:3;stroke-linecap:round;stroke-linejoin:round;stroke-miterlimit:10;" cx="23.5" cy="20" r="2.5"/>
<path style="fill:none;stroke:#18193F;stroke-width:3;stroke-linecap:round;stroke-linejoin:round;stroke-miterlimit:5;" d="
	M42.726,28.724l0.629,4.648c0.077,0.598-0.389,1.128-0.992,1.128h-8.725c-0.603,0-1.069-0.53-0.992-1.128l1.406-10.401
	C34.308,20.986,35.998,19.5,38,19.5l0,0c2.002,0,3.692,1.486,3.948,3.471l0.101,0.743"/>
<path style="fill-rule:evenodd;clip-rule:evenodd;fill:none;stroke:#18193F;stroke-width:3;stroke-linecap:round;stroke-linejoin:round;stroke-miterlimit:10;" d="
	M9,13.536c-1.953,0-3.536-1.583-3.536-3.536S7.047,6.464,9,6.464S12.536,8.047,12.536,10"/>
<path style="fill:none;stroke:#18193F;stroke-width:3;stroke-linecap:round;stroke-linejoin:round;stroke-miterlimit:10;" d="
	M27,35.556h-7v-5.611c0-1.933,1.567-3.5,3.5-3.5h0c0.77,0,1.483,0.249,2.061,0.671"/>
<line style="fill:none;stroke:#18193F;stroke-width:3;stroke-linecap:round;stroke-linejoin:round;stroke-miterlimit:5;" x1="14.021" y1="31.819" x2="21.415" y2="27.064"/>
<path style="fill:none;stroke:#18193F;stroke-width:3;stroke-linecap:round;stroke-linejoin:round;stroke-miterlimit:5;" d="
	M13.5,29.032v3.343"/>
<path style="fill:none;stroke:#18193F;stroke-width:3;stroke-linecap:round;stroke-linejoin:round;stroke-miterlimit:5;" d="
	M13.5,32.375h-9V22c0-2.485,2.015-4.5,4.5-4.5h0c2.485,0,4.5,2.015,4.5,4.5v2.362"/>
</svg>