<?xml version="1.0" encoding="utf-8"?>
<!-- Generator: Adobe Illustrator 23.0.3, SVG Export Plug-In . SVG Version: 6.00 Build 0)  -->
<svg version="1.1" id="Layer_1" xmlns="http://www.w3.org/2000/svg" xmlns:xlink="http://www.w3.org/1999/xlink" x="0px" y="0px"
	 viewBox="0 0 48 48" style="enable-background:new 0 0 48 48;" xml:space="preserve">
<style type="text/css">
	.st0{fill:#FFAB91;}
	.st1{fill:#FFE082;}
	.st2{fill:none;stroke:#000000;stroke-width:3;stroke-linecap:round;stroke-linejoin:round;}
	.st3{fill:none;stroke:#000000;stroke-width:3;stroke-linecap:round;stroke-linejoin:round;stroke-miterlimit:10;}
	.st4{fill:#90CAF9;}
	.st5{fill:none;stroke:#000000;stroke-width:2;stroke-linecap:round;stroke-linejoin:round;}
	.st6{fill:none;stroke:#000000;stroke-width:3;stroke-linecap:round;stroke-linejoin:round;stroke-miterlimit:20;}
	.st7{fill:none;stroke:#000000;stroke-width:3;stroke-linecap:round;stroke-miterlimit:10;}
	.st8{fill:none;stroke:#000000;stroke-width:3;}
	.st9{fill:none;stroke:#000000;stroke-width:3;stroke-miterlimit:10;}
	.st10{fill:none;stroke:#000000;stroke-width:3;stroke-miterlimit:20;}
	.st11{fill:none;stroke:#000000;stroke-width:3;stroke-linecap:round;}
	.st12{fill:none;stroke:#000000;stroke-width:3;stroke-linejoin:round;}
	.st13{fill:#8CE7F2;}
	.st14{fill:#9FA8DA;}
	.st15{fill:#A5D6A7;}
	.st16{fill:#F48FB1;}
	.st17{fill:#999999;}
	.st18{fill:none;stroke:#18193F;stroke-width:3;stroke-linecap:round;stroke-linejoin:round;}
	.st19{fill:#18193F;}
	.st20{fill:none;stroke:#18193F;stroke-width:3;stroke-linecap:round;stroke-linejoin:round;stroke-miterlimit:10;}
	.st21{fill:none;stroke:#18193F;stroke-width:2;stroke-linecap:round;stroke-linejoin:round;}
	.st22{fill:none;stroke:#18193F;stroke-width:3;stroke-linecap:round;stroke-linejoin:round;stroke-miterlimit:20;}
	.st23{fill:none;stroke:#18193F;stroke-width:3;stroke-linecap:round;stroke-miterlimit:10;}
	.st24{fill:none;stroke:#18193F;stroke-width:3;}
	.st25{fill:none;stroke:#18193F;stroke-width:3;stroke-miterlimit:10;}
	.st26{fill:none;stroke:#18193F;stroke-width:3;stroke-miterlimit:20;}
	.st27{fill:none;stroke:#18193F;stroke-width:3;stroke-linecap:round;}
	.st28{fill:none;stroke:#18193F;stroke-width:3;stroke-linejoin:round;}
</style>
<path class="st16" d="M40.7,24l-3.6-0.4L34,19.9C31.2,16,27.8,16,26,16c0,0-3.5,0-6.9,0c-6.9,0-10.5,8.8-10.5,8.8l0,0
	c0,0-4.6,3.1-4.6,7.9c0,2.6,1.6,3.3,3,3.4l0,0h1.8c0,0.2-0.1,0.4-0.1,0.6C8.7,39,10.7,41,13,41s4.3-1.9,4.3-4.3c0-0.2,0-0.4-0.1-0.6
	h18.1c0,0.2-0.1,0.4-0.1,0.6c0,2.4,1.9,4.3,4.3,4.3S44,39,44,36.6c0-0.3,0-0.5-0.1-0.8L44,36h2c1.1,0,2-0.9,2-2v-2
	C48,27.8,44.8,24.4,40.7,24z"/>
<path class="st18" d="M41.4,34.8c0.4-0.6,0.6-1.4,0.6-2.1c0-2.4-1.9-4.3-4.3-4.3s-4.3,1.9-4.3,4.3c0,2.1,1.5,3.8,3.4,4.2"/>
<path class="st18" d="M8.1,29.4c-0.9,0.8-1.4,1.9-1.4,3.2C6.7,35,8.7,37,11,37s4.3-1.9,4.3-4.3c0-1.5-0.7-2.7-1.8-3.5"/>
<line class="st18" x1="32.5" y1="32.5" x2="21.4" y2="32.5"/>
<path class="st18" d="M18.6,11.5c-0.9,0-0.5,0-1.5,0c-6.9,0-10.4,8.7-10.4,8.7"/>
<path class="st18" d="M36.1,20.2L32,15.3c-2.8-3.9-6.2-3.9-8-3.9"/>
<path class="st18" d="M6.7,32.4c0,0-5.2,1.7-5.2-3.4s4.7-8.5,4.7-8.5h22.9"/>
<line class="st18" x1="18.6" y1="11.8" x2="18.6" y2="16"/>
<path class="st18" d="M36.1,20.2l3.1,0.3c4.1,0.4,7.3,3.9,7.3,8v2c0,1.1-0.9,2-2,2h-2.2"/>
</svg>