<?xml version="1.0" encoding="iso-8859-1"?>
<!-- Generator: Adobe Illustrator 23.0.3, SVG Export Plug-In . SVG Version: 6.00 Build 0)  -->
<svg version="1.1" id="Layer_1" xmlns="http://www.w3.org/2000/svg" xmlns:xlink="http://www.w3.org/1999/xlink" x="0px" y="0px"
	 viewBox="0 0 48 48" style="enable-background:new 0 0 48 48;" xml:space="preserve">
<path style="fill:#F48FB1;" d="M43.362,25.002c-0.515-0.935-0.515-2.069,0-3.003l0.246-0.448c0.805-1.464,0.314-3.303-1.117-4.168
	l-0.438-0.265c-0.913-0.554-1.479-1.534-1.502-2.601l-0.011-0.512c-0.034-1.67-1.38-3.016-3.05-3.05l-0.512-0.011
	c-1.068-0.022-2.049-0.59-2.601-1.502l-0.265-0.438c-0.865-1.43-2.704-1.922-4.168-1.117l-0.448,0.246
	c-0.934,0.515-2.068,0.515-3.003,0l-0.447-0.245c-1.464-0.805-3.302-0.313-4.167,1.117l-0.265,0.437
	c-0.553,0.913-1.534,1.48-2.6,1.503l-0.512,0.011c-1.671,0.034-3.017,1.38-3.051,3.05l-0.011,0.512
	c-0.022,1.068-0.589,2.049-1.502,2.601L13.5,17.384c-1.429,0.865-1.922,2.704-1.117,4.168L12.63,22c0.514,0.934,0.514,2.068,0,3.003
	l-0.246,0.447c-0.805,1.463-0.313,3.302,1.117,4.167l0.438,0.266c0.913,0.553,1.479,1.534,1.502,2.6l0.011,0.512
	c0.034,1.671,1.38,3.017,3.051,3.051l0.511,0.011c1.068,0.022,2.049,0.589,2.601,1.502l0.265,0.438
	c0.865,1.428,2.704,1.922,4.168,1.117l0.448-0.247c0.934-0.515,2.069-0.515,3.003,0l0.448,0.247
	c1.464,0.805,3.303,0.313,4.168-1.117l0.265-0.438c0.553-0.913,1.534-1.479,2.601-1.502l0.512-0.011
	c1.67-0.034,3.016-1.38,3.05-3.051l0.011-0.512c0.022-1.067,0.589-2.049,1.502-2.6l0.438-0.266c1.429-0.865,1.922-2.704,1.117-4.167
	L43.362,25.002z"/>
<path style="fill:none;stroke:#18193F;stroke-width:3;stroke-linecap:round;stroke-linejoin:round;stroke-miterlimit:10;" d="
	M38.494,25.617c1.429-0.865,1.922-2.704,1.117-4.167l-0.249-0.448c-0.515-0.935-0.515-2.069,0-3.003l0.246-0.448
	c0.805-1.464,0.314-3.303-1.117-4.168l-0.438-0.265c-0.913-0.554-1.479-1.534-1.502-2.601l-0.011-0.512
	c-0.034-1.67-1.38-3.016-3.05-3.05l-0.512-0.011c-1.068-0.022-2.049-0.59-2.601-1.502l-0.265-0.438
	c-0.865-1.43-2.704-1.922-4.168-1.117l-0.448,0.246c-0.934,0.515-2.068,0.515-3.003,0l-0.447-0.245
	c-0.732-0.402-1.557-0.481-2.308-0.28"/>
<path style="fill:none;stroke:#18193F;stroke-width:3;stroke-linecap:round;stroke-linejoin:round;stroke-miterlimit:10;" d="
	M15.014,6.945l-0.512,0.011c-1.671,0.034-3.017,1.38-3.051,3.05l-0.011,0.512c-0.022,1.068-0.589,2.049-1.502,2.601L9.5,13.384
	c-1.429,0.865-1.922,2.704-1.117,4.168L8.63,18c0.514,0.934,0.514,2.068,0,3.003L8.384,21.45c-0.805,1.463-0.313,3.302,1.117,4.167
	l0.438,0.266c0.913,0.553,1.479,1.534,1.502,2.6l0.011,0.512c0.034,1.671,1.38,3.017,3.051,3.051l0.511,0.011
	c1.068,0.022,2.049,0.589,2.601,1.502l0.265,0.438c0.865,1.428,2.704,1.922,4.168,1.117l0.448-0.247
	c0.934-0.515,2.069-0.515,3.003,0l0.448,0.247c1.464,0.805,3.303,0.313,4.168-1.117l0.265-0.438
	c0.553-0.913,1.534-1.479,2.601-1.502l0.512-0.011c1.596-0.032,2.896-1.263,3.038-2.83"/>
<path style="fill:#18193F;" d="M24.497,26.5c-0.829,0-1.5-0.671-1.5-1.5v-8.919l-1.026,0.342c-0.784,0.265-1.635-0.163-1.897-0.949
	s0.163-1.635,0.949-1.897l3-1c0.456-0.153,0.959-0.076,1.351,0.206c0.391,0.282,0.623,0.735,0.623,1.217v11
	C25.997,25.829,25.326,26.5,24.497,26.5"/>
<path style="fill:none;stroke:#18193F;stroke-width:3;stroke-linecap:round;stroke-linejoin:round;stroke-miterlimit:10;" d="
	M31.5,12.888c1.554,1.762,2.497,4.077,2.497,6.612c0,5.523-4.477,10-10,10s-10-4.477-10-10s4.477-10,10-10
	c0.453,0,0.9,0.03,1.337,0.089"/>
<g>
	<path style="fill:none;stroke:#18193F;stroke-width:3;stroke-linecap:round;stroke-linejoin:round;stroke-miterlimit:10;" d="
		M13.039,31.976l-3.687,6.136c-0.367,0.61,0.004,1.397,0.707,1.504l4.456,0.675l2.346,4.057c0.384,0.663,1.34,0.666,1.728,0.006
		l1.961-3.338"/>
	<path style="fill:none;stroke:#18193F;stroke-width:3;stroke-linecap:round;stroke-linejoin:round;stroke-miterlimit:10;" d="
		M26.507,39.413l2.903,4.941c0.388,0.661,1.344,0.658,1.728-0.006l2.346-4.057l4.456-0.675c0.704-0.107,1.074-0.894,0.707-1.504
		l-3.687-6.136"/>
</g>
</svg>