<?xml version="1.0" encoding="utf-8"?>
<!-- Generator: Adobe Illustrator 23.0.3, SVG Export Plug-In . SVG Version: 6.00 Build 0)  -->
<svg version="1.1" id="Layer_1" xmlns="http://www.w3.org/2000/svg" xmlns:xlink="http://www.w3.org/1999/xlink" x="0px" y="0px"
	 viewBox="0 0 48 48" style="enable-background:new 0 0 48 48;" xml:space="preserve">
<style type="text/css">
	.st0{fill:none;stroke:#000000;stroke-width:3;stroke-linecap:round;stroke-linejoin:round;stroke-miterlimit:10;}
	.st1{fill:none;stroke:#000000;stroke-width:3;stroke-linecap:round;stroke-linejoin:round;}
	.st2{fill:#9FA8DA;}
	.st3{fill:none;stroke:#000000;stroke-width:3;stroke-linecap:round;stroke-miterlimit:10;}
	.st4{fill:none;stroke:#000000;stroke-width:3;stroke-linejoin:round;stroke-miterlimit:10;}
	.st5{fill:none;stroke:#000000;stroke-width:3;stroke-miterlimit:10;}
	
		.st6{fill-rule:evenodd;clip-rule:evenodd;fill:none;stroke:#000000;stroke-width:3;stroke-linecap:round;stroke-linejoin:round;stroke-miterlimit:10;}
	
		.st7{fill-rule:evenodd;clip-rule:evenodd;fill:#FFFFFF;stroke:#000000;stroke-width:3;stroke-linecap:round;stroke-linejoin:round;stroke-miterlimit:10;}
	.st8{fill:#FFAB91;}
	.st9{fill:none;stroke:#18193F;stroke-width:3;stroke-linecap:round;stroke-linejoin:round;stroke-miterlimit:10;}
	.st10{fill:none;stroke:#18193F;stroke-width:3;stroke-miterlimit:10;}
	
		.st11{fill-rule:evenodd;clip-rule:evenodd;fill:none;stroke:#18193F;stroke-width:3;stroke-linecap:round;stroke-linejoin:round;stroke-miterlimit:10;}
	
		.st12{fill-rule:evenodd;clip-rule:evenodd;fill:#FFFFFF;stroke:#18193F;stroke-width:3;stroke-linecap:round;stroke-linejoin:round;stroke-miterlimit:10;}
	.st13{fill:none;stroke:#000000;stroke-width:3;stroke-linecap:round;}
	.st14{fill:#8CE7F2;}
	.st15{fill:#90CAF9;}
	.st16{fill:#A5D6A7;}
	.st17{fill:#FFE082;}
	.st18{fill:#F48FB1;}
	.st19{fill:none;stroke:#18193F;stroke-width:3;stroke-linecap:round;stroke-miterlimit:10;}
	.st20{fill:#18193F;}
	.st21{fill:none;stroke:#18193F;stroke-width:3;stroke-linejoin:round;stroke-miterlimit:10;}
	.st22{fill:none;stroke:#18193F;stroke-width:3;stroke-linecap:round;stroke-linejoin:round;}
	.st23{fill:#18193F;stroke:#18193F;stroke-miterlimit:10;}
	.st24{fill:none;stroke:#18193F;stroke-width:3;stroke-linecap:round;}
</style>
<path class="st17" d="M20.3,11.4l-4.9,17.3C15,30,16,31.3,17.3,31.3h4.5l-3.1,12.5c-0.3,1,1,1.7,1.7,0.9l18.5-19.2
	c1.2-1.3,0.3-3.4-1.4-3.4h-6.5l3.2-9.5c0.4-1.3-0.5-2.6-1.9-2.6h-9.9C21.3,10,20.5,10.6,20.3,11.4z"/>
<path class="st9" d="M27.2,29.8l9.2-9.6c0.6-0.6,0.2-1.7-0.7-1.7h-7.3c-0.7,0-1.2-0.7-0.9-1.3l3.1-9.4c0.2-0.6-0.3-1.3-0.9-1.3H17.8
	c-0.4,0-0.8,0.3-1,0.7l-0.9,3.2"/>
<path class="st9" d="M14.6,14.9l-3.2,11.3c-0.2,0.6,0.3,1.3,1,1.3h4.4c0.7,0,1.1,0.6,1,1.2l-2.8,11.1c-0.2,1,1,1.7,1.7,0.9l5.8-6.1"
	/>
</svg>