<?xml version="1.0" encoding="utf-8"?>
<!-- Generator: Adobe Illustrator 27.7.0, SVG Export Plug-In . SVG Version: 6.00 Build 0)  -->
<svg version="1.1" id="Layer_1" xmlns="http://www.w3.org/2000/svg" xmlns:xlink="http://www.w3.org/1999/xlink" x="0px" y="0px"
	 viewBox="0 0 144 144" style="enable-background:new 0 0 144 144;" xml:space="preserve">
<style type="text/css">
	.st0{fill:#E24280;}
	.st1{fill:none;stroke:#18193F;stroke-width:9;stroke-linecap:round;stroke-linejoin:round;stroke-miterlimit:12;}
</style>
<path class="st0" d="M111,126H97.2v-12.3H93V63c0-1.8-1.2-3-3-3H60c-1.8,0-3,1.2-3,3v9c0,1.8,1.2,3,3,3h12v51H60c-1.8,0-3,1.2-3,3v9
	c0,1.8,1.2,3,3,3h51c1.8,0,3-1.2,3-3v-9C114,127.2,112.8,126,111,126z"/>
<circle class="st0" cx="82.8" cy="35.7" r="11.7"/>
<path class="st1" d="M70.8,12c-6.6,0-11.7,5.4-11.7,11.7s5.4,11.7,11.7,11.7S82.5,30,82.5,23.7S77.1,12,70.8,12"/>
<path class="st1" d="M86.1,127.5h11.4c1.8,0,3-1.2,3-3v-9c0-1.8-1.2-3-3-3h-15v-42v-18c0-1.8-1.2-3-3-3h-30c-1.8,0-3,1.2-3,3v9
	c0,1.8,1.2,3,3,3h12"/>
<path class="st1" d="M61.5,79.2v33.3h-12c-1.8,0-3,1.2-3,3v9c0,1.8,1.2,3,3,3H72"/>
</svg>
