<svg width="435" height="376" viewBox="0 0 435 376" fill="none" xmlns="http://www.w3.org/2000/svg">
<path d="M259.5 376L0 250L238.5 92L435 152.5L259.5 376Z" fill="#F2D1E2"/>
<path d="M138 231.5V229.5H134.586L136.255 232.478L138 231.5ZM238 231.5V233.5H241.215L239.794 230.616L238 231.5ZM221 197L219.482 220.044L240.198 209.836L221 197ZM176.745 296.522L139.745 230.522L136.255 232.478L173.255 298.478L176.745 296.522ZM138 233.5H238V229.5H138V233.5ZM239.794 230.616L230.75 212.262L227.162 214.03L236.206 232.384L239.794 230.616Z" fill="#730000"/>
<path d="M290 0V108.5L67 281V108.5L290 0Z" fill="#95CCC2" fill-opacity="0.8"/>
<path d="M173 8L161.453 28H184.547L173 8ZM175 200.5V26H171V200.5H175Z" fill="#2520FF"/>
</svg>
