<?xml version="1.0" encoding="iso-8859-1"?>
<!-- Generator: Adobe Illustrator 23.0.3, SVG Export Plug-In . SVG Version: 6.00 Build 0)  -->
<svg version="1.1" id="Layer_1" xmlns="http://www.w3.org/2000/svg" xmlns:xlink="http://www.w3.org/1999/xlink" x="0px" y="0px"
	 viewBox="0 0 48 48" style="enable-background:new 0 0 48 48;" xml:space="preserve">
<path style="fill:#90CAF9;" d="M15.879,12h24.242C42.263,12,44,13.737,44,15.879v24.242C44,42.263,42.263,44,40.121,44H15.879
	C13.737,44,12,42.263,12,40.121V15.879C12,13.737,13.737,12,15.879,12z"/>
<path style="fill:none;stroke:#18193F;stroke-width:3;stroke-linecap:round;stroke-linejoin:round;stroke-miterlimit:10;" d="
	M7.5,30.574V11.5c0-2.209,1.791-4,4-4h25c2.209,0,4,1.791,4,4v0.436"/>
<path style="fill:none;stroke:#18193F;stroke-width:3;stroke-linecap:round;stroke-linejoin:round;stroke-miterlimit:10;" d="
	M40.5,18.915V36.5c0,2.209-1.791,4-4,4h-25c-2.209,0-4-1.791-4-4v-1.16"/>
<circle style="fill:#18193F;" cx="24" cy="16" r="2"/>
<line style="fill:none;stroke:#18193F;stroke-width:3;stroke-linecap:round;stroke-miterlimit:10;" x1="24" y1="22.5" x2="24" y2="33.5"/>
</svg>