<?xml version="1.0" encoding="iso-8859-1"?>
<!-- Generator: Adobe Illustrator 23.0.3, SVG Export Plug-In . SVG Version: 6.00 Build 0)  -->
<svg version="1.1" id="Layer_1" xmlns="http://www.w3.org/2000/svg" xmlns:xlink="http://www.w3.org/1999/xlink" x="0px" y="0px"
	 viewBox="0 0 48 48" style="enable-background:new 0 0 48 48;" xml:space="preserve">
<path style="fill:#FFE082;" d="M43.143,19.447c-0.745-1.841-2.252-3.169-3.953-4.121c-0.843-0.472-1.73-0.86-2.626-1.218
	c-0.297-0.119-3.024-1.063-3.029-0.879c0.042-1.532,0.525-3.655,0.525-3.655s-3.025-0.511-6.826-0.511
	c-3.8,0-6.826,0.511-6.826,0.511s0.441,1.706,0.525,3.655c-0.603,0-1.205,0.186-1.767,0.39c-1.644,0.596-3.302,1.216-4.749,2.218
	c-1.316,0.911-2.484,2.109-3.092,3.611c-0.723,1.788-4.857,10.966-4.857,12.5v11.515c0,1.105,0.967,2,2.159,2h2.699
	c1.193,0,2.159-0.895,2.159-2v-9.515c0.503-0.762,3.062-5.592,4.249-7.843v14.713c0,1.129,0.94,2.044,2.1,2.044h14.801
	c1.16,0,2.1-0.915,2.1-2.044V26.106c1.187,2.252,3.745,7.08,4.248,7.841v9.515c0,1.105,0.967,2,2.159,2h2.699
	c1.193,0,2.159-0.895,2.159-2V31.947C48,30.413,43.866,21.235,43.143,19.447z"/>
<path style="fill:none;stroke:#18193F;stroke-width:3;stroke-linecap:round;stroke-linejoin:round;stroke-miterlimit:10;" d="
	M14.499,21.5c0,0-4.389,8.002-5,9v9c0,1.105-0.895,2-2,2H5.5c-1.105,0-2-0.895-2-2v-11c0-1.534,3.829-10.712,4.499-12.5
	c0.412-1.097,1.087-2.007,1.85-2.749 M39.145,16.326C39.089,16.199,39.04,16.09,38.999,16c-1.727-3.745-6.5-5.5-6.5-5.5
	 M32.499,21.5c0,0,5,8.041,5,9v9c0,1.105,0.895,2,2,2H41.5c1.105,0,2-0.896,2-2l-0.001-11c0-0.811-1.033-3.771-2.126-6.639"/>
<path style="fill:none;stroke:#18193F;stroke-width:3;stroke-linecap:round;stroke-linejoin:round;stroke-miterlimit:10;" d="
	M16.999,5.923c0,0,2.881-0.5,6.5-0.5s6.5,0.5,6.5,0.5 M32.078,16.241C32.304,12.912,33.499,11,33.499,11s-2.5-1.5-4-1.5
	c0.04-1.499,0.5-3.577,0.5-3.577 M22.596,38.5h7.951c1.105,0,2-0.895,2-2v-15 M16.999,5.923c0,0,0.42,1.67,0.5,3.577
	c-1.5,0-4,1.5-4,1.5s2.5,4,0.953,10.5v15c0,1.105,0.895,2,2,2h1.25"/>
<path style="fill-rule:evenodd;clip-rule:evenodd;fill:none;stroke:#18193F;stroke-width:3;stroke-linecap:round;stroke-linejoin:round;stroke-miterlimit:10;" d="
	M17.784,8.752l2.626,1.836c0.381,0.266,0.655,0.651,0.779,1.098c0.391,1.409,1.295,4.66,1.848,6.653
	c0.058,0.207,0.246,0.351,0.461,0.351s0.404-0.144,0.461-0.351c0.554-1.993,1.457-5.245,1.848-6.653"/>
</svg>