<?xml version="1.0" encoding="iso-8859-1"?>
<!-- Generator: Adobe Illustrator 27.2.0, SVG Export Plug-In . SVG Version: 6.00 Build 0)  -->
<svg version="1.1" id="Layer_1" xmlns="http://www.w3.org/2000/svg" xmlns:xlink="http://www.w3.org/1999/xlink" x="0px" y="0px"
	 viewBox="0 0 48 48" style="enable-background:new 0 0 48 48;" xml:space="preserve">
<style type="text/css">
	.st0{fill:#9FA8DA;}
	.st1{fill:none;stroke:#000000;stroke-width:3;stroke-linecap:round;stroke-linejoin:round;stroke-miterlimit:10;}
	.st2{fill:none;stroke:#000000;stroke-width:3;stroke-linecap:round;stroke-linejoin:round;stroke-miterlimit:5;}
	.st3{fill:none;stroke:#000000;stroke-width:3;stroke-linecap:round;stroke-miterlimit:10;}
	.st4{fill:none;stroke:#000000;stroke-width:3;stroke-linecap:round;stroke-linejoin:round;stroke-miterlimit:20;}
	.st5{fill:none;stroke:#000000;stroke-width:3;stroke-miterlimit:10;}
	.st6{fill:none;stroke:#000000;stroke-width:3;stroke-linecap:round;stroke-linejoin:round;}
	.st7{fill:none;stroke:#000000;stroke-width:3;stroke-linejoin:round;stroke-miterlimit:10;}
	.st8{fill:none;stroke:#000000;stroke-width:3.0001;stroke-linecap:round;stroke-linejoin:round;stroke-miterlimit:10.0003;}
	
		.st9{fill-rule:evenodd;clip-rule:evenodd;fill:none;stroke:#000000;stroke-width:3;stroke-linecap:round;stroke-linejoin:round;stroke-miterlimit:10;}
	.st10{fill:#90CAF9;}
	.st11{fill:#FFAB91;}
	.st12{fill:#F48FB1;}
	.st13{fill:#FFE082;}
	.st14{fill:#A5D6A7;}
	.st15{fill:#8CE7F2;}
	.st16{fill:none;stroke:#18193F;stroke-width:3;stroke-linecap:round;stroke-linejoin:round;stroke-miterlimit:10;}
	.st17{fill:none;stroke:#18193F;stroke-width:3;stroke-linecap:round;stroke-miterlimit:10;}
	.st18{fill:#18193F;}
	.st19{fill:none;stroke:#18193F;stroke-width:3;stroke-linecap:round;stroke-linejoin:round;stroke-miterlimit:20;}
	.st20{fill:none;stroke:#18193F;stroke-width:3;stroke-miterlimit:10;}
	.st21{fill:none;stroke:#18193F;stroke-width:3;stroke-linecap:round;stroke-linejoin:round;stroke-miterlimit:5;}
	.st22{fill:none;stroke:#18193F;stroke-width:3;stroke-linecap:round;stroke-linejoin:round;}
	.st23{fill:none;stroke:#18193F;stroke-width:3;stroke-linejoin:round;stroke-miterlimit:10;}
	.st24{fill:none;stroke:#18193F;stroke-width:3.0001;stroke-linecap:round;stroke-linejoin:round;stroke-miterlimit:10.0003;}
	
		.st25{fill-rule:evenodd;clip-rule:evenodd;fill:none;stroke:#18193F;stroke-width:3;stroke-linecap:round;stroke-linejoin:round;stroke-miterlimit:10;}
</style>
<path class="st13" d="M46,24h-6v-0.095l-30.067,2.13C8.846,26.112,8,27.101,8,28.295v1.411c0,1.194,0.846,2.183,1.933,2.26
	L40,34.095V34h6c0.552,0,1-0.448,1-1v-8C47,24.448,46.552,24,46,24z"/>
<path class="st22" d="M28.5,3.5c-1.712,0.348-3,1.936-3,3.75c0,2.071,1.703,3.435,3.75,3.75c3.25,0.5,5.25,1.5,6.25,3.5"/>
<path class="st22" d="M33.5,3.5c0,0,4,1,4,5c0,0,4,0.5,4,6"/>
<path class="st16" d="M41.5,29.5h-6v-9h6c0.552,0,1,0.448,1,1v7C42.5,29.052,42.052,29.5,41.5,29.5z"/>
<path class="st16" d="M28.006,29.016L6.393,27.619c-1.052-0.068-1.871-0.941-1.871-1.996v-1.246c0-1.054,0.819-1.928,1.871-1.996
	L35.5,20.5v9"/>
</svg>