<?xml version="1.0" encoding="utf-8"?>
<!-- Generator: Adobe Illustrator 23.0.3, SVG Export Plug-In . SVG Version: 6.00 Build 0)  -->
<svg version="1.1" id="Layer_1" xmlns="http://www.w3.org/2000/svg" xmlns:xlink="http://www.w3.org/1999/xlink" x="0px" y="0px"
	 viewBox="0 0 48 48" style="enable-background:new 0 0 48 48;" xml:space="preserve">
<style type="text/css">
	.st0{fill:#8CE7F2;}
	.st1{fill:none;stroke:#000000;stroke-width:3;stroke-linecap:round;stroke-linejoin:round;stroke-miterlimit:10;}
	.st2{fill:none;stroke:#000000;stroke-width:3;stroke-linecap:round;stroke-linejoin:round;}
	.st3{fill:none;stroke:#000000;stroke-width:3;stroke-linejoin:round;}
	.st4{fill:none;stroke:#000000;stroke-width:3;}
	.st5{fill:none;stroke:#000000;stroke-width:3;stroke-linecap:round;}
	.st6{fill:none;stroke:#000000;stroke-width:3;stroke-linecap:round;stroke-miterlimit:10;}
	.st7{fill:none;stroke:#000000;stroke-width:3;stroke-linejoin:round;stroke-miterlimit:10;}
	.st8{fill:none;stroke:#000000;stroke-width:3;stroke-linecap:round;stroke-linejoin:round;stroke-miterlimit:20;}
	.st9{fill:none;stroke:#000000;stroke-width:3;stroke-linecap:round;stroke-linejoin:round;stroke-miterlimit:10.417;}
	.st10{fill:none;stroke:#000000;stroke-width:3;stroke-miterlimit:10;}
	.st11{fill:#FFAB91;}
	.st12{fill:#FFE082;}
	.st13{fill:#9FA8DA;}
	.st14{fill:#90CAF9;}
	.st15{fill:#A5D6A7;}
	.st16{fill:#F48FB1;}
	.st17{fill:none;stroke:#18193F;stroke-width:3;stroke-linecap:round;stroke-linejoin:round;}
	.st18{fill:none;stroke:#18193F;stroke-width:3;stroke-linejoin:round;}
	.st19{fill:#18193F;}
	.st20{fill:none;stroke:#18193F;stroke-width:3;stroke-linecap:round;stroke-linejoin:round;stroke-miterlimit:10;}
	.st21{fill:none;stroke:#18193F;stroke-width:3;}
	.st22{fill:none;stroke:#18193F;stroke-width:3;stroke-linecap:round;}
	.st23{fill:none;stroke:#18193F;stroke-width:3;stroke-linecap:round;stroke-miterlimit:10;}
	.st24{fill:none;stroke:#18193F;stroke-width:3;stroke-linecap:round;stroke-linejoin:round;stroke-miterlimit:20;}
	.st25{fill:none;stroke:#18193F;stroke-width:3;stroke-linejoin:round;stroke-miterlimit:10;}
	.st26{fill:none;stroke:#18193F;stroke-width:3;stroke-linecap:round;stroke-linejoin:round;stroke-miterlimit:10.417;}
	.st27{fill:none;stroke:#18193F;stroke-width:3;stroke-miterlimit:10;}
</style>
<path class="st0" d="M47.1,35.9h-3.8V14.8c0-1-0.8-1.8-1.8-1.8H12.6c-1,0-1.8,0.8-1.8,1.8v21.1H6.9c-0.5,0-0.9,0.4-0.9,0.9v0.1
	c0,2.6,2.1,4.7,4.7,4.7h32.6c2.6,0,4.7-2.1,4.7-4.7v-0.1C48,36.3,47.6,35.9,47.1,35.9z"/>
<path class="st17" d="M41.5,22v9.5c0,1.1-0.9,2-2,2"/>
<path class="st17" d="M8.5,33.5c-1.1,0-2-0.9-2-2v-21c0-1.1,0.9-2,2-2h31c1.1,0,2,0.9,2,2v5.2"/>
<path class="st17" d="M18,33.5h27.5c0.6,0,1,0.4,1,1v0c0,2.8-2.2,5-5,5h-35c-2.8,0-5-2.2-5-5v0c0-0.6,0.4-1,1-1h8.3"/>
</svg>