<?xml version="1.0" encoding="iso-8859-1"?>
<!-- Generator: Adobe Illustrator 23.0.3, SVG Export Plug-In . SVG Version: 6.00 Build 0)  -->
<svg version="1.1" id="Layer_1" xmlns="http://www.w3.org/2000/svg" xmlns:xlink="http://www.w3.org/1999/xlink" x="0px" y="0px"
	 viewBox="0 0 48 48" style="enable-background:new 0 0 48 48;" xml:space="preserve">
<path style="fill:#8CE7F2;" d="M44.938,21.515v-5.614c0-2.129-1.742-3.871-3.871-3.871H14.934c-2.129,0-3.871,1.742-3.871,3.871
	v18.196v6.001c0,2.129,1.742,3.871,3.871,3.871h26.132c2.129,0,3.871-1.742,3.871-3.871V27.516V21.515z"/>
<path style="fill:none;stroke:#18193F;stroke-width:3;stroke-linecap:round;stroke-linejoin:round;" d="M26.404,40.5H37.5
	c2.2,0,4-1.8,4-4v-13v-6.2v-5.8c0-2.2-1.8-4-4-4H18.319"/>
<path style="fill:none;stroke:#18193F;stroke-width:3;stroke-linecap:round;stroke-linejoin:round;" d="M11.5,7.5h-1
	c-2.2,0-4,1.8-4,4v18.8v6.2c0,2.2,1.8,4,4,4H18"/>
<line style="fill:none;stroke:#18193F;stroke-width:3;stroke-linecap:round;stroke-linejoin:round;" x1="41.5" y1="17.5" x2="7" y2="17.5"/>
<circle style="fill:#18193F;" cx="36.5" cy="12.5" r="1.5"/>
<circle style="fill:#18193F;" cx="31.5" cy="12.5" r="1.5"/>
<g>
	<path style="fill:#18193F;" d="M26.75,35c-0.69,0-1.25-0.56-1.25-1.25v-7.766l-1.354,0.452c-0.656,0.216-1.363-0.137-1.582-0.791
		c-0.218-0.655,0.136-1.363,0.791-1.582l3-1c0.381-0.128,0.8-0.063,1.126,0.172C27.807,23.471,28,23.848,28,24.25v9.5
		C28,34.44,27.44,35,26.75,35z"/>
</g>
<g>
	<path style="fill:#18193F;" d="M34.75,35c-0.69,0-1.25-0.56-1.25-1.25v-7.766l-1.354,0.452c-0.656,0.216-1.363-0.137-1.582-0.791
		c-0.218-0.655,0.136-1.363,0.791-1.582l3-1c0.381-0.128,0.8-0.063,1.126,0.172C35.807,23.471,36,23.848,36,24.25v9.5
		C36,34.44,35.44,35,34.75,35z"/>
</g>
<g>
	<path style="fill:#18193F;" d="M16,23c-2.481,0-4.5,2.019-4.5,4.5v3c0,2.481,2.019,4.5,4.5,4.5s4.5-2.019,4.5-4.5v-3
		C20.5,25.019,18.481,23,16,23z M18,30.5c0,1.103-0.897,2-2,2s-2-0.897-2-2v-3c0-1.103,0.897-2,2-2s2,0.897,2,2V30.5z"/>
</g>
</svg>