<?xml version="1.0" encoding="utf-8"?>
<!-- Generator: Adobe Illustrator 27.2.0, SVG Export Plug-In . SVG Version: 6.00 Build 0)  -->
<svg version="1.1" id="Layer_1" xmlns="http://www.w3.org/2000/svg" xmlns:xlink="http://www.w3.org/1999/xlink" x="0px" y="0px"
	 viewBox="0 0 48 48" style="enable-background:new 0 0 48 48;" xml:space="preserve">
<style type="text/css">
	.st0{fill:none;stroke:#000000;stroke-width:3;stroke-linecap:round;stroke-linejoin:round;stroke-miterlimit:10;}
	.st1{fill:none;stroke:#000000;stroke-width:3;stroke-miterlimit:10;}
	.st2{fill:none;stroke:#000000;stroke-width:3;stroke-linecap:round;stroke-linejoin:round;}
	.st3{fill:none;stroke:#FF0000;stroke-width:3;stroke-linecap:round;stroke-linejoin:round;}
	.st4{fill:none;stroke:#000000;stroke-width:3;stroke-linejoin:round;stroke-miterlimit:10;}
	.st5{fill:none;stroke:#000000;stroke-width:3;stroke-linecap:round;stroke-miterlimit:10;}
	.st6{fill:none;stroke:#000000;stroke-width:3;stroke-linecap:round;stroke-linejoin:round;stroke-miterlimit:5;}
	.st7{fill:#9FA8DA;}
	.st8{fill:#FFE082;}
	.st9{fill:#90CAF9;}
	.st10{fill:#F48FB1;}
	.st11{fill:#8CE7F2;}
	.st12{fill:#FFAB91;}
	.st13{fill:#A5D6A7;}
	.st14{fill:none;stroke:#18193F;stroke-width:3;stroke-linecap:round;stroke-linejoin:round;stroke-miterlimit:10;}
	.st15{fill:#18193F;}
	.st16{fill:none;stroke:#18193F;stroke-width:3;stroke-miterlimit:10;}
	.st17{fill:none;stroke:#18193F;stroke-width:3;stroke-linecap:round;stroke-linejoin:round;}
	.st18{fill:none;stroke:#18193F;stroke-width:3;stroke-linejoin:round;stroke-miterlimit:10;}
	.st19{fill:none;stroke:#18193F;stroke-width:3;stroke-linecap:round;stroke-miterlimit:10;}
	.st20{fill:none;stroke:#18193F;stroke-width:3;stroke-linecap:round;stroke-linejoin:round;stroke-miterlimit:5;}
</style>
<path class="st8" d="M45,43H11c-1.1,0-2-0.9-2-2V23c0-1.1,0.9-2,2-2h34c1.1,0,2,0.9,2,2v18C47,42.1,46.1,43,45,43z"/>
<circle class="st16" cx="24" cy="8" r="2.5"/>
<line class="st16" x1="22.09" y1="9.63" x2="13.5" y2="16.5"/>
<line class="st16" x1="26.24" y1="9.89" x2="34.5" y2="16.5"/>
<path class="st14" d="M34.5,16.5h8c1.1,0,2,0.9,2,2v19c0,1.1-0.9,2-2,2H16.15"/>
<path class="st14" d="M9.24,39.5H6.5c-1.1,0-2-0.9-2-2v-19c0-1.1,0.9-2,2-2h18.44"/>
<path class="st15" d="M30.57,30.45h-2.45v-1.23h1.84c0.68,0,1.23-0.55,1.23-1.23c0-0.68-0.55-1.23-1.23-1.23h-1.84v-1.23h2.45
	c0.68,0,1.23-0.55,1.23-1.23s-0.55-1.23-1.23-1.23H26.9c-0.68,0-1.23,0.55-1.23,1.23v7.35c0,0.68,0.55,1.23,1.23,1.23h3.68
	c0.68,0,1.23-0.55,1.23-1.23C31.8,31,31.25,30.45,30.57,30.45z"/>
<g>
	<path class="st15" d="M39.2,32.9c-0.4,0-0.79-0.2-1.02-0.55l-2.66-3.99v3.31c0,0.68-0.55,1.23-1.23,1.23
		c-0.68,0-1.23-0.55-1.23-1.23v-7.35c0-0.54,0.35-1.02,0.87-1.17c0.52-0.16,1.07,0.04,1.37,0.49l2.66,3.99v-3.31
		c0-0.68,0.55-1.23,1.23-1.23s1.23,0.55,1.23,1.23v7.35c0,0.54-0.35,1.02-0.87,1.17C39.44,32.89,39.32,32.9,39.2,32.9z"/>
</g>
<g>
	<path class="st15" d="M11.86,32.9c-2.37,0-4.29-2.2-4.29-4.9s1.92-4.9,4.29-4.9s4.29,2.2,4.29,4.9S14.23,32.9,11.86,32.9z
		 M11.86,25.55c-1,0-1.84,1.12-1.84,2.45s0.84,2.45,1.84,2.45S13.7,29.33,13.7,28S12.86,25.55,11.86,25.55z"/>
</g>
<path class="st15" d="M20.91,23.1h-2.45c-0.68,0-1.23,0.55-1.23,1.23v7.35c0,0.68,0.55,1.23,1.23,1.23s1.23-0.55,1.23-1.23v-1.23
	h1.23c2.03,0,3.68-1.65,3.68-3.68S22.94,23.1,20.91,23.1z M20.91,28h-1.23v-2.45h1.23c0.68,0,1.23,0.55,1.23,1.23S21.59,28,20.91,28
	z"/>
</svg>