<?xml version="1.0" encoding="iso-8859-1"?>
<!-- Generator: Adobe Illustrator 23.0.3, SVG Export Plug-In . SVG Version: 6.00 Build 0)  -->
<svg version="1.1" id="Layer_1" xmlns="http://www.w3.org/2000/svg" xmlns:xlink="http://www.w3.org/1999/xlink" x="0px" y="0px"
	 viewBox="0 0 48 48" style="enable-background:new 0 0 48 48;" xml:space="preserve">
<path style="fill:#9FA8DA;" d="M22.465,38.66l0.035,0.035l12.438-12.438c3.177,1.196,6.898,0.523,9.454-2.033
	c2.121-2.121,2.945-5.042,2.482-7.79c-0.127-0.756-1.056-1.057-1.598-0.515l-3.042,3.042c-1.24,1.24-3.206,1.525-4.667,0.556
	c-2.009-1.333-2.209-4.07-0.597-5.683l3.111-3.111c0.542-0.542,0.241-1.47-0.515-1.598c-2.748-0.463-5.67,0.361-7.79,2.482
	c-2.557,2.557-3.229,6.277-2.033,9.454L17.305,33.5l0.035,0.035c-2.211-0.503-4.621,0.099-6.343,1.82
	c-1.567,1.567-2.212,3.707-1.935,5.746c0.104,0.764,1.054,1.071,1.6,0.525l1.712-1.712c0.97-0.97,2.553-1.158,3.616-0.289
	c1.222,0.999,1.289,2.805,0.202,3.893l-1.819,1.819c-0.545,0.545-0.239,1.496,0.525,1.6c2.039,0.277,4.179-0.367,5.746-1.935
	C22.367,43.281,22.968,40.871,22.465,38.66z"/>
<path style="fill:none;stroke:#18193F;stroke-width:3;stroke-linecap:round;stroke-linejoin:round;stroke-miterlimit:10;" d="
	M13.305,29.5l0.035,0.035c-2.211-0.503-4.621,0.099-6.343,1.82c-1.567,1.567-2.212,3.707-1.935,5.746
	c0.104,0.764,1.054,1.071,1.6,0.525l1.712-1.712c0.97-0.97,2.553-1.158,3.616-0.289c1.222,0.999,1.289,2.805,0.202,3.893
	l-1.819,1.819c-0.545,0.545-0.239,1.496,0.525,1.6c2.039,0.277,4.179-0.367,5.746-1.935c1.723-1.721,2.324-4.131,1.821-6.342
	l0.035,0.035l12.438-12.438"/>
<path style="fill:none;stroke:#18193F;stroke-width:3;stroke-linecap:round;stroke-linejoin:round;stroke-miterlimit:10;" d="
	M37.842,22.008c0.923-0.428,1.789-1.022,2.551-1.784c2.121-2.121,2.945-5.042,2.482-7.79c-0.127-0.756-1.056-1.057-1.598-0.515
	l-3.042,3.042c-1.24,1.24-3.206,1.525-4.667,0.556c-2.009-1.333-2.209-4.07-0.597-5.683l3.111-3.111
	c0.542-0.542,0.241-1.47-0.515-1.598c-2.748-0.463-5.67,0.361-7.79,2.482c-2.557,2.557-3.229,6.277-2.033,9.454l-8.957,8.958"/>
</svg>