<?xml version="1.0" encoding="iso-8859-1"?>
<!-- Generator: Adobe Illustrator 23.0.3, SVG Export Plug-In . SVG Version: 6.00 Build 0)  -->
<svg version="1.1" id="Layer_1" xmlns="http://www.w3.org/2000/svg" xmlns:xlink="http://www.w3.org/1999/xlink" x="0px" y="0px"
	 viewBox="0 0 48 48" style="enable-background:new 0 0 48 48;" xml:space="preserve">
<path style="fill:#9FA8DA;" d="M30.866,11.288l-15.3,2.295c-0.936,0.14-1.629,0.945-1.629,1.891v25.053
	c0,0.947,0.693,1.751,1.629,1.891l15.3,2.295c1.156,0.173,2.196-0.722,2.196-1.892V13.179C33.062,12.01,32.022,11.114,30.866,11.288
	z"/>
<path style="fill:none;stroke:#18193F;stroke-width:3;stroke-linecap:round;stroke-linejoin:round;stroke-miterlimit:10;" d="
	M34,38.5h2.5c1.105,0,2-0.895,2-2v-25c0-1.105-0.895-2-2-2h-7"/>
<circle style="fill:#18193F;" cx="24" cy="25" r="2"/>
<path style="fill:none;stroke:#18193F;stroke-width:3;stroke-linecap:round;stroke-linejoin:round;stroke-miterlimit:10;" d="
	M24.625,41.09l2.578,0.387c1.209,0.181,2.297-0.755,2.297-1.978V8.501c0-1.223-1.088-2.16-2.297-1.978L19.5,7.678"/>
<path style="fill:none;stroke:#18193F;stroke-width:3;stroke-linecap:round;stroke-linejoin:round;stroke-miterlimit:10;" d="
	M14.782,8.386l-3.579,0.537C10.224,9.069,9.5,9.91,9.5,10.9V37.1c0,0.99,0.724,1.831,1.703,1.978l8.297,1.244"/>
</svg>