<?xml version="1.0" encoding="utf-8"?>
<!-- Generator: Adobe Illustrator 23.0.3, SVG Export Plug-In . SVG Version: 6.00 Build 0)  -->
<svg version="1.1" id="Layer_1" xmlns="http://www.w3.org/2000/svg" xmlns:xlink="http://www.w3.org/1999/xlink" x="0px" y="0px"
	 viewBox="0 0 48 48" style="enable-background:new 0 0 48 48;" xml:space="preserve">
<style type="text/css">
	.st0{fill:none;stroke:#000000;stroke-width:3;stroke-linecap:round;stroke-linejoin:round;stroke-miterlimit:10;}
	.st1{fill:none;stroke:#000000;stroke-width:3;stroke-linecap:round;stroke-linejoin:round;}
	.st2{fill:none;stroke:#000000;stroke-width:3;stroke-linecap:round;}
	.st3{fill:none;stroke:#000000;stroke-width:3;stroke-linejoin:round;}
	.st4{fill:none;stroke:#000000;stroke-width:3;stroke-miterlimit:20;}
	.st5{fill:none;stroke:#000000;stroke-width:3;stroke-linecap:round;stroke-linejoin:round;stroke-miterlimit:20;}
	.st6{fill:none;stroke:#000000;stroke-width:3;}
	.st7{fill:none;stroke:#000000;stroke-width:3;stroke-linecap:round;stroke-miterlimit:20;}
	.st8{fill:#FFE082;}
	.st9{fill:#8CE7F2;}
	.st10{fill:#F48FB1;}
	.st11{fill:#90CAF9;}
	.st12{fill:#FFAB91;}
	.st13{fill:#A5D6A7;}
	.st14{fill:#808080;}
	.st15{fill:#9FA8DA;}
	.st16{fill:none;stroke:#18193F;stroke-width:3;stroke-linecap:round;stroke-linejoin:round;}
	.st17{fill:none;stroke:#18193F;stroke-width:3;stroke-linecap:round;}
	.st18{fill:#18193F;}
	.st19{fill:none;stroke:#18193F;stroke-width:3;stroke-linejoin:round;}
	.st20{fill:none;stroke:#18193F;stroke-width:3;stroke-miterlimit:20;}
	.st21{fill:none;stroke:#18193F;stroke-width:3;stroke-linecap:round;stroke-linejoin:round;stroke-miterlimit:20;}
	.st22{fill:none;stroke:#18193F;stroke-width:3;stroke-linecap:round;stroke-linejoin:round;stroke-miterlimit:10;}
	.st23{fill:none;stroke:#18193F;stroke-width:3;}
	.st24{fill:none;stroke:#18193F;stroke-width:3;stroke-linecap:round;stroke-miterlimit:20;}
	.st25{fill:#18193F;stroke:#18193F;stroke-width:3;stroke-linecap:round;stroke-linejoin:round;}
</style>
<path class="st15" d="M45.8,18.8l-8.6-8.6c-0.4-0.4-1-0.4-1.4,0l-7,7l-8.3,2.2c-2.5,0.7-4.4,2.6-5,5.1l-3.9,16.2
	c-0.5,2.2,1.4,4.1,3.6,3.6l16.2-3.9c2.5-0.6,4.5-2.5,5.1-5l2.2-8.3l7-7C46.2,19.8,46.2,19.2,45.8,18.8z"/>
<circle class="st18" cx="22.5" cy="25.5" r="2.5"/>
<line class="st16" x1="21.5" y1="26.5" x2="8.5" y2="39.5"/>
<path class="st16" d="M27.3,36.5l0.2,0c2.5-0.6,4.5-2.5,5.1-5l2.2-8.3l7-7c0.4-0.4,0.4-1,0-1.4l-3.5-3.5"/>
<path class="st16" d="M10.2,26.2L7.6,36.7c-0.5,2.2,1.4,4.1,3.6,3.6l11.2-2.7"/>
<path class="st16" d="M34.7,7.7l-1.5-1.5c-0.4-0.4-1-0.4-1.4,0l-7,7l-8.3,2.2c-2.5,0.7-4.4,2.6-5,5.1L11.2,22"/>
<line class="st16" x1="26.5" y1="13.5" x2="34.5" y2="21.5"/>
</svg>