<?xml version="1.0" encoding="iso-8859-1"?>
<!-- Generator: Adobe Illustrator 23.0.3, SVG Export Plug-In . SVG Version: 6.00 Build 0)  -->
<svg version="1.1" id="Layer_1" xmlns="http://www.w3.org/2000/svg" xmlns:xlink="http://www.w3.org/1999/xlink" x="0px" y="0px"
	 viewBox="0 0 48 48" style="enable-background:new 0 0 48 48;" xml:space="preserve">
<circle style="fill:#9FA8DA;" cx="28" cy="15.392" r="6.063"/>
<path style="fill:#9FA8DA;" d="M28,46.972L28,46.972c-4.97,0-9-3.991-9-8.913v-8.612C19,27.543,20.543,26,22.447,26h11.106
	C35.457,26,37,27.543,37,29.447v8.612C37,42.981,32.97,46.972,28,46.972z"/>
<path style="fill:none;stroke:#18193F;stroke-width:3;stroke-linecap:round;stroke-linejoin:round;stroke-miterlimit:10;" d="
	M24,6.5c3.038,0,5.5,2.462,5.5,5.5c0,1.114-0.331,2.15-0.9,3.016"/>
<path style="fill:none;stroke:#18193F;stroke-width:3;stroke-linecap:round;stroke-linejoin:round;stroke-miterlimit:10;" d="
	M23.688,17.491C20.796,17.329,18.5,14.933,18.5,12c0-0.896,0.214-1.743,0.595-2.49"/>
<path style="fill:none;stroke:#18193F;stroke-width:3;stroke-linecap:round;stroke-linejoin:round;stroke-miterlimit:10;" d="
	M24,42.5L24,42.5c-4.694,0-8.5-3.806-8.5-8.5v-8.213c0-1.815,1.472-3.287,3.287-3.287"/>
<path style="fill:none;stroke:#18193F;stroke-width:3;stroke-linecap:round;stroke-linejoin:round;stroke-miterlimit:10;" d="
	M22.915,22.5h6.298c1.815,0,3.287,1.472,3.287,3.287V34c0,1.918-0.636,3.688-1.708,5.111"/>
</svg>