<?xml version="1.0" encoding="utf-8"?>
<!-- Generator: Adobe Illustrator 27.2.0, SVG Export Plug-In . SVG Version: 6.00 Build 0)  -->
<svg version="1.1" id="Layer_1" xmlns="http://www.w3.org/2000/svg" xmlns:xlink="http://www.w3.org/1999/xlink" x="0px" y="0px"
	 viewBox="0 0 48 48" style="enable-background:new 0 0 48 48;" xml:space="preserve">
<style type="text/css">
	.st0{fill:none;stroke:#000000;stroke-width:3;stroke-linecap:round;stroke-linejoin:round;stroke-miterlimit:10;}
	.st1{fill:#FFAB91;}
	.st2{fill:#90CAF9;}
	.st3{fill:none;stroke:#000000;stroke-width:3;stroke-linecap:round;stroke-miterlimit:10;}
	.st4{fill:none;stroke:#000000;stroke-width:3;stroke-linecap:round;stroke-linejoin:round;}
	.st5{fill:none;stroke:#000000;stroke-width:3;stroke-miterlimit:10;}
	.st6{fill:#F48FB1;}
	.st7{fill:#FFE082;}
	.st8{fill:#8CE7F2;}
	.st9{fill:#A5D6A7;}
	.st10{fill:#9FA8DA;}
	.st11{fill:none;stroke:#18193F;stroke-width:3;stroke-linecap:round;stroke-linejoin:round;stroke-miterlimit:10;}
	.st12{fill:#18193F;}
	.st13{fill:none;stroke:#18193F;stroke-width:3;stroke-linecap:round;stroke-miterlimit:10;}
	.st14{fill:none;stroke:#18193F;stroke-width:3;stroke-linecap:round;stroke-linejoin:round;}
	.st15{fill:none;stroke:#18193F;stroke-width:3;stroke-miterlimit:10;}
</style>
<path class="st7" d="M16.9,10h24.14c0.53,0,0.97,0.43,0.97,0.97v34.07c0,0.53-0.43,0.97-0.97,0.97H16.9c-1.6,0-2.9-1.3-2.9-2.9V12.9
	C14,11.3,15.3,10,16.9,10z"/>
<path class="st11" d="M28.46,42.5H12.5c-1.7,0-3-1.3-3-3v-31c0-1.7,1.3-3,3-3h2.46"/>
<path class="st11" d="M19.59,5.5H37.5c0.6,0,1,0.4,1,1v35c0,0.6-0.4,1-1,1h-2.59"/>
<path class="st11" d="M27.5,42.5h-15c-1.7,0-3-1.3-3-3l0,0c0-1.7,1.3-3,3-3h20.39"/>
<g>
	<path class="st11" d="M24.5,13.81c-0.52-0.08-1.05,0-1.65,0.08c-2.32,0.45-4.2,2.32-4.65,4.65c-0.45,2.47,0.6,4.72,2.4,6v1.9
		c0,0.83,0.67,1.5,1.5,1.5h3.75c0.83,0,1.5-0.67,1.5-1.5v-1.9c1.5-1.05,2.55-2.85,2.55-4.87c0-1.42-0.52-2.7-1.27-3.67"/>
	<path class="st11" d="M24.43,29.5h-0.75c-0.83,0-1.5-0.67-1.5-1.5l0,0h3.75l0,0C25.92,28.83,25.25,29.5,24.43,29.5z"/>
</g>
</svg>