<?xml version="1.0" encoding="utf-8"?>
<!-- Generator: Adobe Illustrator 23.0.3, SVG Export Plug-In . SVG Version: 6.00 Build 0)  -->
<svg version="1.1" id="Layer_1" xmlns="http://www.w3.org/2000/svg" xmlns:xlink="http://www.w3.org/1999/xlink" x="0px" y="0px"
	 viewBox="0 0 48 48" style="enable-background:new 0 0 48 48;" xml:space="preserve">
<style type="text/css">
	.st0{fill:#A5D6A7;}
	.st1{fill:#8CE7F2;}
	.st2{fill:#9FA8DA;}
	.st3{fill:none;stroke:#000000;stroke-width:3;stroke-linecap:round;stroke-linejoin:round;stroke-miterlimit:10;}
	.st4{fill:none;stroke:#000000;stroke-width:3;stroke-linecap:round;stroke-linejoin:round;stroke-miterlimit:10.417;}
	.st5{fill:#90CAF9;}
	.st6{fill:none;stroke:#18193F;stroke-width:3;stroke-linecap:round;stroke-linejoin:round;stroke-miterlimit:10;}
	.st7{fill:#18193F;}
	.st8{fill:none;stroke:#18193F;stroke-width:3;stroke-linecap:round;stroke-linejoin:round;stroke-miterlimit:10.417;}
	.st9{fill:none;stroke:#000000;stroke-width:3;stroke-miterlimit:10;}
	.st10{fill:none;stroke:#18193F;stroke-width:3;stroke-miterlimit:10;}
	.st11{fill:#FFAB91;}
	.st12{fill:none;stroke:#000000;stroke-width:3;stroke-linecap:round;stroke-miterlimit:10;}
	.st13{fill:#FFE082;}
	.st14{fill:none;stroke:#000000;stroke-width:3;stroke-linecap:round;stroke-linejoin:round;}
	.st15{fill:#F48FB1;}
	.st16{fill:none;stroke:#18193F;stroke-width:3;stroke-linecap:round;stroke-linejoin:round;}
	.st17{fill:none;stroke:#18193F;stroke-width:3;stroke-linecap:round;stroke-miterlimit:10;}
	.st18{fill:none;stroke:#000000;stroke-width:3;stroke-linecap:round;}
	.st19{fill:none;stroke:#000000;stroke-width:3;stroke-linejoin:round;}
	.st20{fill:none;stroke:#000000;stroke-width:3;}
	.st21{fill:none;stroke:#000000;stroke-width:3;stroke-linejoin:round;stroke-miterlimit:10;}
	.st22{fill:none;stroke:#18193F;stroke-width:3;stroke-linecap:round;}
	.st23{fill:none;stroke:#18193F;stroke-width:3;stroke-linejoin:round;}
	.st24{fill:none;stroke:#18193F;stroke-width:3;}
	.st25{fill:none;stroke:#18193F;stroke-width:3;stroke-linejoin:round;stroke-miterlimit:10;}
</style>
<path class="st2" d="M25.6,30h10.3c1.7,0,3.1,1.4,3.1,3.1v9.8c0,1.7-1.4,3.1-3.1,3.1H20.1c-1.7,0-3.1-1.4-3.1-3.1v-9.7
	c0-1.8,1.4-3.2,3.1-3.2h0H25.6z"/>
<path class="st2" d="M9,35.9V21.1c0-2.8,2.3-5.1,5.1-5.1h27.8c2.8,0,5.1,2.3,5.1,5.1v14.8c0,1.7-1.4,3.1-3.1,3.1H12.1
	C10.4,39,9,37.6,9,35.9z"/>
<path class="st16" d="M42.5,29.1v2.4c0,1.7-1.3,3-3,3h-5"/>
<path class="st16" d="M5.5,19.2v-1.7c0-2.8,2.2-5,5-5h27c2.8,0,5,2.2,5,5v6.6"/>
<path class="st16" d="M13.5,34.5h-5c-1.7,0-3-1.3-3-3v-7.2"/>
<path class="st16" d="M13.5,8.5c0-1.7,1.3-3,3-3h15c1.7,0,3,1.3,3,3"/>
<path class="st16" d="M21.7,26.5h9.8c1.7,0,3,1.3,3,3v9c0,1.7-1.3,3-3,3h-15c-1.7,0-3-1.3-3-3v-9c0-1.7,1.3-3,3-3h0"/>
<line class="st16" x1="36.5" y1="18.5" x2="35.5" y2="18.5"/>
</svg>