<?xml version="1.0" encoding="utf-8"?>
<!-- Generator: Adobe Illustrator 23.0.3, SVG Export Plug-In . SVG Version: 6.00 Build 0)  -->
<svg version="1.1" id="Layer_1" xmlns="http://www.w3.org/2000/svg" xmlns:xlink="http://www.w3.org/1999/xlink" x="0px" y="0px"
	 viewBox="0 0 48 48" style="enable-background:new 0 0 48 48;" xml:space="preserve">
<style type="text/css">
	.st0{fill:none;stroke:#000000;stroke-width:3;stroke-linecap:round;stroke-linejoin:round;stroke-miterlimit:10;}
	.st1{fill:none;stroke:#000000;stroke-width:3;stroke-miterlimit:10;}
	.st2{fill:none;stroke:#000000;stroke-width:3;stroke-linecap:round;}
	.st3{fill:none;stroke:#000000;stroke-width:3;stroke-linecap:round;stroke-linejoin:round;}
	.st4{fill:none;stroke:#000000;stroke-width:3;stroke-linecap:round;stroke-linejoin:round;stroke-miterlimit:10.417;}
	.st5{fill:none;stroke:#000000;stroke-width:3;stroke-linecap:round;stroke-miterlimit:10;}
	.st6{fill:#FFFFFF;stroke:#000000;stroke-width:3;stroke-linecap:round;stroke-linejoin:round;stroke-miterlimit:10;}
	.st7{fill:none;stroke:#000000;stroke-width:3;}
	.st8{fill:#90CAF9;}
	.st9{fill:#8CE7F2;}
	.st10{fill:#9FA8DA;}
	.st11{fill:#A5D6A7;}
	.st12{fill:#F48FB1;}
	.st13{fill:#FFAB91;}
	.st14{fill:#FFE082;}
	.st15{fill:none;stroke:#18193F;stroke-width:3;stroke-linecap:round;stroke-linejoin:round;stroke-miterlimit:10;}
	.st16{fill:none;stroke:#18193F;stroke-width:3;stroke-linecap:round;}
	.st17{fill:none;stroke:#18193F;stroke-width:3;stroke-linecap:round;stroke-linejoin:round;}
	.st18{fill:#18193F;}
	.st19{fill:none;stroke:#18193F;stroke-width:3;stroke-miterlimit:10;}
	.st20{fill:none;stroke:#18193F;stroke-width:3;stroke-linecap:round;stroke-linejoin:round;stroke-miterlimit:10.417;}
	.st21{fill:none;stroke:#18193F;stroke-width:3;stroke-linecap:round;stroke-miterlimit:10;}
	.st22{fill:#FFFFFF;stroke:#18193F;stroke-width:3;stroke-linecap:round;stroke-linejoin:round;stroke-miterlimit:10;}
	.st23{fill:none;stroke:#18193F;stroke-width:3;}
</style>
<path class="st9" d="M41.1,44H14.9c-2.1,0-3.9-1.7-3.9-3.9V15.9c0-2.1,1.7-3.9,3.9-3.9h26.2c2.1,0,3.9,1.7,3.9,3.9v24.2
	C45,42.3,43.3,44,41.1,44z"/>
<path class="st15" d="M28.6,40.5H10.5c-2.2,0-4-1.8-4-4v-25c0-2.2,1.8-4,4-4h2"/>
<path class="st15" d="M18.1,7.5h19.4c2.2,0,4,1.8,4,4v25c0,2.2-1.8,4-4,4h-3.6"/>
<line class="st19" x1="6.5" y1="15.5" x2="41.5" y2="15.5"/>
<line class="st16" x1="12.5" y1="22.5" x2="24.5" y2="22.5"/>
<line class="st16" x1="12.5" y1="31.5" x2="24.5" y2="31.5"/>
<polyline class="st17" points="29.5,22.5 31.5,24.5 35.5,20.5 "/>
<polyline class="st17" points="29.5,31 31.5,33 35.5,29 "/>
</svg>