<?xml version="1.0" encoding="utf-8"?>
<!-- Generator: Adobe Illustrator 23.0.3, SVG Export Plug-In . SVG Version: 6.00 Build 0)  -->
<svg version="1.1" id="Layer_2" xmlns="http://www.w3.org/2000/svg" xmlns:xlink="http://www.w3.org/1999/xlink" x="0px" y="0px"
	 viewBox="0 0 48 48" style="enable-background:new 0 0 48 48;" xml:space="preserve">
<style type="text/css">
	.st0{fill:#8CE7F2;}
	.st1{fill:#FFE082;}
	.st2{fill:none;stroke:#000000;stroke-width:3;stroke-linecap:round;stroke-linejoin:round;stroke-miterlimit:10;}
	.st3{fill:none;stroke:#000000;stroke-width:3;stroke-linecap:round;stroke-linejoin:round;}
	.st4{fill:none;stroke:#000000;stroke-width:3;stroke-linecap:round;}
	.st5{fill:none;stroke:#000000;stroke-width:3;stroke-miterlimit:10;}
	.st6{fill:none;stroke:#000000;stroke-width:3;}
	.st7{fill:none;stroke:#000000;stroke-width:3;stroke-linecap:round;stroke-miterlimit:10;}
	.st8{fill:none;stroke:#000000;stroke-width:4;stroke-linecap:round;stroke-miterlimit:10;}
	.st9{fill:none;stroke:#000000;stroke-width:3;stroke-linecap:round;stroke-linejoin:round;stroke-miterlimit:5;}
	.st10{fill:#A5D6A7;}
	.st11{fill:#9FA8DA;}
	.st12{fill:#F48FB1;}
	.st13{fill:#90CAF9;}
	.st14{fill:#FFAB91;}
	.st15{fill:none;stroke:#18193F;stroke-width:3;stroke-linecap:round;stroke-linejoin:round;stroke-miterlimit:10;}
	.st16{fill:none;stroke:#18193F;stroke-width:3;stroke-linecap:round;stroke-linejoin:round;}
	.st17{fill:#18193F;}
	.st18{fill:none;stroke:#18193F;stroke-width:3;stroke-linecap:round;}
	.st19{fill:none;stroke:#18193F;stroke-width:3;stroke-miterlimit:10;}
	.st20{fill:none;stroke:#18193F;stroke-width:3;}
	.st21{fill:none;stroke:#18193F;stroke-width:3;stroke-linecap:round;stroke-miterlimit:10;}
	.st22{fill:none;stroke:#18193F;stroke-width:4;stroke-linecap:round;stroke-miterlimit:10;}
	.st23{fill:none;stroke:#18193F;stroke-width:3;stroke-linecap:round;stroke-linejoin:round;stroke-miterlimit:5;}
	.st24{fill:none;stroke:#000000;stroke-width:3;stroke-miterlimit:20;}
	.st25{fill:none;stroke:#000000;stroke-width:3;stroke-linejoin:round;}
	.st26{fill:none;stroke:#000000;stroke-width:2;stroke-linecap:round;stroke-linejoin:round;}
	.st27{fill:none;stroke:#18193F;stroke-width:3;stroke-miterlimit:20;}
	.st28{fill:none;stroke:#18193F;stroke-width:3;stroke-linejoin:round;}
	.st29{fill:none;stroke:#18193F;stroke-width:2;stroke-linecap:round;stroke-linejoin:round;}
</style>
<circle class="st10" cx="28" cy="28" r="19"/>
<path class="st23" d="M38.7,35.3c2.7-3.6,4.2-8.2,3.7-13.1c-0.8-8.6-7.7-15.5-16.3-16.5c-6.7-0.7-12.8,2.1-16.6,6.9"/>
<path class="st23" d="M13.5,32.4h3.1c1.1,1,2.6,1.6,4.2,1.6h7c1.9,0,3.6-1.4,3.8-3.4l0.3-2.4l0.5-3.8l0.2-1.6c0.2-1.5-1-2.9-2.5-2.9
	l-5.8,0c-0.5,0-0.8-0.5-0.6-0.9c0.5-1.2,0.8-2.2,1.1-3.5c0.1-0.7,0.2-1.1,0.2-1.5c0-1.7-1.5-2.2-2.3-2.3c-0.3,0-0.6,0.1-0.8,0.3
	c-0.7,1.1-4.5,5.9-6.2,8.3c-0.6,0.8-1.5,1.2-2.4,1.2l-5.8,0c-1.1,0-2,0.8-2,1.9c0,0.8,0,1.7,0.1,2.5c0.9,8.6,7.9,15.5,16.5,16.4
	c4.2,0.4,8.1-0.6,11.4-2.5"/>
</svg>