<?xml version="1.0" encoding="iso-8859-1"?>
<!-- Generator: Adobe Illustrator 27.2.0, SVG Export Plug-In . SVG Version: 6.00 Build 0)  -->
<svg version="1.1" id="Layer_1" xmlns="http://www.w3.org/2000/svg" xmlns:xlink="http://www.w3.org/1999/xlink" x="0px" y="0px"
	 viewBox="0 0 48 48" style="enable-background:new 0 0 48 48;" xml:space="preserve">
<style type="text/css">
	.st0{fill:none;stroke:#000000;stroke-width:3;stroke-linecap:round;stroke-linejoin:round;stroke-miterlimit:10;}
	.st1{fill:none;stroke:#000000;stroke-width:3;stroke-miterlimit:10;}
	.st2{fill:none;stroke:#000000;stroke-width:3;stroke-linecap:round;stroke-linejoin:round;}
	.st3{fill:none;stroke:#000000;stroke-width:3;stroke-linecap:round;}
	.st4{fill:#FFFFFF;stroke:#000000;stroke-width:3;stroke-linecap:round;stroke-linejoin:round;}
	.st5{fill:none;stroke:#000000;stroke-width:4;stroke-linecap:round;stroke-miterlimit:10;}
	.st6{fill:none;stroke:#000000;stroke-width:3;stroke-linecap:round;stroke-miterlimit:10;}
	.st7{fill:none;stroke:#000000;stroke-width:3;stroke-linecap:round;stroke-linejoin:round;stroke-miterlimit:10.4167;}
	.st8{fill:none;stroke:#000000;stroke-width:3;stroke-linejoin:round;stroke-miterlimit:10;}
	.st9{fill:none;stroke:#000000;stroke-width:2.5;stroke-linecap:round;stroke-linejoin:round;stroke-miterlimit:10;}
	.st10{fill:#A5D6A7;}
	.st11{fill:#FFAB91;}
	.st12{fill:#FFE082;}
	.st13{fill:#8CE7F2;}
	.st14{fill:#9FA8DA;}
	.st15{fill:#90CAF9;}
	.st16{fill:none;stroke:#18193F;stroke-width:3;stroke-linecap:round;stroke-linejoin:round;stroke-miterlimit:10;}
	.st17{fill:none;stroke:#18193F;stroke-width:3;stroke-miterlimit:10;}
	.st18{fill:#18193F;}
	.st19{fill:none;stroke:#18193F;stroke-width:3;stroke-linecap:round;stroke-linejoin:round;}
	.st20{fill:none;stroke:#18193F;stroke-width:3;stroke-linecap:round;}
	.st21{fill:none;stroke:#18193F;stroke-width:4;stroke-linecap:round;stroke-miterlimit:10;}
	.st22{fill:none;stroke:#18193F;stroke-width:3;stroke-linecap:round;stroke-miterlimit:10;}
	.st23{fill:none;stroke:#18193F;stroke-width:3;stroke-linecap:round;stroke-linejoin:round;stroke-miterlimit:10.4167;}
	.st24{fill:none;stroke:#18193F;stroke-width:3;stroke-linejoin:round;stroke-miterlimit:10;}
	.st25{fill:none;stroke:#18193F;stroke-width:2.5;stroke-linecap:round;stroke-linejoin:round;stroke-miterlimit:10;}
</style>
<circle class="st15" cx="27.5" cy="9.934" r="3.905"/>
<path class="st15" d="M32.049,16.678h-9.097c-1.262,0-2.285,1.023-2.285,2.285v0c0,2.171,2.77,4.147,6.833,4.147
	s6.833-1.977,6.833-4.147v0C34.333,17.701,33.31,16.678,32.049,16.678z"/>
<circle class="st15" cx="41.167" cy="32.386" r="3.823"/>
<path class="st15" d="M45.715,39.151h-9.097c-1.262,0-2.285,1.023-2.285,2.285v0c0,2.171,2.77,4.147,6.833,4.147
	S48,43.606,48,41.435v0C48,40.173,46.977,39.151,45.715,39.151z"/>
<circle class="st15" cx="13.833" cy="32.386" r="3.966"/>
<path class="st15" d="M18.382,39.151H9.285C8.023,39.151,7,40.173,7,41.435v0c0,2.171,2.77,4.147,6.833,4.147
	s6.833-1.977,6.833-4.147v0C20.667,40.173,19.644,39.151,18.382,39.151z"/>
<path class="st16" d="M20.294,6.029c0-2.047,1.659-3.706,3.706-3.706s3.706,1.659,3.706,3.706S26.047,9.735,24,9.735"/>
<path class="st16" d="M28.864,18.919C30.215,18.125,31,17.01,31,15.84v0c0-1.293-1.048-2.34-2.34-2.34H19.34
	c-1.293,0-2.34,1.048-2.34,2.34v0c0,2.224,2.837,4.249,7,4.249"/>
<path class="st16" d="M41.706,29.029c0,2.047-1.659,3.706-3.706,3.706s-3.706-1.659-3.706-3.706s1.659-3.706,3.706-3.706"/>
<path class="st16" d="M39.115,43.039C42.661,42.714,45,40.859,45,38.84v0c0-1.293-1.048-2.34-2.34-2.34H33.34
	c-1.293,0-2.34,1.048-2.34,2.34v0c0,0.978,0.549,1.918,1.519,2.664"/>
<path class="st16" d="M13.706,29.029c0,2.047-1.659,3.706-3.706,3.706s-3.706-1.659-3.706-3.706S7.953,25.323,10,25.323"/>
<path class="st16" d="M10,43.089c4.163,0,7-2.025,7-4.249v0c0-1.293-1.048-2.34-2.34-2.34H5.34C4.048,36.5,3,37.548,3,38.84v0
	c0,0.89,0.455,1.748,1.267,2.457"/>
<g>
	<line class="st16" x1="23.998" y1="25" x2="23.998" y2="30.854"/>
	<line class="st16" x1="19.083" y1="33.326" x2="24.002" y2="30.896"/>
	<line class="st16" x1="28.917" y1="33.326" x2="23.998" y2="30.896"/>
</g>
</svg>