<?xml version="1.0" encoding="utf-8"?>
<!-- Generator: Adobe Illustrator 23.0.3, SVG Export Plug-In . SVG Version: 6.00 Build 0)  -->
<svg version="1.1" id="Layer_2" xmlns="http://www.w3.org/2000/svg" xmlns:xlink="http://www.w3.org/1999/xlink" x="0px" y="0px"
	 viewBox="0 0 48 48" style="enable-background:new 0 0 48 48;" xml:space="preserve">
<style type="text/css">
	.st0{fill:#8CE7F2;}
	.st1{fill:#FFE082;}
	.st2{fill:none;stroke:#000000;stroke-width:3;stroke-linecap:round;stroke-linejoin:round;stroke-miterlimit:10;}
	.st3{fill:none;stroke:#000000;stroke-width:3;stroke-linecap:round;stroke-linejoin:round;}
	.st4{fill:none;stroke:#000000;stroke-width:3;stroke-linecap:round;}
	.st5{fill:none;stroke:#000000;stroke-width:3;stroke-miterlimit:10;}
	.st6{fill:none;stroke:#000000;stroke-width:3;}
	.st7{fill:none;stroke:#000000;stroke-width:3;stroke-linecap:round;stroke-miterlimit:10;}
	.st8{fill:none;stroke:#000000;stroke-width:4;stroke-linecap:round;stroke-miterlimit:10;}
	.st9{fill:none;stroke:#000000;stroke-width:3;stroke-linecap:round;stroke-linejoin:round;stroke-miterlimit:5;}
	.st10{fill:#A5D6A7;}
	.st11{fill:#9FA8DA;}
	.st12{fill:#F48FB1;}
	.st13{fill:#90CAF9;}
	.st14{fill:#FFAB91;}
	.st15{fill:none;stroke:#18193F;stroke-width:3;stroke-linecap:round;stroke-linejoin:round;stroke-miterlimit:10;}
	.st16{fill:none;stroke:#18193F;stroke-width:3;stroke-linecap:round;stroke-linejoin:round;}
	.st17{fill:#18193F;}
	.st18{fill:none;stroke:#18193F;stroke-width:3;stroke-linecap:round;}
	.st19{fill:none;stroke:#18193F;stroke-width:3;stroke-miterlimit:10;}
	.st20{fill:none;stroke:#18193F;stroke-width:3;}
	.st21{fill:none;stroke:#18193F;stroke-width:3;stroke-linecap:round;stroke-miterlimit:10;}
	.st22{fill:none;stroke:#18193F;stroke-width:4;stroke-linecap:round;stroke-miterlimit:10;}
	.st23{fill:none;stroke:#18193F;stroke-width:3;stroke-linecap:round;stroke-linejoin:round;stroke-miterlimit:5;}
	.st24{fill:none;stroke:#000000;stroke-width:3;stroke-miterlimit:20;}
	.st25{fill:none;stroke:#000000;stroke-width:3;stroke-linejoin:round;}
	.st26{fill:none;stroke:#000000;stroke-width:2;stroke-linecap:round;stroke-linejoin:round;}
	.st27{fill:none;stroke:#18193F;stroke-width:3;stroke-miterlimit:20;}
	.st28{fill:none;stroke:#18193F;stroke-width:3;stroke-linejoin:round;}
	.st29{fill:none;stroke:#18193F;stroke-width:2;stroke-linecap:round;stroke-linejoin:round;}
</style>
<path class="st11" d="M44.9,15H13c-0.6,0-1.1,0.6-1,1.2l3.1,16.5c0.4,2.5,2.6,4.3,5.2,4.3h19.9l0,0c2.5,0,4.7-1.8,5.1-4.3l2.6-14
	C48.3,16.8,46.9,15,44.9,15z"/>
<path class="st16" d="M27.7,32.5H17.6c-2.4,0-4.5-1.7-4.9-4.1L9.5,11.5"/>
<path class="st16" d="M33,11.5h7.9c1.9,0,3.3,1.7,2.9,3.6l-2.5,13.3c-0.4,2.4-2.5,4.1-4.9,4.1"/>
<path class="st16" d="M9.5,11.5h11.6"/>
<path class="st16" d="M9.5,11.5L9.2,9.9C8.9,8.5,7.7,7.5,6.3,7.5H3.5"/>
<circle class="st17" cx="20" cy="39" r="3"/>
<circle class="st17" cx="34" cy="39" r="3"/>
<line class="st16" x1="27.5" y1="6.5" x2="27.5" y2="21.5"/>
<polyline class="st16" points="32.5,18.5 27.5,23.5 22.5,18.5 "/>
</svg>