<?xml version="1.0" encoding="iso-8859-1"?>
<!-- Generator: Adobe Illustrator 23.0.3, SVG Export Plug-In . SVG Version: 6.00 Build 0)  -->
<svg version="1.1" id="Layer_1" xmlns="http://www.w3.org/2000/svg" xmlns:xlink="http://www.w3.org/1999/xlink" x="0px" y="0px"
	 viewBox="0 0 48 48" style="enable-background:new 0 0 48 48;" xml:space="preserve">
<path style="fill:#A5D6A7;" d="M17,40h21c1.657,0,3-1.343,3-3V18c0-1.657-1.343-3-3-3H17c-1.657,0-3,1.343-3,3v19
	C14,38.657,15.343,40,17,40z"/>
<path style="fill:none;stroke:#18193F;stroke-width:3;stroke-linecap:round;stroke-linejoin:round;stroke-miterlimit:10;" d="
	M13.319,7.5H13.5c1.105,0,2,0.895,2,2v4c0,1.105-0.895,2-2,2h-5c-1.105,0-2-0.895-2-2v-4c0-1.105,0.895-2,2-2"/>
<line style="fill:none;stroke:#18193F;stroke-width:3;stroke-linecap:round;stroke-linejoin:round;stroke-miterlimit:10;" x1="21.5" y1="36.5" x2="15.5" y2="36.5"/>
<path style="fill:none;stroke:#18193F;stroke-width:3;stroke-linecap:round;stroke-linejoin:round;stroke-miterlimit:10;" d="
	M37.5,28.5v6c0,1.105-0.895,2-2,2h-5"/>
<path style="fill:none;stroke:#18193F;stroke-width:3;stroke-linecap:round;stroke-linejoin:round;stroke-miterlimit:10;" d="
	M30.5,11.5h5c1.105,0,2,0.895,2,2v6"/>
<line style="fill:none;stroke:#18193F;stroke-width:3;stroke-linecap:round;stroke-linejoin:round;stroke-miterlimit:10;" x1="15.5" y1="11.5" x2="21.5" y2="11.5"/>
<path style="fill:none;stroke:#18193F;stroke-width:3;stroke-linecap:round;stroke-linejoin:round;stroke-miterlimit:10;" d="
	M6.5,38.5v-4c0-1.105,0.895-2,2-2h5c1.105,0,2,0.895,2,2v4c0,1.105-0.895,2-2,2h-5C7.395,40.5,6.5,39.605,6.5,38.5z"/>
<path style="fill:none;stroke:#18193F;stroke-width:3;stroke-linecap:round;stroke-linejoin:round;stroke-miterlimit:10;" d="
	M21.5,13.5v-4c0-1.105,0.895-2,2-2h5c1.105,0,2,0.895,2,2v4c0,1.105-0.895,2-2,2h-5C22.395,15.5,21.5,14.605,21.5,13.5z"/>
<path style="fill:none;stroke:#18193F;stroke-width:3;stroke-linecap:round;stroke-linejoin:round;stroke-miterlimit:10;" d="
	M23.5,40.5c-1.105,0-2-0.895-2-2v-4c0-1.105,0.895-2,2-2h5c1.105,0,2,0.895,2,2v4c0,1.105-0.895,2-2,2"/>
<path style="fill:none;stroke:#18193F;stroke-width:3;stroke-linecap:round;stroke-linejoin:round;stroke-miterlimit:10;" d="
	M33.5,21.5c0-1.105,0.895-2,2-2h4c1.105,0,2,0.895,2,2v5c0,1.105-0.895,2-2,2h-4c-1.105,0-2-0.895-2-2"/>
</svg>