<?xml version="1.0" encoding="utf-8"?>
<!-- Generator: Adobe Illustrator 23.0.3, SVG Export Plug-In . SVG Version: 6.00 Build 0)  -->
<svg version="1.1" id="Layer_1" xmlns="http://www.w3.org/2000/svg" xmlns:xlink="http://www.w3.org/1999/xlink" x="0px" y="0px"
	 viewBox="0 0 48 48" style="enable-background:new 0 0 48 48;" xml:space="preserve">
<style type="text/css">
	.st0{fill:none;stroke:#000000;stroke-width:3;stroke-linecap:round;stroke-miterlimit:10;}
	.st1{fill:none;stroke:#000000;stroke-width:3;stroke-linecap:round;stroke-linejoin:round;}
	.st2{fill:none;stroke:#000000;stroke-width:3;stroke-linecap:round;stroke-linejoin:round;stroke-miterlimit:10;}
	.st3{fill:none;stroke:#000000;stroke-width:3;stroke-linecap:round;}
	.st4{fill:#8CE7F2;}
	.st5{fill:#9FA8DA;}
	.st6{fill:#A5D6A7;}
	.st7{fill:#FFE082;}
	.st8{fill:#90CAF9;}
	.st9{fill:#FFAB91;}
	.st10{fill:#F48FB1;}
	.st11{fill:none;stroke:#18193F;stroke-width:3;stroke-linecap:round;stroke-linejoin:round;stroke-miterlimit:10;}
	.st12{fill:#18193F;}
	.st13{fill:none;stroke:#18193F;stroke-width:3;stroke-linecap:round;stroke-miterlimit:10;}
	.st14{fill:none;stroke:#18193F;stroke-width:3;stroke-linecap:round;stroke-linejoin:round;}
	.st15{fill:none;stroke:#18193F;stroke-width:3;stroke-linecap:round;}
	.st16{fill:none;stroke:#000000;stroke-width:3;}
	.st17{fill:none;stroke:#18193F;stroke-width:3;}
</style>
<path class="st6" d="M36.5,21L36.5,21c-1.9,0-3.4-1.5-3.4-3.3v-4.4c0-1.8,1.5-3.3,3.4-3.3l0,0c1.9,0,3.4,1.5,3.4,3.3v4.4
	C39.9,19.5,38.4,21,36.5,21z"/>
<path class="st6" d="M34.5,45.9L34.5,45.9c-1.9,0-3.5-1.4-3.5-3.2v-4.3c0-1.8,1.6-3.2,3.5-3.2l0,0c1.9,0,3.5,1.4,3.5,3.2v4.3
	C38,44.4,36.4,45.9,34.5,45.9z"/>
<path class="st6" d="M19.5,33.5L19.5,33.5c-1.9,0-3.4-1.5-3.4-3.3v-4.4c0-1.8,1.5-3.3,3.4-3.3l0,0c1.9,0,3.4,1.5,3.4,3.3v4.4
	C22.9,32,21.4,33.5,19.5,33.5z"/>
<line class="st14" x1="42.5" y1="11.5" x2="39.6" y2="11.5"/>
<line class="st14" x1="29.5" y1="11.5" x2="5.5" y2="11.5"/>
<line class="st14" x1="5.5" y1="36.5" x2="27.5" y2="36.5"/>
<line class="st14" x1="37.6" y1="36.5" x2="42.5" y2="36.5"/>
<line class="st14" x1="5.5" y1="24" x2="12.5" y2="24"/>
<line class="st14" x1="23.4" y1="24" x2="42.5" y2="24"/>
<path class="st14" d="M35.5,9.5v4c0,1.7-1.3,3-3,3l0,0c-1.7,0-3-1.3-3-3v-4c0-1.7,1.3-3,3-3"/>
<path class="st14" d="M32.5,40.7c-0.5,0.5-1.2,0.8-2,0.8"/>
<path class="st14" d="M27.5,38.5v-4c0-1.7,1.3-3,3-3l0,0c1.7,0,3,1.3,3,3v4c0,0.9-0.4,1.7-1,2.2"/>
<path class="st14" d="M15.5,29L15.5,29c-1.7,0-3-1.3-3-3v-4c0-1.7,1.3-3,3-3l0,0c1.7,0,3,1.3,3,3v4C18.5,27.7,17.2,29,15.5,29z"/>
</svg>