<?xml version="1.0" encoding="utf-8"?>
<!-- Generator: Adobe Illustrator 23.0.3, SVG Export Plug-In . SVG Version: 6.00 Build 0)  -->
<svg version="1.1" id="Layer_1" xmlns="http://www.w3.org/2000/svg" xmlns:xlink="http://www.w3.org/1999/xlink" x="0px" y="0px"
	 viewBox="0 0 48 48" style="enable-background:new 0 0 48 48;" xml:space="preserve">
<style type="text/css">
	.st0{fill:#A5D6A7;}
	.st1{fill:none;stroke:#000000;stroke-width:3;stroke-linecap:round;stroke-linejoin:round;}
	.st2{fill:none;stroke:#000000;stroke-width:3;stroke-linecap:round;}
	.st3{fill:none;stroke:#000000;stroke-width:3;stroke-linecap:round;stroke-linejoin:round;stroke-miterlimit:10;}
	.st4{fill:none;stroke:#000000;stroke-width:3;stroke-miterlimit:10;}
	.st5{fill:none;stroke:#000000;stroke-width:3;}
	.st6{fill:#8CE7F2;}
	.st7{fill:#FFAB91;}
	.st8{fill:#9FA8DA;}
	.st9{fill:#90CAF9;}
	.st10{fill:#FFE082;}
	.st11{fill:#F48FB1;}
	.st12{fill:none;stroke:#18193F;stroke-width:3;stroke-linecap:round;stroke-linejoin:round;}
	.st13{fill:none;stroke:#18193F;stroke-width:3;stroke-linecap:round;}
	.st14{fill:none;stroke:#18193F;stroke-width:3;stroke-linecap:round;stroke-linejoin:round;stroke-miterlimit:10;}
	.st15{fill:#18193F;}
	.st16{fill:none;stroke:#18193F;stroke-width:3;stroke-miterlimit:10;}
	.st17{fill:none;stroke:#18193F;stroke-width:3;}
</style>
<path class="st0" d="M17.9,19h-6.8c-0.6,0-1.1-0.5-1.1-1.1v-6.8c0-0.6,0.5-1.1,1.1-1.1h6.8c0.6,0,1.1,0.5,1.1,1.1v6.8
	C19,18.5,18.5,19,17.9,19z"/>
<path class="st0" d="M17.9,32.5h-6.8c-0.6,0-1.1-0.5-1.1-1.1v-6.8c0-0.6,0.5-1.1,1.1-1.1h6.8c0.6,0,1.1,0.5,1.1,1.1v6.8
	C19,32,18.5,32.5,17.9,32.5z"/>
<path class="st0" d="M17.9,46h-6.8c-0.6,0-1.1-0.5-1.1-1.1v-6.8c0-0.6,0.5-1.1,1.1-1.1h6.8c0.6,0,1.1,0.5,1.1,1.1v6.8
	C19,45.5,18.5,46,17.9,46z"/>
<line class="st13" x1="20.5" y1="10.5" x2="41.5" y2="10.5"/>
<line class="st13" x1="20.5" y1="37.5" x2="41.5" y2="37.5"/>
<line class="st13" x1="20.5" y1="24" x2="41.5" y2="24"/>
<path class="st12" d="M6.5,8.3V7.5c0-0.6,0.4-1,1-1h6c0.6,0,1,0.4,1,1v6c0,0.6-0.4,1-1,1h-6c-0.6,0-1-0.4-1-1V13"/>
<path class="st12" d="M7.5,41.5c-0.6,0-1-0.4-1-1v-6c0-0.6,0.4-1,1-1h6c0.6,0,1,0.4,1,1v6c0,0.6-0.4,1-1,1"/>
<path class="st12" d="M14.5,26.4V27c0,0.6-0.4,1-1,1h-6c-0.6,0-1-0.4-1-1v-6c0-0.6,0.4-1,1-1h6c0.6,0,1,0.4,1,1v0.7"/>
</svg>