<?xml version="1.0" encoding="iso-8859-1"?>
<!-- Generator: Adobe Illustrator 23.0.3, SVG Export Plug-In . SVG Version: 6.00 Build 0)  -->
<svg version="1.1" id="Layer_1" xmlns="http://www.w3.org/2000/svg" xmlns:xlink="http://www.w3.org/1999/xlink" x="0px" y="0px"
	 viewBox="0 0 48 48" style="enable-background:new 0 0 48 48;" xml:space="preserve">
<path style="fill:#8CE7F2;" d="M47,38.813v-14.65c0-1.955-1.759-3.44-3.686-3.113l-17.838,3.03C23.469,24.421,22,26.156,22,28.188
	v14.641c0,1.96,1.763,3.448,3.695,3.12l17.829-3.028C45.531,42.579,47,40.844,47,38.813z"/>
<path style="fill:none;stroke:#18193F;stroke-width:3;stroke-linecap:round;stroke-linejoin:round;stroke-miterlimit:10;" d="
	M29.033,40.264l10.13-1.72C41.09,38.216,42.5,36.55,42.5,34.6V20.5c0-1.858-1.676-3.269-3.512-2.957l-1.715,0.291"/>
<path style="fill:none;stroke:#18193F;stroke-width:3;stroke-linecap:round;stroke-linejoin:round;stroke-miterlimit:10;" d="
	M32.508,18.644l-10.671,1.812C19.91,20.784,18.5,22.45,18.5,24.4v14.1c0,1.858,1.676,3.269,3.512,2.957l2.297-0.39"/>
<path style="fill:none;stroke:#18193F;stroke-width:3;stroke-linecap:round;stroke-linejoin:round;stroke-miterlimit:10;" d="
	M12.5,36v0.5"/>
<path style="fill:none;stroke:#18193F;stroke-width:3;stroke-linecap:round;stroke-linejoin:round;stroke-miterlimit:10;" d="
	M36.442,11.947l-20.613,3.51C13.906,15.784,12.5,17.45,12.5,19.4v12.302"/>
<path style="fill:none;stroke:#18193F;stroke-width:3;stroke-linecap:round;stroke-linejoin:round;stroke-miterlimit:10;" d="
	M18.873,8.917l-9.044,1.54C7.906,10.784,6.5,12.45,6.5,14.4v17.1"/>
<path style="fill:none;stroke:#18193F;stroke-width:3;stroke-linecap:round;stroke-linejoin:round;stroke-miterlimit:10;" d="
	M30.442,6.947l-6.097,1.038"/>
</svg>