<?xml version="1.0" encoding="utf-8"?>
<!-- Generator: Adobe Illustrator 23.0.3, SVG Export Plug-In . SVG Version: 6.00 Build 0)  -->
<svg version="1.1" id="Layer_1" xmlns="http://www.w3.org/2000/svg" xmlns:xlink="http://www.w3.org/1999/xlink" x="0px" y="0px"
	 viewBox="0 0 48 48" style="enable-background:new 0 0 48 48;" xml:space="preserve">
<style type="text/css">
	.st0{fill:none;stroke:#000000;stroke-width:3;stroke-linecap:round;stroke-linejoin:round;stroke-miterlimit:10;}
	.st1{fill:none;stroke:#000000;stroke-width:3;stroke-miterlimit:10;}
	.st2{fill:none;stroke:#000000;stroke-width:3;stroke-linecap:round;}
	.st3{fill:none;stroke:#000000;stroke-width:3;stroke-linecap:round;stroke-linejoin:round;}
	.st4{fill:none;stroke:#000000;stroke-width:3;stroke-linecap:round;stroke-linejoin:round;stroke-miterlimit:10.417;}
	.st5{fill:none;stroke:#000000;stroke-width:3;stroke-linecap:round;stroke-miterlimit:10;}
	.st6{fill:#FFFFFF;stroke:#000000;stroke-width:3;stroke-linecap:round;stroke-linejoin:round;stroke-miterlimit:10;}
	.st7{fill:none;stroke:#000000;stroke-width:3;}
	.st8{fill:#90CAF9;}
	.st9{fill:#8CE7F2;}
	.st10{fill:#9FA8DA;}
	.st11{fill:#A5D6A7;}
	.st12{fill:#F48FB1;}
	.st13{fill:#FFAB91;}
	.st14{fill:#FFE082;}
	.st15{fill:none;stroke:#18193F;stroke-width:3;stroke-linecap:round;stroke-linejoin:round;stroke-miterlimit:10;}
	.st16{fill:none;stroke:#18193F;stroke-width:3;stroke-linecap:round;}
	.st17{fill:none;stroke:#18193F;stroke-width:3;stroke-linecap:round;stroke-linejoin:round;}
	.st18{fill:#18193F;}
	.st19{fill:none;stroke:#18193F;stroke-width:3;stroke-miterlimit:10;}
	.st20{fill:none;stroke:#18193F;stroke-width:3;stroke-linecap:round;stroke-linejoin:round;stroke-miterlimit:10.417;}
	.st21{fill:none;stroke:#18193F;stroke-width:3;stroke-linecap:round;stroke-miterlimit:10;}
	.st22{fill:#FFFFFF;stroke:#18193F;stroke-width:3;stroke-linecap:round;stroke-linejoin:round;stroke-miterlimit:10;}
	.st23{fill:none;stroke:#18193F;stroke-width:3;}
</style>
<path class="st12" d="M42.1,19H41v-4c0-1.1-0.9-2-2-2h-6c-1.1,0-2,0.9-2,2v4h-6v-4c0-1.1-0.9-2-2-2h-6c-1.1,0-2,0.9-2,2v4h-1.1
	c-2.1,0-3.9,1.7-3.9,3.9v16.3c0,2.1,1.7,3.9,3.9,3.9h28.3c2.1,0,3.9-1.7,3.9-3.9V22.9C46,20.7,44.3,19,42.1,19z"/>
<path class="st17" d="M29.6,39.5H9.5c-2.2,0-4-1.8-4-4v-8.8"/>
<path class="st17" d="M5.5,21v-2.5c0-2.2,1.8-4,4-4h29c2.2,0,4,1.8,4,4v17c0,2.2-1.8,4-4,4h-1.2"/>
<path class="st17" d="M10.5,14.5v-4c0-1.1,0.9-2,2-2h6c1.1,0,2,0.9,2,2v4"/>
<path class="st17" d="M27.5,14.5v-4c0-1.1,0.9-2,2-2h6c1.1,0,2,0.9,2,2v4"/>
</svg>