<?xml version="1.0" encoding="iso-8859-1"?>
<!-- Generator: Adobe Illustrator 27.2.0, SVG Export Plug-In . SVG Version: 6.00 Build 0)  -->
<svg version="1.1" id="Layer_1" xmlns="http://www.w3.org/2000/svg" xmlns:xlink="http://www.w3.org/1999/xlink" x="0px" y="0px"
	 viewBox="0 0 48 48" style="enable-background:new 0 0 48 48;" xml:space="preserve">
<style type="text/css">
	.st0{fill:none;stroke:#000000;stroke-width:3;stroke-linecap:round;stroke-miterlimit:10;}
	.st1{fill:none;stroke:#000000;stroke-width:3;stroke-linecap:round;stroke-linejoin:round;stroke-miterlimit:10;}
	.st2{fill:#FFAB91;}
	.st3{fill:none;stroke:#000000;stroke-width:3;}
	.st4{fill:#8CE7F2;}
	.st5{fill:none;stroke:#18193F;stroke-width:3;stroke-linecap:round;stroke-linejoin:round;stroke-miterlimit:10;}
	.st6{fill:#18193F;}
	.st7{fill:none;stroke:#000000;stroke-width:3;stroke-linecap:round;stroke-linejoin:round;stroke-miterlimit:9.9999;}
	.st8{fill:none;stroke:#000000;stroke-width:3;stroke-linecap:round;}
	.st9{fill:none;stroke:#000000;stroke-width:3;stroke-linecap:round;stroke-linejoin:round;}
	.st10{fill:none;stroke:#000000;stroke-width:3;stroke-miterlimit:10;}
	.st11{fill:#9FA8DA;}
	.st12{fill:#90CAF9;}
	.st13{fill:#F48FB1;}
	.st14{fill:#A5D6A7;}
	.st15{fill:#FFE082;}
	.st16{fill:none;stroke:#18193F;stroke-width:3;stroke-linecap:round;stroke-miterlimit:10;}
	.st17{fill:none;stroke:#18193F;stroke-width:3;}
	.st18{fill:none;stroke:#18193F;stroke-width:3;stroke-linecap:round;stroke-linejoin:round;stroke-miterlimit:9.9999;}
	.st19{fill:none;stroke:#18193F;stroke-width:3;stroke-linecap:round;}
	.st20{fill:none;stroke:#18193F;stroke-width:3;stroke-linecap:round;stroke-linejoin:round;}
	.st21{fill:none;stroke:#18193F;stroke-width:3;stroke-miterlimit:10;}
</style>
<circle class="st12" cx="28" cy="28" r="17.938"/>
<path class="st5" d="M7.346,15.985L7.169,17.6c-0.141,1.289,1.522,1.924,2.276,0.869l5.236-7.331
	c0.51-0.714,0.151-1.718-0.696-1.947L9.68,8.027C8.934,7.826,8.184,8.337,8.1,9.105"/>
<path class="st5" d="M33.637,8.357c-0.111-1.003-1.333-1.431-2.046-0.718l-2.477,2.477l-2.761-0.345
	c-0.873-0.109-1.564,0.725-1.294,1.562l1.16,3.609v1.805c0,0.821,0.804,1.401,1.583,1.141l3.628-1.209l2.413,0.772
	c0.966,0.309,1.857-0.642,1.486-1.586l-1.197-3.047"/>
<path class="st5" d="M20.954,39.451c-0.213,0.877-1.304,1.183-1.942,0.545l-3.742-3.742l-6.183,2.554
	c-0.919,0.379-1.857-0.5-1.537-1.441l2.708-7.981L7.48,27.6c-0.877-0.564-0.619-1.908,0.403-2.108l5.715-1.118"/>
<path class="st5" d="M16.462,20.997l2.192-2.585c0.713-0.841,2.086-0.303,2.038,0.798l-0.225,5.164h6.934
	c0.79,0,1.347,0.774,1.097,1.523l-1.163,3.489l2.179,4.359c0.415,0.83-0.267,1.787-1.188,1.664l-6.189-0.825"/>
<path class="st5" d="M34.803,26.119l0.53-2.12c0.087-0.347,0.352-0.621,0.695-0.719l2.249-0.642c0.349-0.1,0.725-0.002,0.982,0.254
	l1.596,1.596c0.246,0.246,0.346,0.601,0.266,0.939l-0.537,2.257c-0.084,0.352-0.351,0.631-0.698,0.73l-2.22,0.634
	c-0.36,0.103-0.748-0.004-1.004-0.278l-1.617-1.724C34.811,26.797,34.72,26.448,34.803,26.119z"/>
<path class="st5" d="M34.034,40.605c-0.469-0.092-0.808-0.503-0.808-0.981v-2.13c0-0.511,0.385-0.939,0.893-0.994l4.173-0.451
	c0.499-0.054,0.961,0.27,1.079,0.758l0.868,3.567c0.172,0.709-0.448,1.358-1.164,1.218"/>
</svg>