<?xml version="1.0" encoding="iso-8859-1"?>
<!-- Generator: Adobe Illustrator 23.0.3, SVG Export Plug-In . SVG Version: 6.00 Build 0)  -->
<svg version="1.1" id="Layer_1" xmlns="http://www.w3.org/2000/svg" xmlns:xlink="http://www.w3.org/1999/xlink" x="0px" y="0px"
	 viewBox="0 0 48 48" style="enable-background:new 0 0 48 48;" xml:space="preserve">
<path style="fill:#8CE7F2;" d="M44.137,29H11.863C10.834,29,10,28.143,10,27.085V13.915C10,12.857,10.834,12,11.863,12h32.274
	C45.166,12,46,12.857,46,13.915v13.171C46,28.143,45.166,29,44.137,29z"/>
<path style="fill:none;stroke:#18193F;stroke-width:3;stroke-linecap:round;stroke-linejoin:round;stroke-miterlimit:10;" d="
	M21.936,25.5H6.5c-1.105,0-2-0.895-2-2v-14c0-1.105,0.895-2,2-2h7.096"/>
<path style="fill:none;stroke:#18193F;stroke-width:3;stroke-linecap:round;stroke-linejoin:round;stroke-miterlimit:10;" d="
	M18.532,7.5H41.5c1.105,0,2,0.895,2,2v14c0,1.105-0.895,2-2,2H28.319"/>
<line style="fill:none;stroke:#18193F;stroke-width:3;stroke-miterlimit:10;" x1="9.5" y1="8.5" x2="9.5" y2="26"/>
<line style="fill:none;stroke:#18193F;stroke-width:3;stroke-miterlimit:10;" x1="38.5" y1="8.5" x2="38.5" y2="26"/>
<line style="fill:none;stroke:#18193F;stroke-width:3;stroke-linecap:round;stroke-linejoin:round;stroke-miterlimit:10;" x1="9.5" y1="13.5" x2="33.596" y2="13.5"/>
<line style="fill:none;stroke:#18193F;stroke-width:3;stroke-linecap:round;stroke-linejoin:round;stroke-miterlimit:10;" x1="10.021" y1="19.5" x2="38.5" y2="19.5"/>
<path style="fill:none;stroke:#18193F;stroke-width:3;stroke-linecap:round;stroke-miterlimit:10;" d="M27.5,34.056v8.443
	c0,1.105-0.895,2-2,2h-3c-1.105,0-2-0.895-2-2v-8.443"/>
<path style="fill:none;stroke:#18193F;stroke-width:3;stroke-miterlimit:10;" d="M31.773,26c0,4.293-3.48,7.773-7.773,7.773
	s-7.773-3.48-7.773-7.773"/>
</svg>