<?xml version="1.0" encoding="iso-8859-1"?>
<!-- Generator: Adobe Illustrator 27.2.0, SVG Export Plug-In . SVG Version: 6.00 Build 0)  -->
<svg version="1.1" id="Layer_1" xmlns="http://www.w3.org/2000/svg" xmlns:xlink="http://www.w3.org/1999/xlink" x="0px" y="0px"
	 viewBox="0 0 48 48" style="enable-background:new 0 0 48 48;" xml:space="preserve">
<style type="text/css">
	.st0{fill:none;stroke:#000000;stroke-width:3;stroke-linecap:round;stroke-linejoin:round;stroke-miterlimit:10;}
	.st1{fill:none;stroke:#000000;stroke-width:3;stroke-miterlimit:10;}
	.st2{fill:none;stroke:#000000;stroke-width:3;stroke-linecap:round;stroke-linejoin:round;}
	.st3{fill:none;stroke:#000000;stroke-width:3;stroke-linejoin:round;stroke-miterlimit:10;}
	.st4{fill:none;stroke:#000000;stroke-width:3;stroke-linecap:round;stroke-miterlimit:10;}
	.st5{fill:none;stroke:#000000;stroke-width:3;stroke-miterlimit:5;}
	.st6{fill:none;stroke:#000000;stroke-width:3;stroke-linecap:round;}
	.st7{fill:#FFE082;}
	.st8{fill:#A5D6A7;}
	.st9{fill:#90CAF9;}
	.st10{fill:#FFAB91;}
	.st11{fill:#8CE7F2;}
	.st12{fill:#9FA8DA;}
	.st13{fill:#F48FB1;}
	.st14{fill:none;stroke:#18193F;stroke-width:3;stroke-linecap:round;stroke-linejoin:round;stroke-miterlimit:10;}
	.st15{fill:#18193F;}
	.st16{fill:none;stroke:#18193F;stroke-width:3;stroke-miterlimit:10;}
	.st17{fill:none;stroke:#18193F;stroke-width:3;stroke-linecap:round;stroke-linejoin:round;}
	.st18{fill:none;stroke:#18193F;stroke-width:3;stroke-linejoin:round;stroke-miterlimit:10;}
	.st19{fill:none;stroke:#18193F;stroke-width:3;stroke-linecap:round;stroke-miterlimit:10;}
	.st20{fill:none;stroke:#18193F;stroke-width:3;stroke-miterlimit:5;}
	.st21{fill:none;stroke:#18193F;stroke-width:3;stroke-linecap:round;}
</style>
<path class="st10" d="M45.091,41H10.909C9.302,41,8,39.698,8,38.091V17.909C8,16.302,9.302,15,10.909,15h34.183
	C46.698,15,48,16.302,48,17.909v20.183C48,39.698,46.698,41,45.091,41z"/>
<path class="st14" d="M14.37,37.5H6.5c-1.657,0-3-1.343-3-3v-21c0-1.657,1.343-3,3-3h8.245"/>
<path class="st14" d="M20.565,10.5H41.5c1.657,0,3,1.343,3,3v21c0,1.657-1.343,3-3,3H21.772"/>
<line class="st14" x1="33.674" y1="19.5" x2="44" y2="19.5"/>
<line class="st14" x1="4" y1="19.5" x2="28.163" y2="19.5"/>
<line class="st14" x1="4" y1="28.5" x2="40.033" y2="28.5"/>
<line class="st14" x1="24" y1="20" x2="24" y2="28.5"/>
<line class="st14" x1="14.5" y1="33.467" x2="14.5" y2="37.5"/>
<line class="st14" x1="33.5" y1="28.5" x2="33.5" y2="37"/>
<line class="st14" x1="14.5" y1="14.489" x2="14.5" y2="19"/>
<line class="st14" x1="33.5" y1="10.5" x2="33.5" y2="19"/>
</svg>