<?xml version="1.0" encoding="iso-8859-1"?>
<!-- Generator: Adobe Illustrator 27.2.0, SVG Export Plug-In . SVG Version: 6.00 Build 0)  -->
<svg version="1.1" id="Layer_1" xmlns="http://www.w3.org/2000/svg" xmlns:xlink="http://www.w3.org/1999/xlink" x="0px" y="0px"
	 viewBox="0 0 48 48" style="enable-background:new 0 0 48 48;" xml:space="preserve">
<style type="text/css">
	.st0{fill:none;stroke:#000000;stroke-width:3;stroke-linecap:round;stroke-linejoin:round;stroke-miterlimit:10;}
	.st1{fill:none;stroke:#000000;stroke-width:3;stroke-miterlimit:10;}
	.st2{fill:none;stroke:#000000;stroke-width:3;stroke-linecap:round;stroke-miterlimit:10;}
	.st3{fill:none;stroke:#000000;stroke-width:3;stroke-linecap:round;stroke-linejoin:round;}
	.st4{fill:none;stroke:#000000;stroke-width:3;stroke-linecap:round;stroke-linejoin:round;stroke-miterlimit:20;}
	.st5{fill:none;stroke:#000000;stroke-width:3;stroke-linejoin:round;stroke-miterlimit:10;}
	.st6{fill:none;stroke:#010101;stroke-width:3;stroke-linecap:round;stroke-linejoin:round;stroke-miterlimit:10;}
	.st7{fill:none;stroke:#010101;stroke-width:3;stroke-linecap:round;stroke-miterlimit:10;}
	.st8{fill:#FFAB91;}
	.st9{fill:#FFE082;}
	.st10{fill:#90CAF9;}
	.st11{fill:#8CE7F2;}
	.st12{fill:#A5D6A7;}
	.st13{fill:#F48FB1;}
	.st14{fill:#9FA8DA;}
	.st15{fill:none;stroke:#18193F;stroke-width:3;stroke-linecap:round;stroke-linejoin:round;stroke-miterlimit:10;}
	.st16{fill:none;stroke:#18193F;stroke-width:3;stroke-miterlimit:10;}
	.st17{fill:#18193F;}
	.st18{fill:none;stroke:#18193F;stroke-width:3;stroke-linecap:round;stroke-miterlimit:10;}
	.st19{fill:none;stroke:#18193F;stroke-width:3;stroke-linecap:round;stroke-linejoin:round;}
	.st20{fill:none;stroke:#18193F;stroke-width:3;stroke-linecap:round;stroke-linejoin:round;stroke-miterlimit:20;}
	.st21{fill:none;stroke:#18193F;stroke-width:3;stroke-linejoin:round;stroke-miterlimit:10;}
</style>
<path class="st9" d="M25.679,46.246L9.754,30.321c-1.28-1.28-1.28-3.361,0-4.641L25.679,9.754c1.28-1.28,3.361-1.28,4.641,0
	l15.926,15.926c1.28,1.28,1.28,3.361,0,4.641L30.321,46.246C29.041,47.527,26.959,47.527,25.679,46.246z"/>
<path class="st15" d="M30.925,37.642l-4.604,4.604c-1.28,1.28-3.361,1.28-4.641,0L5.754,26.321c-1.28-1.28-1.28-3.361,0-4.641
	l5.195-5.195"/>
<path class="st15" d="M16.765,10.668l4.914-4.914c1.28-1.28,3.361-1.28,4.641,0l15.926,15.926c1.28,1.28,1.28,3.361,0,4.641
	l-4.669,4.669"/>
<polyline class="st15" points="19.825,16.484 14.814,21.495 19.825,26.505 "/>
<path class="st18" d="M14.814,21.495H25.67c1.845,0,3.34,1.496,3.34,3.34v7.516"/>
</svg>