<?xml version="1.0" encoding="iso-8859-1"?>
<!-- Generator: Adobe Illustrator 23.0.3, SVG Export Plug-In . SVG Version: 6.00 Build 0)  -->
<svg version="1.1" id="Layer_1" xmlns="http://www.w3.org/2000/svg" xmlns:xlink="http://www.w3.org/1999/xlink" x="0px" y="0px"
	 viewBox="0 0 48 48" style="enable-background:new 0 0 48 48;" xml:space="preserve">
<path style="fill:#9FA8DA;" d="M34.76,22h2.133C39.161,22,41,23.839,41,26.107v16.787C41,45.161,39.161,47,36.893,47H19.107
	C16.839,47,15,45.161,15,42.893V26.107C15,23.839,16.839,22,19.107,22h2.133H34.76z"/>
<line style="fill:none;stroke:#18193F;stroke-width:3;stroke-linecap:round;stroke-linejoin:round;stroke-miterlimit:10;" x1="23.981" y1="29.5" x2="24" y2="8"/>
<polyline style="fill:none;stroke:#18193F;stroke-width:3;stroke-linecap:round;stroke-linejoin:round;stroke-miterlimit:10;" points="
	18,12 24,6 30,12 "/>
<path style="fill:none;stroke:#18193F;stroke-width:3;stroke-linecap:round;stroke-linejoin:round;stroke-miterlimit:10;" d="
	M23.596,42.5H15.5c-2.209,0-4-1.791-4-4v-16c0-2.209,1.791-4,4-4h2"/>
<path style="fill:none;stroke:#18193F;stroke-width:3;stroke-linecap:round;stroke-linejoin:round;stroke-miterlimit:10;" d="
	M30.5,18.5h2c2.209,0,4,1.791,4,4v16c0,2.209-1.791,4-4,4h-2.011"/>
</svg>