<?xml version="1.0" encoding="iso-8859-1"?>
<!-- Generator: Adobe Illustrator 27.2.0, SVG Export Plug-In . SVG Version: 6.00 Build 0)  -->
<svg version="1.1" id="Layer_1" xmlns="http://www.w3.org/2000/svg" xmlns:xlink="http://www.w3.org/1999/xlink" x="0px" y="0px"
	 viewBox="0 0 48 48" style="enable-background:new 0 0 48 48;" xml:space="preserve">
<style type="text/css">
	.st0{fill:none;stroke:#000000;stroke-width:3;stroke-linecap:round;stroke-linejoin:round;stroke-miterlimit:10;}
	.st1{fill:none;stroke:#000000;stroke-width:3;stroke-linejoin:round;stroke-miterlimit:10;}
	.st2{fill:none;stroke:#000000;stroke-width:3;stroke-linecap:round;stroke-linejoin:round;stroke-miterlimit:5;}
	.st3{fill:none;stroke:#000000;stroke-width:3;stroke-linecap:round;stroke-linejoin:round;}
	.st4{fill:none;stroke:#000000;stroke-width:3;stroke-linecap:round;stroke-miterlimit:10;}
	.st5{fill:none;stroke:#000000;stroke-width:3;stroke-miterlimit:10;}
	.st6{fill:none;stroke:#000000;stroke-width:3;stroke-linecap:round;stroke-linejoin:round;stroke-miterlimit:20;}
	.st7{stroke:#000000;stroke-width:3;stroke-linecap:round;stroke-linejoin:round;stroke-miterlimit:10;}
	.st8{fill:none;stroke:#000000;stroke-width:3;stroke-linecap:round;stroke-linejoin:round;stroke-miterlimit:9.9999;}
	.st9{fill:#9FA8DA;}
	.st10{fill:#FFE082;}
	.st11{fill:#90CAF9;}
	.st12{fill:#A5D6A7;}
	.st13{fill:#F48FB1;}
	.st14{fill:#FFAB91;}
	.st15{fill:#8CE7F2;}
	.st16{fill:none;stroke:#18193F;stroke-width:3;stroke-linecap:round;stroke-linejoin:round;stroke-miterlimit:10;}
	.st17{fill:#18193F;}
	.st18{fill:none;stroke:#18193F;stroke-width:3;stroke-linejoin:round;stroke-miterlimit:10;}
	.st19{fill:none;stroke:#18193F;stroke-width:3;stroke-linecap:round;stroke-linejoin:round;stroke-miterlimit:5;}
	.st20{fill:none;stroke:#18193F;stroke-width:3;stroke-linecap:round;stroke-linejoin:round;}
	.st21{fill:none;stroke:#18193F;stroke-width:3;stroke-linecap:round;stroke-miterlimit:10;}
	.st22{fill:none;stroke:#18193F;stroke-width:3;stroke-miterlimit:10;}
	.st23{fill:none;stroke:#18193F;stroke-width:3;stroke-linecap:round;stroke-linejoin:round;stroke-miterlimit:20;}
	.st24{stroke:#18193F;stroke-width:3;stroke-linecap:round;stroke-linejoin:round;stroke-miterlimit:10;}
	.st25{fill:none;stroke:#18193F;stroke-width:3;stroke-linecap:round;stroke-linejoin:round;stroke-miterlimit:9.9999;}
</style>
<path class="st10" d="M14.038,35.244h3.852v-3.864c0-1.067,0.862-1.932,1.926-1.932h3.852v-3.864c0-1.067,0.862-1.932,1.926-1.932
	h3.852V19.79c0-1.067,0.862-1.932,1.926-1.932h3.852v-3.864c0-1.067,0.862-1.932,1.926-1.932h4.815c1.064,0,1.926,0.865,1.926,1.932
	v28.012c0,1.067-0.862,1.932-1.926,1.932H14.038c-1.064,0-1.926-0.865-1.926-1.932v-4.83C12.112,36.109,12.974,35.244,14.038,35.244
	z"/>
<path class="st19" d="M31.633,40.5H9.5c-1.105,0-2-0.895-2-2v-5c0-1.105,0.895-2,2-2h4v-4c0-1.105,0.895-2,2-2h4"/>
<path class="st19" d="M19.5,21.5c0-1.105,0.895-2,2-2h4v-4c0-1.105,0.895-2,2-2h4v-4c0-1.105,0.895-2,2-2h5c1.105,0,2,0.895,2,2v29
	c0,1.105-0.895,2-2,2h-0.655"/>
<polyline class="st19" points="33.5,30.5 33.5,24.5 27.5,24.5 "/>
<line class="st19" x1="33" y1="25" x2="24.5" y2="33.5"/>
</svg>