<?xml version="1.0" encoding="iso-8859-1"?>
<!-- Generator: Adobe Illustrator 23.0.3, SVG Export Plug-In . SVG Version: 6.00 Build 0)  -->
<svg version="1.1" id="Layer_1" xmlns="http://www.w3.org/2000/svg" xmlns:xlink="http://www.w3.org/1999/xlink" x="0px" y="0px"
	 viewBox="0 0 48 48" style="enable-background:new 0 0 48 48;" xml:space="preserve">
<path style="fill:#8CE7F2;" d="M34.724,12h5.174C41.611,12,43,13.389,43,15.102v27.795C43,44.611,41.611,46,39.898,46H16.102
	C14.389,46,13,44.611,13,42.898V15.102C13,13.389,14.389,12,16.102,12h5.174H34.724z"/>
<path style="fill:none;stroke:#18193F;stroke-width:3;stroke-linecap:round;stroke-linejoin:round;stroke-miterlimit:10;" d="
	M9.5,14.532V11.5c0-1.657,1.343-3,3-3h5"/>
<path style="fill:none;stroke:#18193F;stroke-width:3;stroke-linecap:round;stroke-linejoin:round;stroke-miterlimit:10;" d="
	M21.532,41.5H12.5c-1.657,0-3-1.343-3-3V21.681"/>
<path style="fill:none;stroke:#18193F;stroke-width:3;stroke-linecap:round;stroke-linejoin:round;stroke-miterlimit:10;" d="
	M30.5,8.5h5c1.657,0,3,1.343,3,3v9.734"/>
<line style="fill:none;stroke:#18193F;stroke-width:3;stroke-linecap:round;stroke-linejoin:round;stroke-miterlimit:10;" x1="22.5" y1="18.5" x2="31.5" y2="18.5"/>
<path style="fill:none;stroke:#18193F;stroke-width:3;stroke-linecap:round;stroke-linejoin:round;stroke-miterlimit:10;" d="
	M27.5,4.5c-1.102,0-5.9,0-7,0c-1.657,0-3,1.343-3,3s1.343,3,3,3c1.1,0,5.898,0,7,0c1.657,0,3-1.343,3-3S29.157,4.5,27.5,4.5z"/>
<circle style="fill:#18193F;" cx="16.5" cy="18.5" r="1.5"/>
<circle style="fill:#18193F;" cx="16.5" cy="34.5" r="1.5"/>
<path style="fill:#18193F;" d="M16.5,28c-0.827,0-1.5-0.673-1.5-1.5s0.673-1.5,1.5-1.5s1.5,0.673,1.5,1.5S17.327,28,16.5,28z"/>
<path style="fill:none;stroke:#18193F;stroke-width:3;stroke-linecap:round;stroke-linejoin:round;stroke-miterlimit:10;" d="
	M34.291,44.474C29.376,44.111,25.5,40.008,25.5,35c0-5.247,4.253-9.5,9.5-9.5s9.5,4.253,9.5,9.5c0,2.139-0.707,4.112-1.899,5.7"/>
<polyline style="fill:none;stroke:#18193F;stroke-width:3;stroke-linecap:round;stroke-linejoin:round;stroke-miterlimit:10;" points="
	35,31 35,35 37.3,35 "/>
<line style="fill:none;stroke:#18193F;stroke-width:3;stroke-linecap:round;stroke-linejoin:round;stroke-miterlimit:10;" x1="22.5" y1="26.5" x2="29.415" y2="26.5"/>
<line style="fill:none;stroke:#18193F;stroke-width:3;stroke-linecap:round;stroke-linejoin:round;stroke-miterlimit:10;" x1="22.5" y1="34.5" x2="25.504" y2="34.5"/>
</svg>