<?xml version="1.0" encoding="iso-8859-1"?>
<!-- Generator: Adobe Illustrator 23.0.3, SVG Export Plug-In . SVG Version: 6.00 Build 0)  -->
<svg version="1.1" id="Layer_1" xmlns="http://www.w3.org/2000/svg" xmlns:xlink="http://www.w3.org/1999/xlink" x="0px" y="0px"
	 viewBox="0 0 48 48" style="enable-background:new 0 0 48 48;" xml:space="preserve">
<circle style="fill:#8CE7F2;" cx="28" cy="30" r="16"/>
<path style="fill:none;stroke:#18193F;stroke-width:3;stroke-linecap:round;stroke-linejoin:round;stroke-miterlimit:10;" d="
	M16.917,11.093C19.063,10.072,21.465,9.5,24,9.5c9.113,0,16.5,7.387,16.5,16.5c0,4.115-1.506,7.878-3.998,10.768"/>
<path style="fill:none;stroke:#18193F;stroke-width:3;stroke-linecap:round;stroke-linejoin:round;stroke-miterlimit:10;" d="
	M31.27,40.816C29.077,41.894,26.609,42.5,24,42.5c-9.113,0-16.5-7.387-16.5-16.5c0-3.344,0.995-6.456,2.705-9.056"/>
<circle style="fill:#18193F;" cx="24" cy="26" r="3"/>
<line style="fill:none;stroke:#18193F;stroke-width:3;stroke-linecap:round;stroke-linejoin:round;stroke-miterlimit:10;" x1="30.5" y1="19.5" x2="24" y2="26"/>
<line style="fill:none;stroke:#18193F;stroke-width:3;stroke-linecap:round;stroke-miterlimit:10;" x1="24" y1="9.5" x2="24" y2="5.5"/>
<line style="fill:none;stroke:#18193F;stroke-width:3;stroke-linecap:round;stroke-miterlimit:10;" x1="35.667" y1="14.333" x2="38.496" y2="11.504"/>
<line style="fill:none;stroke:#18193F;stroke-width:3;stroke-linecap:round;stroke-miterlimit:10;" x1="21.5" y1="4.5" x2="26.5" y2="4.5"/>
</svg>