<svg xmlns="http://www.w3.org/2000/svg"  viewBox="0 0 48 48" width="48px" height="48px"><path fill="#a5d6a7" d="M25.5,16.5h20c1.1,0,2-0.9,2-2s-0.9-2-2-2h-20c-1.1,0-2,0.9-2,2S24.4,16.5,25.5,16.5z"/><path fill="#a5d6a7" d="M45.5,39.5h-20c-1.1,0-2,0.9-2,2s0.9,2,2,2h20c1.1,0,2-0.9,2-2S46.6,39.5,45.5,39.5z"/><path fill="#a5d6a7" d="M45.5,26h-20c-1.1,0-2,0.9-2,2s0.9,2,2,2h20c1.1,0,2-0.9,2-2S46.6,26,45.5,26z"/><path fill="#a5d6a7" d="M19.1,9.1l-5.6,5.6l-2.6-2.6c-0.8-0.8-2-0.8-2.8,0s-0.8,2,0,2.8l4,4c0.4,0.4,0.9,0.6,1.4,0.6s1-0.2,1.4-0.6 l7-7c0.8-0.8,0.8-2,0-2.8S19.9,8.3,19.1,9.1z"/><path fill="#a5d6a7" d="M19.1,22.6l-5.6,5.6l-2.6-2.6c-0.8-0.8-2-0.8-2.8,0s-0.8,2,0,2.8l4,4c0.4,0.4,0.9,0.6,1.4,0.6s1-0.2,1.4-0.6 l7-7c0.8-0.8,0.8-2,0-2.8S19.9,21.8,19.1,22.6z"/><path fill="#a5d6a7" d="M19.1,36.1l-5.6,5.6l-2.6-2.6c-0.8-0.8-2-0.8-2.8,0s-0.8,2,0,2.8l4,4c0.4,0.4,0.9,0.6,1.4,0.6s1-0.2,1.4-0.6 l7-7c0.8-0.8,0.8-2,0-2.8S19.9,35.3,19.1,36.1z"/><line x1="29.7" x2="42.5" y1="10.5" y2="10.5" fill="none" stroke="#18193f" stroke-linecap="round" stroke-width="3"/><line x1="21.5" x2="24.7" y1="10.5" y2="10.5" fill="none" stroke="#18193f" stroke-linecap="round" stroke-width="3"/><line x1="39.1" x2="42.5" y1="37.5" y2="37.5" fill="none" stroke="#18193f" stroke-linecap="round" stroke-width="3"/><line x1="21.5" x2="33.1" y1="37.5" y2="37.5" fill="none" stroke="#18193f" stroke-linecap="round" stroke-width="3"/><line x1="34.3" x2="42.5" y1="24" y2="24" fill="none" stroke="#18193f" stroke-linecap="round" stroke-width="3"/><line x1="21.5" x2="28.9" y1="24" y2="24" fill="none" stroke="#18193f" stroke-linecap="round" stroke-width="3"/><polyline fill="none" stroke="#18193f" stroke-linecap="round" stroke-linejoin="round" stroke-width="3" points="5.5,9.5 9.5,13.5 16.5,6.5"/><polyline fill="none" stroke="#18193f" stroke-linecap="round" stroke-linejoin="round" stroke-width="3" points="5.5,23 9.5,27 16.5,20"/><polyline fill="none" stroke="#18193f" stroke-linecap="round" stroke-linejoin="round" stroke-width="3" points="5.5,36.5 9.5,40.5 16.5,33.5"/></svg>