<?xml version="1.0" encoding="utf-8"?>
<!-- Generator: Adobe Illustrator 27.2.0, SVG Export Plug-In . SVG Version: 6.00 Build 0)  -->
<svg version="1.1" id="Layer_1" xmlns="http://www.w3.org/2000/svg" xmlns:xlink="http://www.w3.org/1999/xlink" x="0px" y="0px"
	 viewBox="0 0 48 48" style="enable-background:new 0 0 48 48;" xml:space="preserve">
<style type="text/css">
	.st0{fill:none;stroke:#000000;stroke-width:3;stroke-linecap:round;stroke-linejoin:round;stroke-miterlimit:10;}
	.st1{fill:none;stroke:#000000;stroke-width:3;stroke-miterlimit:10;}
	.st2{fill:none;stroke:#000000;stroke-width:3;stroke-linecap:round;stroke-linejoin:round;}
	.st3{fill:none;stroke:#FF0000;stroke-width:3;stroke-linecap:round;stroke-linejoin:round;}
	.st4{fill:none;stroke:#000000;stroke-width:3;stroke-linejoin:round;stroke-miterlimit:10;}
	.st5{fill:none;stroke:#000000;stroke-width:3;stroke-linecap:round;stroke-miterlimit:10;}
	.st6{fill:none;stroke:#000000;stroke-width:3;stroke-linecap:round;stroke-linejoin:round;stroke-miterlimit:5;}
	.st7{fill:#9FA8DA;}
	.st8{fill:#FFE082;}
	.st9{fill:#90CAF9;}
	.st10{fill:#F48FB1;}
	.st11{fill:#8CE7F2;}
	.st12{fill:#FFAB91;}
	.st13{fill:#A5D6A7;}
	.st14{fill:none;stroke:#18193F;stroke-width:3;stroke-linecap:round;stroke-linejoin:round;stroke-miterlimit:10;}
	.st15{fill:#18193F;}
	.st16{fill:none;stroke:#18193F;stroke-width:3;stroke-miterlimit:10;}
	.st17{fill:none;stroke:#18193F;stroke-width:3;stroke-linecap:round;stroke-linejoin:round;}
	.st18{fill:none;stroke:#18193F;stroke-width:3;stroke-linejoin:round;stroke-miterlimit:10;}
	.st19{fill:none;stroke:#18193F;stroke-width:3;stroke-linecap:round;stroke-miterlimit:10;}
	.st20{fill:none;stroke:#18193F;stroke-width:3;stroke-linecap:round;stroke-linejoin:round;stroke-miterlimit:5;}
</style>
<path class="st11" d="M38.83,11h-21C14.06,11,11,16.6,11,23.5v20.21c0,0.76,0.8,1.26,1.49,0.92l2.18-1.08
	c0.33-0.16,0.72-0.14,1.03,0.06L17.78,45c0.34,0.23,0.79,0.23,1.14,0l2.01-1.33c0.34-0.23,0.79-0.23,1.14,0L24.08,45
	c0.34,0.23,0.79,0.23,1.14,0l2.09-1.38c0.31-0.2,0.7-0.23,1.03-0.06l2.18,1.08C31.2,44.98,32,44.48,32,43.71V36h6.83
	c3.77,0,6.83-5.6,6.83-12.5C45.65,16.6,42.59,11,38.83,11z"/>
<path class="st14" d="M40.43,17.79c0.04,0.56,0.07,1.13,0.07,1.71c0,6.63-2.91,12-6.5,12"/>
<path class="st14" d="M27.5,19.5c0-6.63,2.91-12,6.5-12c1.77,0,3.37,1.3,4.54,3.41"/>
<line class="st14" x1="27.5" y1="31.5" x2="34" y2="31.5"/>
<circle class="st15" cx="12.5" cy="22.5" r="1.5"/>
<circle class="st15" cx="17.5" cy="22.5" r="1.5"/>
<circle class="st15" cx="22.5" cy="22.5" r="1.5"/>
<ellipse class="st15" cx="34" cy="19.5" rx="1" ry="3.5"/>
<path class="st14" d="M27.5,19v19.88c0,0.74-0.78,1.23-1.45,0.89l-2.03-1.02c-0.32-0.16-0.7-0.14-1,0.06l-1.96,1.31
	c-0.34,0.22-0.77,0.22-1.11,0l-1.89-1.26c-0.34-0.22-0.77-0.22-1.11,0l-1.89,1.26c-0.34,0.22-0.77,0.22-1.11,0l-1.96-1.31
	c-0.3-0.2-0.68-0.22-1-0.06l-2.03,1.02c-0.66,0.33-1.45-0.15-1.45-0.89v-9.54"/>
<path class="st14" d="M7.5,21.9v-2.4c0-6.63,2.91-12,6.5-12h11.48"/>
</svg>