<?xml version="1.0" encoding="iso-8859-1"?>
<!-- Generator: Adobe Illustrator 27.2.0, SVG Export Plug-In . SVG Version: 6.00 Build 0)  -->
<svg version="1.1" id="Layer_1" xmlns="http://www.w3.org/2000/svg" xmlns:xlink="http://www.w3.org/1999/xlink" x="0px" y="0px"
	 viewBox="0 0 48 48" style="enable-background:new 0 0 48 48;" xml:space="preserve">
<style type="text/css">
	.st0{fill:none;stroke:#000000;stroke-width:3;stroke-linecap:round;stroke-linejoin:round;stroke-miterlimit:10;}
	.st1{fill:none;stroke:#000000;stroke-width:3;stroke-linecap:round;stroke-miterlimit:10;}
	.st2{fill:none;stroke:#000000;stroke-width:2;stroke-linecap:round;stroke-linejoin:round;stroke-miterlimit:10;}
	.st3{fill:none;stroke:#000000;stroke-width:3;stroke-miterlimit:10;}
	.st4{fill:none;stroke:#000000;stroke-width:3;stroke-linecap:round;stroke-linejoin:round;stroke-miterlimit:20;}
	.st5{fill:none;stroke:#000000;stroke-width:3;stroke-linejoin:round;stroke-miterlimit:10;}
	.st6{fill:#F48FB1;}
	.st7{fill:none;stroke:#000000;stroke-width:3;stroke-linecap:round;stroke-linejoin:round;}
	.st8{fill:none;stroke:#000000;stroke-width:3;stroke-linecap:round;stroke-miterlimit:20;}
	.st9{fill:#9FA8DA;}
	.st10{fill:#90CAF9;}
	.st11{fill:#FFAB91;}
	.st12{fill:#FFE082;}
	.st13{fill:#8CE7F2;}
	.st14{fill:#666666;}
	.st15{fill:#A5D6A7;}
	.st16{fill:none;stroke:#18193F;stroke-width:3;stroke-linecap:round;stroke-linejoin:round;stroke-miterlimit:10;}
	.st17{fill:none;stroke:#18193F;stroke-width:3;stroke-linecap:round;stroke-miterlimit:10;}
	.st18{fill:none;stroke:#18193F;stroke-width:2;stroke-linecap:round;stroke-linejoin:round;stroke-miterlimit:10;}
	.st19{fill:none;stroke:#18193F;stroke-width:3;stroke-miterlimit:10;}
	.st20{fill:#18193F;}
	.st21{fill:none;stroke:#18193F;stroke-width:3;stroke-linecap:round;stroke-linejoin:round;stroke-miterlimit:20;}
	.st22{fill:none;stroke:#18193F;stroke-width:3;stroke-linejoin:round;stroke-miterlimit:10;}
	.st23{fill:none;stroke:#18193F;stroke-width:3;stroke-linecap:round;stroke-linejoin:round;}
	.st24{fill:none;stroke:#18193F;stroke-width:3;stroke-linecap:round;stroke-miterlimit:20;}
</style>
<path class="st11" d="M25.956,46H11.044C9.915,46,9,45.085,9,43.956V14.81c0-0.826,0.497-1.57,1.26-1.887l7.456-3.097
	c0.502-0.208,1.066-0.208,1.568,0l7.456,3.097C27.503,13.24,28,13.984,28,14.81v29.147C28,45.085,27.085,46,25.956,46z"/>
<line class="st16" x1="28.789" y1="28.181" x2="23.892" y2="30.237"/>
<path class="st16" d="M23.5,23.894l17.256-7.242c0.509-0.214,1.095,0.026,1.309,0.535l1.548,3.688
	c0.214,0.509-0.026,1.095-0.535,1.309l-9.482,3.98"/>
<line class="st16" x1="30.649" y1="21.351" x2="28.962" y2="28.087"/>
<line class="st16" x1="37.55" y1="18.455" x2="35.983" y2="24.708"/>
<line class="st16" x1="3.5" y1="42.5" x2="25.5" y2="42.5"/>
<path class="st16" d="M5.5,24.5c0-5,4-9,9-9s9,4,9,9"/>
<polyline class="st16" points="3.5,10.5 14.5,5.5 25.5,10.5 "/>
<line class="st16" x1="5.5" y1="24" x2="5.5" y2="9.6"/>
<line class="st16" x1="5.5" y1="42.5" x2="5.5" y2="30.5"/>
<line class="st16" x1="23.5" y1="42.5" x2="23.5" y2="9.6"/>
<line class="st16" x1="23.5" y1="30.5" x2="10.38" y2="30.5"/>
</svg>