<?xml version="1.0" encoding="utf-8"?>
<!-- Generator: Adobe Illustrator 23.0.3, SVG Export Plug-In . SVG Version: 6.00 Build 0)  -->
<svg version="1.1" id="Layer_1" xmlns="http://www.w3.org/2000/svg" xmlns:xlink="http://www.w3.org/1999/xlink" x="0px" y="0px"
	 viewBox="0 0 48 48" style="enable-background:new 0 0 48 48;" xml:space="preserve">
<style type="text/css">
	.st0{fill:#A5D6A7;}
	.st1{fill:none;stroke:#000000;stroke-width:3;stroke-linecap:round;stroke-linejoin:round;}
	.st2{fill:none;stroke:#000000;stroke-width:3;stroke-linecap:round;}
	.st3{fill:none;stroke:#000000;stroke-width:3;stroke-linecap:round;stroke-linejoin:round;stroke-miterlimit:10;}
	.st4{fill:none;stroke:#000000;stroke-width:3;stroke-miterlimit:10;}
	.st5{fill:none;stroke:#000000;stroke-width:3;}
	.st6{fill:#8CE7F2;}
	.st7{fill:#FFAB91;}
	.st8{fill:#9FA8DA;}
	.st9{fill:#90CAF9;}
	.st10{fill:#FFE082;}
	.st11{fill:#F48FB1;}
	.st12{fill:none;stroke:#18193F;stroke-width:3;stroke-linecap:round;stroke-linejoin:round;}
	.st13{fill:none;stroke:#18193F;stroke-width:3;stroke-linecap:round;}
	.st14{fill:none;stroke:#18193F;stroke-width:3;stroke-linecap:round;stroke-linejoin:round;stroke-miterlimit:10;}
	.st15{fill:#18193F;}
	.st16{fill:none;stroke:#18193F;stroke-width:3;stroke-miterlimit:10;}
	.st17{fill:none;stroke:#18193F;stroke-width:3;}
</style>
<path class="st8" d="M36.4,30c2.1-0.2,4.2-1.1,5.8-2.7c2.4-2.4,3.3-5.9,2.5-9c-0.2-0.8-1.1-1.1-1.7-0.5l-4.6,4.6
	c-1.2,1.2-3,1.4-4.3,0.5c-1.9-1.2-2.1-3.8-0.6-5.3l4.7-4.7c0.6-0.6,0.3-1.5-0.5-1.7c-3.1-0.8-6.6,0.1-9,2.5c-2.7,2.7-3.4,6.6-2.2,10
	c-0.1,0.1-0.2,0.2-0.3,0.3l-6-6c0.6-0.9,0.3-2.1-0.7-2.7l-5.4-3.4c-0.4-0.3-0.9-0.2-1.2,0.1l-0.9,0.9c-0.3,0.3-0.4,0.8-0.1,1.2
	l3.4,5.4c0.6,1,1.8,1.2,2.7,0.7l6,6C19.8,30.4,13.6,36.6,13.2,37c-1.8,1.8-1.6,4.8,0.7,6.3c1.6,1.1,3.8,0.8,5.2-0.6l8.8-8.8
	c0.2,0.5,0.5,1,0.9,1.4l7.9,8c1.8,1.8,4.6,1.8,6.4,0c1.8-1.8,1.8-4.6,0-6.4L36.4,30z"/>
<path class="st12" d="M17.7,24.5c-3.9,3.9-8.2,8.2-8.5,8.5c-1.8,1.8-1.6,4.8,0.7,6.3c1.6,1.1,3.8,0.8,5.2-0.6l5.4-5.4"/>
<path class="st12" d="M37.7,23.7c0.2-0.1,0.3-0.3,0.5-0.5c2.4-2.4,3.3-5.9,2.5-9c-0.2-0.8-1.1-1.1-1.7-0.5l-4.6,4.6
	c-1.2,1.2-3,1.4-4.3,0.5c-1.9-1.2-2.1-3.8-0.6-5.3L34.2,9c0.6-0.6,0.3-1.5-0.5-1.7c-3.1-0.8-6.6,0.1-9,2.5c-1.3,1.3-2.1,2.9-2.5,4.5
	"/>
<path class="st12" d="M28,34.5l-3.2-3.2c-1.8-1.8-1.8-4.7,0-6.4l0,0c1.8-1.8,4.7-1.8,6.4,0l7.9,8c1.8,1.8,1.8,4.7,0,6.4
	c-1.8,1.8-4.7,1.8-6.4,0l-0.9-0.9"/>
<path class="st12" d="M8.9,8.1L8.1,8.9c-0.3,0.3-0.4,0.8-0.1,1.2l3.4,5.4c0.7,1.1,2.2,1.3,3.1,0.4l1.4-1.4c0.9-0.9,0.7-2.4-0.4-3.1
	l-5.4-3.4C9.8,7.7,9.3,7.7,8.9,8.1z"/>
<line class="st12" x1="15.4" y1="15.4" x2="24.5" y2="24.5"/>
</svg>