<?xml version="1.0" encoding="iso-8859-1"?>
<!-- Generator: Adobe Illustrator 23.0.3, SVG Export Plug-In . SVG Version: 6.00 Build 0)  -->
<svg version="1.1" id="Layer_1" xmlns="http://www.w3.org/2000/svg" xmlns:xlink="http://www.w3.org/1999/xlink" x="0px" y="0px"
	 viewBox="0 0 48 48" style="enable-background:new 0 0 48 48;" xml:space="preserve">
<path style="fill:#90CAF9;" d="M46.5,28c0-2.396-1.406-4.458-3.436-5.419c-0.496-0.235-0.731-0.793-0.522-1.3
	c0.894-2.171,0.465-4.759-1.299-6.523c-1.764-1.764-4.352-2.193-6.523-1.299c-0.508,0.209-1.066-0.025-1.3-0.522
	C32.459,10.906,30.396,9.5,28,9.5c-2.396,0-4.458,1.406-5.419,3.436c-0.235,0.496-0.793,0.731-1.3,0.522
	c-2.171-0.894-4.759-0.465-6.523,1.299c-1.764,1.764-2.193,4.352-1.299,6.523c0.209,0.508-0.025,1.066-0.522,1.3
	C10.906,23.541,9.5,25.604,9.5,28c0,2.396,1.406,4.458,3.436,5.419c0.496,0.235,0.731,0.793,0.522,1.3
	c-0.894,2.171-0.465,4.759,1.299,6.523c1.764,1.764,4.352,2.193,6.523,1.299c0.508-0.209,1.066,0.025,1.3,0.522
	C23.541,45.094,25.604,46.5,28,46.5c2.396,0,4.458-1.406,5.419-3.436c0.235-0.496,0.793-0.731,1.3-0.522
	c2.171,0.894,4.759,0.465,6.523-1.299c1.764-1.764,2.193-4.352,1.299-6.523c-0.209-0.508,0.025-1.066,0.522-1.3
	C45.094,32.459,46.5,30.396,46.5,28z"/>
<path style="fill:none;stroke:#18193F;stroke-width:3;stroke-linecap:round;stroke-linejoin:round;stroke-miterlimit:10;" d="
	M30.719,38.542c2.171,0.894,4.759,0.465,6.523-1.299c1.764-1.764,2.193-4.352,1.299-6.523c-0.209-0.508,0.025-1.066,0.522-1.3
	C41.094,28.459,42.5,26.396,42.5,24c0-2.396-1.406-4.458-3.436-5.419c-0.496-0.235-0.731-0.793-0.522-1.3
	c0.894-2.171,0.465-4.759-1.299-6.523c-1.764-1.764-4.352-2.193-6.523-1.299c-0.508,0.209-1.066-0.025-1.3-0.522
	C28.459,6.906,26.396,5.5,24,5.5"/>
<path style="fill:none;stroke:#18193F;stroke-width:3;stroke-linecap:round;stroke-linejoin:round;stroke-miterlimit:10;" d="
	M18.581,8.936c-0.235,0.496-0.793,0.731-1.3,0.522c-2.171-0.894-4.759-0.465-6.523,1.299c-1.764,1.764-2.193,4.352-1.299,6.523
	c0.209,0.508-0.025,1.066-0.522,1.3C6.906,19.541,5.5,21.604,5.5,24c0,2.396,1.406,4.458,3.436,5.419
	c0.496,0.235,0.731,0.793,0.522,1.3c-0.894,2.171-0.465,4.759,1.299,6.523c1.764,1.764,4.352,2.193,6.523,1.299
	c0.508-0.209,1.066,0.025,1.3,0.522C19.541,41.094,21.604,42.5,24,42.5c0.299,0,0.594-0.022,0.881-0.064"/>
<circle style="fill:#18193F;" cx="24" cy="34" r="2"/>
<path style="fill:none;stroke:#18193F;stroke-width:3;stroke-linecap:round;stroke-linejoin:round;stroke-miterlimit:10;" d="
	M24,27.5c0-4.429,4.5-3,4.5-8.5c0-2.485-2.015-4.5-4.5-4.5s-4.5,2.015-4.5,4.5v0.5"/>
</svg>