<?xml version="1.0" encoding="iso-8859-1"?>
<!-- Generator: Adobe Illustrator 27.2.0, SVG Export Plug-In . SVG Version: 6.00 Build 0)  -->
<svg version="1.1" id="Layer_1" xmlns="http://www.w3.org/2000/svg" xmlns:xlink="http://www.w3.org/1999/xlink" x="0px" y="0px"
	 viewBox="0 0 48 48" style="enable-background:new 0 0 48 48;" xml:space="preserve">
<style type="text/css">
	.st0{fill:none;stroke:#000000;stroke-width:3;stroke-linecap:round;stroke-linejoin:round;stroke-miterlimit:10;}
	.st1{fill:none;stroke:#000000;stroke-width:3;stroke-linecap:round;stroke-linejoin:round;stroke-miterlimit:5;}
	.st2{fill:#FFFFFF;stroke:#000000;stroke-width:3;stroke-linecap:round;stroke-linejoin:round;stroke-miterlimit:10;}
	
		.st3{fill-rule:evenodd;clip-rule:evenodd;fill:none;stroke:#000000;stroke-width:3;stroke-linecap:round;stroke-linejoin:round;stroke-miterlimit:10;}
	.st4{fill:none;stroke:#000000;stroke-width:3;stroke-linecap:round;stroke-miterlimit:5;}
	.st5{fill-rule:evenodd;clip-rule:evenodd;}
	.st6{fill:none;stroke:#000000;stroke-width:3;stroke-linecap:round;stroke-linejoin:round;}
	.st7{fill-rule:evenodd;clip-rule:evenodd;fill:none;}
	.st8{fill-rule:evenodd;clip-rule:evenodd;fill:none;stroke:#000000;stroke-width:3;stroke-linecap:round;stroke-linejoin:round;}
	.st9{fill:none;stroke:#000000;stroke-width:3;stroke-linecap:round;stroke-miterlimit:10;}
	.st10{fill:#90CAF9;}
	.st11{fill:none;stroke:#000000;stroke-width:3;stroke-linejoin:round;}
	.st12{fill:none;stroke:#000000;stroke-width:3;stroke-miterlimit:10;}
	.st13{fill:#FFAB91;}
	.st14{fill-rule:evenodd;clip-rule:evenodd;fill:#90CAF9;}
	.st15{fill:#A5D6A7;}
	.st16{fill-rule:evenodd;clip-rule:evenodd;fill:#FFAB91;}
	.st17{fill:#9FA8DA;}
	.st18{fill:#FFE082;}
	.st19{fill:#8CE7F2;}
	.st20{fill-rule:evenodd;clip-rule:evenodd;fill:#A5D6A7;}
	.st21{fill:#F48FB1;}
	.st22{fill:#808080;}
	.st23{fill:none;stroke:#18193F;stroke-width:3;stroke-linecap:round;stroke-linejoin:round;stroke-miterlimit:10;}
	.st24{fill:none;stroke:#18193F;stroke-width:3;stroke-linecap:round;stroke-linejoin:round;stroke-miterlimit:5;}
	.st25{fill:#18193F;}
	.st26{fill:#FFFFFF;stroke:#18193F;stroke-width:3;stroke-linecap:round;stroke-linejoin:round;stroke-miterlimit:10;}
	
		.st27{fill-rule:evenodd;clip-rule:evenodd;fill:none;stroke:#18193F;stroke-width:3;stroke-linecap:round;stroke-linejoin:round;stroke-miterlimit:10;}
	.st28{fill:none;stroke:#18193F;stroke-width:3;stroke-linecap:round;stroke-miterlimit:5;}
	.st29{fill-rule:evenodd;clip-rule:evenodd;fill:#18193F;}
	.st30{fill:none;stroke:#18193F;stroke-width:3;stroke-linecap:round;stroke-linejoin:round;}
	.st31{fill-rule:evenodd;clip-rule:evenodd;fill:none;stroke:#18193F;stroke-miterlimit:10;}
	.st32{fill-rule:evenodd;clip-rule:evenodd;fill:none;stroke:#18193F;stroke-width:3;stroke-linecap:round;stroke-linejoin:round;}
	.st33{fill:none;stroke:#18193F;stroke-width:3;stroke-linecap:round;stroke-miterlimit:10;}
	.st34{fill:none;stroke:#18193F;stroke-width:3;stroke-linejoin:round;}
	.st35{fill:none;stroke:#18193F;stroke-width:3;stroke-miterlimit:10;}
</style>
<path class="st13" d="M37,19.767v-9.703C37,8.924,36.076,8,34.936,8H21.064C19.924,8,19,8.924,19,10.064v9.701
	c-2.78,1.077-4.936,3.663-4.936,6.687v9.288c0,1.14,0.924,2.064,2.064,2.064H19v8.131C19,47.076,19.924,48,21.064,48h13.872
	C36.076,48,37,47.076,37,45.936v-8.131h2.866c1.14,0,2.064-0.924,2.064-2.064v-9.288C41.93,23.43,39.777,20.845,37,19.767z"/>
<path class="st23" d="M32.497,39.495V41.5c0,1.105-0.895,2-2,2h-13c-1.105,0-2-0.895-2-2V23.413c0-1.057,0.895-1.913,2-1.913h5"/>
<path class="st23" d="M25.497,21.5h5c1.105,0,2,0.856,2,1.913v10.016"/>
<path class="st23" d="M23.997,27v-8 M10.497,22.5c0-3.866,3.634-7,7.5-7h12c3.866,0,7.5,3.134,7.5,7v9c0,1.105-0.895,2-2,2h-2.924
	 M14.997,33.5h-2.5c-1.105,0-2-0.895-2-2v-3.745 M15.497,15V6.5c0-1.105,0.895-2,2-2h13c1.105,0,2,0.895,2,2v4.185"/>
<path class="st25" d="M23.997,34c-1.097,0-2,0.903-2,2s0.903,2,2,2s2-0.903,2-2S25.094,34,23.997,34z M23.997,25
	c-1.097,0-2,0.903-2,2s0.903,2,2,2s2-0.903,2-2S25.094,25,23.997,25z"/>
<circle class="st29" cx="23.997" cy="10" r="2"/>
</svg>