<?xml version="1.0" encoding="iso-8859-1"?>
<!-- Generator: Adobe Illustrator 23.0.3, SVG Export Plug-In . SVG Version: 6.00 Build 0)  -->
<svg version="1.1" id="Layer_1" xmlns="http://www.w3.org/2000/svg" xmlns:xlink="http://www.w3.org/1999/xlink" x="0px" y="0px"
	 viewBox="0 0 48 48" style="enable-background:new 0 0 48 48;" xml:space="preserve">
<path style="fill:#8CE7F2;" d="M48,21c0-3.038-2.5-6.5-7.5-6.5c-2.495,0-5.394,1.436-7.984,3.075l-0.155,0.084
	c-1.062-2.364-3.435-4.078-6.946-4.078c-6.397,0-9.702,6.487-16.26,7.635C8.781,21.281,8.5,21.591,8.5,21.97v20.715
	c0,0.458,0.403,0.82,0.858,0.769c3.975-0.446,4.695-3.953,9.144-3.953c4.752,0,4.752,4,9.503,4c4.748,0,4.748-4,9.496-4
	c4.448,0,5.168,3.507,9.14,3.953c0.455,0.051,0.858-0.311,0.858-0.769V23.288C47.818,22.589,48,21.816,48,21z"/>
<path style="fill:none;stroke:#18193F;stroke-width:3;stroke-linecap:round;stroke-linejoin:round;stroke-miterlimit:10;" d="
	M36.149,16.787c-2.33,1.947-1.085,5.681,2.351,5.713c3.037,0.028,5.5-2.462,5.5-5.5s-2.5-6.5-7.5-6.5
	c-1.175,0-2.439,0.318-3.718,0.826"/>
<path style="fill:none;stroke:#18193F;stroke-width:3;stroke-linecap:round;stroke-linejoin:round;stroke-miterlimit:10;" d="
	M20.5,16.5c-3.106,2.181-1.755,7.032,2.662,7C26.938,23.473,29,20.439,29,16.662s-2.702-7.081-7.585-7.081
	c-6.606,0-9.915,6.919-16.915,7.73"/>
<path style="fill:none;stroke:#18193F;stroke-width:3;stroke-linecap:round;stroke-linejoin:round;stroke-miterlimit:10;" d="
	M27.325,38.591c-0.84,0.527-1.854,0.909-3.32,0.909c-4.751,0-4.751-4-9.503-4s-4.751,4-9.503,4"/>
<path style="fill:none;stroke:#18193F;stroke-width:3;stroke-linecap:round;stroke-linejoin:round;stroke-miterlimit:10;" d="
	M43,39.5c-4.749,0-4.749-4-9.499-4c-0.223,0-0.436,0.009-0.639,0.026"/>
<path style="fill:none;stroke:#18193F;stroke-width:3;stroke-linecap:round;stroke-linejoin:round;stroke-miterlimit:10;" d="
	M8.533,30.453C7.65,31.051,6.592,31.5,4.999,31.5"/>
<path style="fill:none;stroke:#18193F;stroke-width:3;stroke-linecap:round;stroke-linejoin:round;stroke-miterlimit:10;" d="
	M43,31.5c-4.749,0-4.749-4-9.499-4c-4.748,0-4.748,4-9.496,4c-4.751,0-4.751-4-9.503-4"/>
</svg>