<?xml version="1.0" encoding="iso-8859-1"?>
<!-- Generator: Adobe Illustrator 27.2.0, SVG Export Plug-In . SVG Version: 6.00 Build 0)  -->
<svg version="1.1" id="Layer_1" xmlns="http://www.w3.org/2000/svg" xmlns:xlink="http://www.w3.org/1999/xlink" x="0px" y="0px"
	 viewBox="0 0 48 48" style="enable-background:new 0 0 48 48;" xml:space="preserve">
<style type="text/css">
	.st0{fill:none;stroke:#000000;stroke-width:3;stroke-linecap:round;stroke-linejoin:round;stroke-miterlimit:10;}
	.st1{fill:none;stroke:#000000;stroke-width:3;stroke-linecap:round;stroke-linejoin:round;}
	.st2{fill:none;stroke:#000000;stroke-width:3;stroke-linecap:round;stroke-miterlimit:10;}
	.st3{fill:none;stroke:#000000;stroke-width:3;stroke-miterlimit:10;}
	.st4{fill:none;stroke:#000000;stroke-width:3;stroke-linecap:round;stroke-linejoin:round;stroke-miterlimit:9.9999;}
	.st5{fill:none;stroke:#000000;stroke-width:3;stroke-linecap:round;}
	.st6{fill:#FFE082;}
	.st7{fill:#9FA8DA;}
	.st8{fill:#F48FB1;}
	.st9{fill:#90CAF9;}
	.st10{fill:#A5D6A7;}
	.st11{fill:#8CE7F2;}
	.st12{fill:#FFAB91;}
	.st13{fill:none;stroke:#18193F;stroke-width:3;stroke-linecap:round;stroke-linejoin:round;}
	.st14{fill:none;stroke:#18193F;stroke-width:3;stroke-linecap:round;stroke-linejoin:round;stroke-miterlimit:10;}
	.st15{fill:none;stroke:#18193F;stroke-width:3;stroke-linecap:round;stroke-miterlimit:10;}
	.st16{fill:#18193F;}
	.st17{fill:none;stroke:#18193F;stroke-width:3;stroke-miterlimit:10;}
	.st18{fill:none;stroke:#18193F;stroke-width:3;stroke-linecap:round;stroke-linejoin:round;stroke-miterlimit:9.9999;}
	.st19{fill:none;stroke:#18193F;stroke-width:3;stroke-linecap:round;}
</style>
<path class="st9" d="M45,38.294c0,2.3-2.497,3.732-4.482,2.57C39.319,40.162,38.097,39.5,36.5,39.5c-3.4,0-5.1,3-8.5,3s-5.1-3-8.5-3
	c-1.597,0-2.819,0.662-4.018,1.364C13.497,42.026,11,40.594,11,38.294V17.952c0-1.288,0.844-2.385,2.052-2.83
	C15.24,14.315,16.856,12.5,19.5,12.5c3.4,0,5.1,3,8.5,3s5.1-3,8.5-3c2.644,0,4.26,1.815,6.448,2.621
	C44.156,15.567,45,16.664,45,17.952V38.294z"/>
<path class="st14" d="M20.316,10.266C21.412,10.917,22.546,11.5,24,11.5c3.3,0,4.95-3,8.25-3s4.95,3,8.25,3"/>
<path class="st14" d="M7.5,11.5c3.3,0,4.95-3,8.25-3"/>
<path class="st14" d="M33.802,17.729c2.355,0.701,3.958,2.771,6.698,2.771"/>
<path class="st14" d="M7.5,20.5c3.3,0,4.95-3,8.25-3s4.95,3,8.25,3c0.825,0,1.547-0.188,2.217-0.469"/>
<path class="st14" d="M22.505,29.287C22.969,29.42,23.463,29.5,24,29.5c3.3,0,4.95-3,8.25-3s4.95,3,8.25,3"/>
<path class="st14" d="M7.5,29.5c3.233,0,4.883-2.88,8.052-2.996"/>
<path class="st14" d="M29.586,36.172c0.796-0.391,1.653-0.672,2.664-0.672c3.3,0,4.95,3,8.25,3"/>
<path class="st14" d="M7.5,38.5c3.3,0,4.95-3,8.25-3s4.95,3,8.25,3c0.152,0,0.3-0.006,0.445-0.018"/>
</svg>