<?xml version="1.0" encoding="iso-8859-1"?>
<!-- Generator: Adobe Illustrator 23.0.3, SVG Export Plug-In . SVG Version: 6.00 Build 0)  -->
<svg version="1.1" id="Layer_1" xmlns="http://www.w3.org/2000/svg" xmlns:xlink="http://www.w3.org/1999/xlink" x="0px" y="0px"
	 viewBox="0 0 48 48" style="enable-background:new 0 0 48 48;" xml:space="preserve">
<path style="fill:#8CE7F2;" d="M42,44.029H14c-1.657,0-3-1.343-3-3V14.971c0-1.657,1.343-3,3-3h28c1.657,0,3,1.343,3,3v26.057
	C45,42.685,43.657,44.029,42,44.029z"/>
<path style="fill:none;stroke:#18193F;stroke-width:3;stroke-linecap:round;stroke-linejoin:round;" d="M41.5,23.128V17.3v-5.8
	c0-2.2-1.8-4-4-4h-27c-2.2,0-4,1.8-4,4v18.8"/>
<path style="fill:none;stroke:#18193F;stroke-width:3;stroke-linecap:round;stroke-linejoin:round;" d="M6.5,36.5c0,2.2,1.8,4,4,4
	h14.202"/>
<line style="fill:none;stroke:#18193F;stroke-width:3;stroke-linecap:round;stroke-linejoin:round;" x1="41.5" y1="17.5" x2="11.9" y2="17.5"/>
<circle style="fill:#18193F;" cx="36.5" cy="12.5" r="1.5"/>
<circle style="fill:#18193F;" cx="31.5" cy="12.5" r="1.5"/>
<path style="fill:none;stroke:#18193F;stroke-width:3;stroke-linecap:round;stroke-linejoin:round;stroke-miterlimit:10;" d="
	M33.5,26.5c3.9,0,7,3.1,7,7s-3.1,7-7,7s-7-3.1-7-7c0-0.7,0.1-1.4,0.3-2"/>
<line style="fill:none;stroke:#18193F;stroke-width:3;stroke-linecap:round;stroke-linejoin:round;stroke-miterlimit:10;" x1="38.5" y1="38.5" x2="45.5" y2="45.5"/>
</svg>