<?xml version="1.0" encoding="utf-8"?>
<!-- Generator: Adobe Illustrator 27.2.0, SVG Export Plug-In . SVG Version: 6.00 Build 0)  -->
<svg version="1.1" id="Layer_1" xmlns="http://www.w3.org/2000/svg" xmlns:xlink="http://www.w3.org/1999/xlink" x="0px" y="0px"
	 viewBox="0 0 48 48" style="enable-background:new 0 0 48 48;" xml:space="preserve">
<style type="text/css">
	.st0{fill:none;stroke:#000000;stroke-width:3;stroke-linecap:round;stroke-linejoin:round;stroke-miterlimit:10;}
	.st1{fill:#FFAB91;}
	.st2{fill:#90CAF9;}
	.st3{fill:none;stroke:#000000;stroke-width:3;stroke-linecap:round;stroke-miterlimit:10;}
	.st4{fill:none;stroke:#000000;stroke-width:3;stroke-linecap:round;stroke-linejoin:round;}
	.st5{fill:none;stroke:#000000;stroke-width:3;stroke-miterlimit:10;}
	.st6{fill:#F48FB1;}
	.st7{fill:#FFE082;}
	.st8{fill:#8CE7F2;}
	.st9{fill:#A5D6A7;}
	.st10{fill:#9FA8DA;}
	.st11{fill:none;stroke:#18193F;stroke-width:3;stroke-linecap:round;stroke-linejoin:round;stroke-miterlimit:10;}
	.st12{fill:#18193F;}
	.st13{fill:none;stroke:#18193F;stroke-width:3;stroke-linecap:round;stroke-miterlimit:10;}
	.st14{fill:none;stroke:#18193F;stroke-width:3;stroke-linecap:round;stroke-linejoin:round;}
	.st15{fill:none;stroke:#18193F;stroke-width:3;stroke-miterlimit:10;}
</style>
<path class="st2" d="M16.9,10h24.14c0.53,0,0.97,0.43,0.97,0.97v34.07c0,0.53-0.43,0.97-0.97,0.97H16.9c-1.6,0-2.9-1.3-2.9-2.9V12.9
	C14,11.3,15.3,10,16.9,10z"/>
<path class="st11" d="M30.85,42.5H12.5c-1.7,0-3-1.3-3-3V17.96"/>
<path class="st11" d="M9.5,12.15V8.5c0-1.7,1.3-3,3-3h25c0.6,0,1,0.4,1,1v35c0,0.6-0.4,1-1,1h-0.91"/>
<path class="st11" d="M27.5,42.5h-15c-1.7,0-3-1.3-3-3l0,0c0-1.7,1.3-3,3-3h26"/>
<path class="st12" d="M18.92,17.61C18.77,17.24,18.4,17,18,17s-0.77,0.24-0.92,0.62l-2.5,6c-0.21,0.51,0.03,1.1,0.54,1.31
	c0.51,0.21,1.1-0.03,1.31-0.54L16.58,24h2.83l0.16,0.38C19.74,24.77,20.11,25,20.5,25c0.13,0,0.26-0.02,0.38-0.08
	c0.51-0.21,0.75-0.8,0.54-1.31L18.92,17.61z M17.42,22L18,20.6l0.58,1.4H17.42z"/>
<path class="st12" d="M26,20h-3.08c-0.55,0-1,0.45-1,1c0,0.55,0.45,1,1,1H26c0.55,0,1-0.45,1-1C27,20.45,26.55,20,26,20z"/>
<path class="st12" d="M32.5,23h-2.13l2.96-4.45c0.2-0.31,0.22-0.7,0.05-1.03S32.87,17,32.5,17h-4c-0.55,0-1,0.45-1,1s0.45,1,1,1
	h2.13l-2.96,4.45c-0.2,0.31-0.22,0.7-0.05,1.03S28.13,25,28.5,25h4c0.55,0,1-0.45,1-1S33.05,23,32.5,23z"/>
</svg>